<?xml version="1.0" encoding="utf-8"?>
<!-- Generator: Adobe Illustrator 21.0.0, SVG Export Plug-In . SVG Version: 6.00 Build 0)  -->
<svg version="1.1" id="Layer_1" xmlns="http://www.w3.org/2000/svg" xmlns:xlink="http://www.w3.org/1999/xlink" x="0px" y="0px"
	 viewBox="0 0 720 720" style="enable-background:new 0 0 720 720;" xml:space="preserve">
<style type="text/css">
	.st0{fill:#004A94;}
	.st1{fill:#FFCB05;}
</style>
<path class="st0" d="M602.5,280.3l-4.3,17.7l-4-19.7L541,266.6l0.4,29.6l8,1.8l-0.6,5.4c-0.1,0-0.2-0.1-0.2-0.1
	c-9.9-5.3-22.3-5.8-33.9-1.4c-3.9,1.5-7.5,3.5-10.8,5.8l-8-50.7h-35.4l-1,5.8h-37.3l-4.3,26.1l-3.1-3.8c-9-11.1-22.1-17.2-36.6-17.5
	l31.6-17l-22-32.9l-39.9,45.9l6.9,8.4c-6.3,2.5-11.7,6-16.2,10.3L304.4,252l-12,22.9l0.5-22L239.5,270l1.4,28.7l9.1-2.4l1.4,14.6
	c-10.4-4.7-22.9-4.6-34.4,0.3c-3.4,1.5-6.6,3.3-9.6,5.5c2-8.9,1.5-17.6-1.8-25.4c-4-9.2-11-16.8-19.6-21.6c-6-4-13.2-6.5-20.8-7.4
	c-18.5-3.2-40.7,0.1-62.5,9.4c-8,3.4-15.5,7.3-22.3,11.6l-8.5,5.4l5.2,8.7l16,27l4.9,8.3l8.7-4.2l1.2-0.6l39.8,88.8l3.8,8.5l8.9-2.9
	l21.5-6.9l9.4-3l-2.5-9.6l-11.4-43.9c3.3-2.4,6.4-5,9.2-7.7c-0.6,5.3-0.3,10.6,1.1,15.6c3,10.6,10,19,19.6,23.7c10.4,5,23.2,5,35,0
	c5.9-2.5,11.2-6.2,15.6-10.5l1.6,17.5l37.7-5.5v-33.8l78.8,39v-37.7c3.2-0.3,6.4-0.8,9.6-1.5c8.7-2.1,16.1-5,22.7-8.9l-3.3,20.2
	l42.5,6.7l2.4-15.3l11.1,20.5l6.8-13.1l2.5,21.4l48.2,8.5l-2.6-16.2c6.6,0.7,13.5-0.1,20.3-2.6c1.6-0.6,3.2-1.3,4.7-2.1l-1.9,17.3
	l32,4.5l0.3,13.1l33.4,10.5l43.5-131.1L602.5,280.3z M414.4,299.7l2.2-2.4l-2.7,16.5l-7-6.3L414.4,299.7z M386.2,232.2l11.7,15.8
	l-33.4,16.6l-2.3-3.5L386.2,232.2z M325.4,324.8l-10.9-4.2l10.1-9.8C324.2,315.3,324.5,320,325.4,324.8z M165.4,354.4l13.3,51
	l-21.5,6.9l-44.3-98.7c-2.4,1.3-6.8,3.4-10.9,5.4l-16-27c6.4-4.1,13.3-7.7,20.8-10.8c20.8-8.9,40.7-11.5,56.6-8.7
	c5.6,0.6,11.6,2.3,16.8,5.8c7.2,4,12.6,9.8,15.8,17.1C203.7,313.1,190.8,338.7,165.4,354.4z M256.6,367c-4.5,6.2-10.7,11.4-18,14.5
	c-18.7,7.9-37.4,0-42.4-17.7c-4.8-17.2,6.4-37.6,24.5-45.4c11.6-4.9,23.1-3.7,31.5,1.9c5.1,3.5,9,8.7,10.9,15.3
	c0.2,0.7,0.4,1.4,0.5,2.2c0.5,2.5,0.7,5,0.6,7.6C264.1,352.9,261.3,360.5,256.6,367z M366,381.4l-78.1-39.1l0.1,41l-20.2,2.8
	l-1.4-16.9c6.3-10.7,8.5-23.3,5.3-34.8c-1.8-6.4-5.1-11.9-9.6-16.3l-2.9-34.4l-9.1,2.4l-0.4-8.7l32.5-9.7l2,33.5l23.9-33.6
	l23.4,22.3l-32.7,34.5l30.7,12.1c3.5,6.5,8.6,12,15.2,16.1c6.4,3.9,13.6,6.3,21.3,7V381.4L366,381.4z M383.1,348
	c-2.5,0.6-4.9,1-7.3,1.2c-17.9,1.8-33-6.5-38.7-19.9c-0.7-1.6-1.2-3.3-1.6-5c-2.6-11.3-0.4-21.3,5.2-29.2c1.6-2.3,3.5-4.4,5.6-6.3
	c5.2-4.7,11.9-8.1,19.5-9.9c17.1-4.1,32.1,1.1,41.3,12.4l-32.5,34.6c2.2,0.4,5.7-0.2,8.3-0.8c7.8-1.9,12.1-6,15.9-10.5l13,11.7
	l4,3.6c-1.7,1.8-3.5,3.4-5.3,4.9C403,341.2,394.4,345.3,383.1,348z M506.1,385.3l-26.6-4.1l-7.1-46.9l-10,25.9l-15-32.3h-0.2
	l-5.9,37.5l-25-4.3l3.5-20.9c0.9-0.9,1.9-1.8,2.8-2.7l8.1-8.3l-7.8-7l8.3-49.7h25.2l6.3,34.4l7.1-39.9h18l7.5,48.6
	c-9.5,10.9-14.1,25.4-11,38.8c2.5,10.3,8.8,18.7,17.9,23.5c0.9,0.5,1.9,0.9,2.8,1.3L506.1,385.3z M532.8,370.8
	c-6.5,2.4-12.8,2.9-18.6,1.8c-4-0.8-7.6-2.3-10.7-4.6c-5-3.6-8.7-9-10.3-15.7c-1.9-8.1-0.2-16.7,4.2-24.2c2.2-3.7,5-7.2,8.3-10.2
	c3.7-3.3,7.9-6,12.7-7.8c11-4.1,21.8-2.7,29.5,2.8c2.8,2,5.2,4.5,7,7.5c1.4,2.3,2.5,4.9,3.2,7.7c2.3,9.7-0.5,20.1-6.6,28.5
	c-2.6,3.6-5.8,6.8-9.5,9.4C539,367.9,536,369.6,532.8,370.8z M598,410.2l-18.5-5.5l-1.6-68.1l-9.3,52.5l-20.2-3.2l1.4-15.1
	c13.2-11.1,20.2-28.6,16.3-44.5c-1.7-7-5.3-13.2-10.4-17.9l1.7-17.8l-7.6-2l0.5-9.5l34.7,7l11.7,55.4l12-49.6l26.4,5.9L598,410.2z"
	/>
<path class="st0" d="M542.1,322.3c0.2,0.8,0.3,1.6,0.3,2.5c-0.2,5.2-5.1,9.1-10.9,8.9c-5.8-0.2-10.3-4.6-10.1-9.8
	c0.2-4.9,4.5-8.7,9.8-8.9c-1-0.2-2.1-0.4-3.2-0.4c-9.7-0.4-17.6,6.5-18,15c-0.4,9.1,7,16.6,16.5,17c9.7,0.4,17.6-6.5,18-15.6
	C544.7,327.9,543.8,324.8,542.1,322.3z M248,332.7c0,5.2-4.7,9.4-10.5,9.4s-10.5-4.2-10.5-9.4c0-4.9,4.1-8.8,9.5-9.3
	c-1-0.2-2.1-0.3-3.2-0.3c-9.7,0-17.3,7.2-17.3,15.8c0,9.1,7.6,16.3,17.2,16.3c9.7,0,17.3-7.2,17.3-16.3c0-3.2-1.1-6.1-2.8-8.6
	C247.9,331,248,331.9,248,332.7z M384.7,295.6c-7.6-6.9-19.4-6.4-26.3,1.2s-6.4,19.4,1.2,26.3c0.6,0.6,1.3,1.1,2,1.5l24.4-27.7
	C385.6,296.5,385.2,296,384.7,295.6z M361.7,315.2c-2.4-4.4-1.9-10,1.6-13.9c3.4-3.8,8.7-4.8,13.2-3.1L361.7,315.2z M179,313.2
	c-1.9-10.5-15.5-16.3-29.1-9l3.4,12l5.4,17.7l2.5,8.1C171.4,335.5,181.7,327.7,179,313.2z M165.5,329.2c-1.5-4.8-4.6-15.3-4.6-15.3
	c0,0.1-0.6-2.3-1.4-4.8c2.9-0.5,5.6-0.3,7.9,0.9c1.3,0.6,3.5,2,3.9,4.7C172.4,320.6,170.3,324.9,165.5,329.2z"/>
<path class="st1" d="M410.5,334.8c1.8-1.5,3.6-3.1,5.3-4.9l-4-3.6l-13-11.7c-3.8,4.5-8.1,8.6-15.9,10.5c-2.6,0.6-6.1,1.2-8.3,0.8
	l32.5-34.6c-9.2-11.3-24.2-16.5-41.3-12.4c-7.6,1.8-14.3,5.2-19.5,9.9c-2.1,1.9-4,4-5.6,6.3c-5.6,7.9-7.8,17.9-5.2,29.2
	c0.4,1.7,0.9,3.4,1.6,5c5.7,13.4,20.8,21.7,38.7,19.9c2.4-0.2,4.8-0.6,7.3-1.2C394.4,345.3,403,341.2,410.5,334.8z M361.4,324.7
	c-0.7-0.4-1.4-0.9-2-1.5c-7.6-6.9-8.1-18.7-1.2-26.3c6.9-7.6,18.7-8.1,26.3-1.2c0.5,0.4,0.9,0.9,1.3,1.3L361.4,324.7z M86,293l16,27
	c4.1-2,8.5-4.1,10.9-5.4l44.3,98.7l21.5-6.9l-13.3-51c25.4-15.7,38.3-41.3,30.6-59c-3.2-7.3-8.6-13.1-15.8-17.1
	c-5.2-3.5-11.2-5.2-16.8-5.8c-15.9-2.8-35.8-0.2-56.6,8.7C99.3,285.3,92.4,288.9,86,293z M179,313.2c2.7,14.5-7.6,22.3-17.8,28.8
	l-2.5-8.1l-5.4-17.7l-3.4-12C163.5,296.9,177.1,302.7,179,313.2z M263.6,337.8c-0.1-0.8-0.3-1.5-0.5-2.2
	c-1.9-6.6-5.8-11.8-10.9-15.3c-8.4-5.6-19.9-6.8-31.5-1.9c-18.1,7.8-29.3,28.2-24.5,45.4c5,17.7,23.7,25.6,42.4,17.7
	c7.3-3.1,13.5-8.3,18-14.5c4.7-6.5,7.5-14.1,7.6-21.6C264.3,342.8,264.1,340.3,263.6,337.8z M233.3,355.2c-9.6,0-17.2-7.2-17.2-16.3
	c0-8.6,7.6-15.8,17.3-15.8c1.1,0,2.2,0.1,3.2,0.3c-5.4,0.5-9.5,4.4-9.5,9.3c0,5.2,4.7,9.4,10.5,9.4s10.5-4.2,10.5-9.4
	c0-0.8-0.1-1.7-0.3-2.4c1.7,2.5,2.8,5.4,2.8,8.6C250.6,348,243,355.2,233.3,355.2z M366,381.4l-78.1-39.1l0.1,41l-20.2,2.8
	l-1.4-16.9c6.3-10.7,8.5-23.3,5.3-34.8c-1.8-6.4-5.1-11.9-9.6-16.3l-2.9-34.4l-9.1,2.4l-0.4-8.7l32.5-9.7l2,33.5l23.9-33.6
	l23.4,22.3l-32.7,34.5l30.7,12.1c3.5,6.5,8.6,12,15.2,16.1c6.4,3.9,13.6,6.3,21.3,7V381.4z M635.1,297.8L598,410.2l-18.5-5.5
	l-1.6-68.1l-9.3,52.5l-20.2-3.2l1.4-15.1c13.2-11.1,20.2-28.6,16.3-44.5c-1.7-7-5.3-13.2-10.4-17.9l1.7-17.8l-7.6-2l0.5-9.5l34.7,7
	l11.7,55.4l12-49.6L635.1,297.8z M551.5,356.6c6.1-8.4,8.9-18.8,6.6-28.5c-0.7-2.8-1.8-5.4-3.2-7.7c-1.8-3-4.2-5.5-7-7.5
	c-7.7-5.5-18.5-6.9-29.5-2.8c-4.8,1.8-9,4.5-12.7,7.8c-3.3,3-6.1,6.5-8.3,10.2c-4.4,7.5-6.1,16.1-4.2,24.2
	c1.6,6.7,5.3,12.1,10.3,15.7c3.1,2.3,6.7,3.8,10.7,4.6c5.8,1.1,12.1,0.6,18.6-1.8c3.2-1.2,6.2-2.9,9.2-4.8
	C545.7,363.4,548.9,360.2,551.5,356.6z M526.5,346.6c-9.5-0.4-16.9-7.9-16.5-17c0.4-8.5,8.3-15.4,18-15c1.1,0,2.2,0.2,3.2,0.4
	c-5.3,0.2-9.6,4-9.8,8.9c-0.2,5.2,4.3,9.6,10.1,9.8c5.8,0.2,10.7-3.7,10.9-8.9c0-0.9-0.1-1.7-0.3-2.5c1.7,2.5,2.6,5.6,2.4,8.7
	C544.1,340.1,536.3,347,526.5,346.6z M386.2,232.2l11.7,15.8l-33.4,16.6l-2.3-3.5L386.2,232.2z M462.4,360.2l-15-32.3h-0.2
	l-5.9,37.5l-25-4.3l3.5-20.9c0.9-0.9,1.9-1.8,2.8-2.7l8.1-8.3l-7.8-7l8.3-49.7h25.2l6.3,34.4l7.1-39.9h18l7.5,48.6
	c-9.5,10.9-14.1,25.4-11,38.8c2.5,10.3,8.8,18.7,17.9,23.5c0.9,0.5,1.9,0.9,2.8,1.3l1.1,6.1l-26.6-4.1l-7.1-46.9L462.4,360.2z"/>
</svg>
