<?xml version="1.0" encoding="utf-8"?>
<!-- Generator: Adobe Illustrator 21.0.0, SVG Export Plug-In . SVG Version: 6.00 Build 0)  -->
<svg version="1.1" id="Layer_1" xmlns="http://www.w3.org/2000/svg" xmlns:xlink="http://www.w3.org/1999/xlink" x="0px" y="0px"
	 viewBox="0 0 720 720" style="enable-background:new 0 0 720 720;" xml:space="preserve">
<style type="text/css">
	.st0{fill:#E3F2EE;}
	.st1{fill:#F0AB7B;}
	.st2{fill:#5E5B5B;}
	.st3{fill:#3080C1;}
	.st4{fill:#F0AB7C;}
	.st5{fill:#51BA76;}
	.st6{fill:#424040;}
	.st7{fill:#CE4D3F;}
	.st8{fill:#F2CD54;}
	.st9{fill:#485251;}
	.st10{fill:#E6EFEF;}
	.st11{fill:#8F362C;}
	.st12{fill:#215B87;}
	.st13{fill:#A77857;}
	.st14{fill:#A77856;}
	.st15{fill:#A2A6A5;}
	.st16{fill:#7A756C;}
	.st17{fill:#205A86;}
	.st18{fill:#215B86;}
	.st19{fill:#C76131;}
	.st20{fill:#FFFFFF;}
	.st21{fill:#E97373;}
	.st22{fill:#B34438;}
	.st23{fill:#85191A;}
</style>
<path class="st0" d="M321.4,347.3c0.4,0,0.9,0.1,1.3,0.1c5.5-0.3,11.1-0.7,16.6-0.9c7.7-0.3,15.4-0.4,23.2-0.6
	c3.5-0.1,6.9,0,10.4-0.1c3.8,0,7.5,0.2,11.2,0.9c0.6,0.1,1.3,0.1,2.1,0.1c0.2-0.7,0.4-1.2,0.5-1.8c1-5.8,1.5-11.6,0.5-17.4
	c-0.6-3.5-1.9-6.9-3.2-10.2c-3.2-7.9-5.1-16-4.5-24.6c0.3-3.5,0.5-7.1,1-10.6c0.4-2.8,1.1-5.6,1.6-8.4c1-5.9,1.8-11.7,2.8-17.6
	c0.2-1.1,0.5-2.2,1-3.2c-0.1,6.4-0.3,12.9-0.5,19.3c-0.2,6.8-0.5,13.7-0.7,20.5c-0.1,5.9,0.1,11.7,0.8,17.5c0.6,4.7,2.2,9,5.6,12.5
	c2,2,3.2,4.5,3.6,7.4c0.3,2.1-0.2,4.1-0.8,6.1c-1.2,3.9-2,7.9-2.2,12c-0.1,2.9,0,5.7,0.6,8.5c0.3,1.3,0.2,2.8,0.1,4.1
	c-0.1,1.3-0.9,2.2-2.2,2.4c-1.4,0.2-2.8,0.4-4.1,0.4c-6.5-0.1-13.1-0.3-19.6-0.4c-11.4-0.2-22.8-0.3-34.2,0c-2.3,0.1-4.6-0.1-6.8,0
	c-1.4,0-2.2-0.6-2.8-1.7c-0.2-0.4-0.4-0.9-0.5-1.4c-2.2-6.5-5.2-12.6-8.5-18.6c-2.4-4.4-4.7-8.7-7.2-13c-1.2-2-1.7-4.1-1.7-6.5
	c0.1-11.8,1-23.5,1.6-35.3c0-0.9,0.2-1.8,0.3-2.6c0-0.3,0.2-0.5,0.4-0.9c1.5-0.6,3.1-0.6,4.6-0.7c9.1-0.3,18.2-0.5,27.3,0.3
	c1.2,0.1,2.4,0.1,3.6,0.3c1.2,0.1,2,0.8,2.3,2c0.4,1.3,0.8,2.7,1.1,4c2.6,9.1,6.5,17.6,11.8,25.5c2.1,3.2,4.3,6.4,6.5,9.6
	c1.3,1.8,1.6,2,3.7,1.4c1.5-0.4,3-0.9,4.5-1.6c2.7-1.2,3.2-2.5,2.1-5.2c-0.5-1.3-1.1-2.5-1.8-3.7c-6.2-11.1-11.9-22.4-16.7-34.1
	c-0.5-1.2-1-2.4-1.7-3.5c-0.9-1.5-2.1-1.7-3.5-0.7c-1.3,0.9-2.5,1.9-3.6,3.1c-1.7,1.9-3.7,2.5-6.1,2.2c-8.7-1-17.4-0.8-26.1-0.6
	c-1.4,0-2.8,0.2-4.1,0.3c-0.6,0-1.2,0.1-1.8,0.1c-1.7,0-2.2-0.5-2.2-2.1c0-1.1,0-2.2,0.1-3.3c0.4-4.5,0.7-9.1,1.1-13.6
	c0-0.5,0-1,0.1-1.5c0.2-0.7,0.4-1.3,0.7-2.1c5.4-0.4,10.9-0.5,16.2-1.6c5.4-1.1,10.5-2.7,15.6-4.8c5-2.1,9.8-4.7,14.4-7.7
	c4.5-3,8.7-6.5,12.6-10.3s7.3-8,10.7-12.7c0.3,0.6,0.5,0.9,0.6,1.2c1.1,3.9,2.8,7.6,4.8,11.1c1.1,1.9,1.4,3.7,1.1,5.9
	c-1.8,11.4-3.5,22.9-5.1,34.4c0,0.2-0.1,0.4-0.1,0.6c-0.5,6.7-1.1,13.4-1.3,20.1c-0.3,8.2,1.4,16.2,4.9,23.7
	c3.3,7.1,3.9,14.4,2.9,22c-0.1,0.9-0.2,1.8-0.3,2.7c-0.3,1.7-0.7,2-2.4,1.9c-0.2,0-0.4,0-0.6-0.1c-3.4-0.7-6.9-0.7-10.4-0.7
	c-7.2,0-14.5,0-21.7,0.1c-9.5,0.2-19,0.8-28.5,1.6c-0.4,0-0.8,0.1-1.1,0.2C321.5,346.9,321.5,347.1,321.4,347.3z"/>
<path class="st1" d="M263.1,98.4c2,0.3,4.1,0.7,6.2,1.3c3,0.8,5.9,1.7,8.8,2.6c0.3,0.1,0.5,0.2,0.9,0.4c-1.1,2.4-3.5,4.1-4.1,6.7
	c0.7,0.5,1.1,0.1,1.4-0.2c1.3-0.9,2.6-1.8,3.9-2.7c3.7-2.3,7.6-2.9,12-2.1c4.6,0.9,9.2,1.4,13.8,2c1.3,0.2,2.5,0,3.8,0
	c0.3-0.7-0.1-0.9-0.6-1.1c-4.2-2.1-8.5-3.7-13.1-4.7c-3.6-0.8-7.2-1.2-10.9-1.1c-0.7,0-1.5-0.1-2.2-0.1c0.1-0.9,0.7-1.1,1.2-1.3
	c3.5-1.5,7.1-2.5,10.8-3.3c2.9-0.7,5.8-1.3,8.7-1.7c5.8-0.9,11.2,0.2,16.4,2.8c0.8,0.4,1.6,1.1,2.9,1.2c-0.2-0.6-0.3-1.1-0.4-1.5
	c-0.7-3.1,0.6-5.8,3.4-7.1c0.2-0.1,0.4-0.2,0.5-0.2c4-1.1,7.9-2.6,11.3-4.9c0.8,0.5,0.5,1,0.3,1.3c-0.8,1.3-1.6,2.5-2.5,3.7
	c-2.5,3.3-5,6.6-7.5,9.9c-0.6,0.8-1.1,1.7-1.5,2.5c-0.1,0.3,0.1,0.8,0.3,1c0.2,0.2,0.8,0.2,1,0.1c0.8-0.5,1.6-1.2,2.4-1.7
	c0.4,0.4,0.8,0.7,1.3,1.2c0.4-0.3,0.8-0.6,1-0.9c0.4-0.7,0.6-1.5,1-2.2c0.6-1,1.1-2.1,1.8-3c3.4-4.1,8.7-4.4,12.5-0.8
	c1.3,1.2,2.4,2.6,3.1,4.3c0.2,0.5,0.5,1.1,0.9,1.5c0.1,0.2,0.5,0.3,0.8,0.2c0.2-0.1,0.4-0.4,0.5-0.6c0.1-0.3,0-0.6-0.1-0.9
	c-1.4-4.3-4-7.4-8.5-8.9c-0.7-0.2-1.5-0.5-2.5-0.8c0.5-0.6,0.8-1.1,1.1-1.4c1-1.1,2.2-2,3.1-3.2c2.3-2.9,5.3-4,8.9-3.8
	c0.5,0,1,0.1,1.5,0.1c0.3,0.1,0.5,0.2,1,0.4c0.1,0.5,0.3,1,0.3,1.6c0.5,3.6,1,7.3,1.3,10.9c0.5,5.1,1.7,10.1,2.7,15.2
	c0.8,3.7,1.1,7.4,1.7,11.2c0.3,1.9,0.6,3.9,1.1,5.8c1.3,5,0.3,9.4-3,13.4c-1.5,1.8-3,3.7-4.5,5.5c-5.7,6.2-11.4,12.4-17.1,18.6
	c-0.8,0.9-1.7,1.7-2.5,2.5c-3.5,3.4-7.6,4.9-12.5,4.1c-5.2-0.8-10.4-1.7-15.5-2.5c-5.5-0.9-10.8-2.5-16.1-3.9
	c-3.1-0.8-5.9-2.2-8.3-4.4c-0.5-0.5-1-1-1.6-1.3c-1.6-0.9-2.8-2.2-3.9-3.6c-0.6-0.8-1.2-1.6-1.8-2.4c-1.3-1.7-1.6-1.8-3.4-0.9
	c-0.4,0.2-0.9,0.5-1.3,0.7c-5.1,2.6-9.9,2.2-14.5-1.2c-3.7-2.8-7-6.1-9.9-9.8c-3.3-4.3-3.6-8.9-1.1-13.6c2.4-4.5,7.5-5.3,11.1-1.6
	c0.6,0.6,1.1,1.4,1.6,2.1c1.2,1.8,2.4,3.6,3.6,5.4c0.3,0.5,0.7,0.9,1.2,1.3c0.5,0.4,1.6-0.1,1.6-0.8s0-1.4-0.2-2.1
	c-1.4-7.6-2.8-15.2-4.2-22.8c-0.6-3.3-0.5-6.7,0.1-10C262.8,98.7,262.9,98.6,263.1,98.4z M282.2,136.1c1.3,0.4,2.5,0.1,3.7,0
	c3.2-0.1,6.2-1.3,9.2-2c0.2-0.1,0.4-0.4,0.6-0.6c-1.2-0.8-2.6,0.4-3.9-0.7c-0.1-0.6-0.2-1.4-0.2-2.1c0-1.8,0-3.6,0-5.3
	c-0.1-3.5,0-6.9-0.6-10.3c-0.4-2-1-3.8-2.1-5.5c-0.4-0.6-0.8-1.1-1.3-1.6c-1.4-1.3-3-1.1-4.1,0.4c-0.6,0.8-1.1,1.7-1.3,2.6
	c-0.3,1.3-0.6,2.7-0.5,4.1c0.1,2.6,0.3,5.1,0.8,7.7c0.6,3.5,1.5,6.9,2.3,10.4c0.3,1.4,0.1,1.8-1.2,2.2
	C283.1,135.6,282.5,135.4,282.2,136.1z M344.6,121.6c0-0.8-0.1-1.5-0.1-2.3c0-3.6,0.1-7.1-0.1-10.7c-0.1-2.7-0.5-5.3-1-7.9
	c-0.2-1.1-0.7-2.3-1.3-3.3c-0.7-1.2-1.6-2.3-3.3-2.1c-1.5,0.2-2.1,1.4-2.6,2.6c-0.9,1.9-1.1,4-1.1,6.1c0.1,5.1,0.6,10.1,1.6,15
	c0.3,1.3,0.5,2.7,0.7,4c-0.5,0.3-0.9,0.5-1.6,0.9c1.4,0.7,2.5,0.5,3.5,0.5c3.3-0.2,6.4-1.3,9.4-2.6c0.7-0.3,1.6-0.3,1.8-1.5
	C348.3,120,346.8,121.8,344.6,121.6z M338,138.3c-1.1-0.5-1.8-0.1-2.5,0.1c-9.3,2.6-18.6,5.3-27.9,7.9c-0.5,0.1-1,0.3-1.4,0.4
	c-1.7,0.6-2,1.3-0.8,2.8s2.5,3,4,4.3c2.7,2.5,6,4.1,9.4,5.5c3.4,1.5,6.4,0.8,9-1.6c1.5-1.5,2.9-3.2,4.1-5c2.7-4,4.5-8.5,6-13.1
	C338,139.3,337.9,138.9,338,138.3z M301.6,138.3c-0.9-0.6-1.7-0.2-2.5,0.3c-1.5,1.1-3,2.2-4.6,3.2c-0.4,0.3-0.8,0.4-1.5,0.7
	c-0.1-0.9-0.2-1.6-0.3-2.3c-0.1-0.9-0.2-1.8-0.5-2.6c-0.2-0.7-1-1-1.7-0.6c-0.4,0.3-0.8,0.6-1.2,0.9c-2.1,1.9-4.2,3.8-6.4,5.8
	c-0.2,0.2-0.5,0.4-0.6,0.6c-0.1,0.3-0.2,0.8,0,1.1c0.3,0.4,0.8,0.6,1.3,0.4c0.5-0.3,0.9-0.7,1.4-1.1c1.5-1.3,3-2.6,4.5-3.9
	c0.1-0.1,0.4-0.1,0.7-0.2c0.1,0.6,0.3,1.1,0.4,1.6c0.1,0.8,0.1,1.6,0.3,2.4c0.2,0.9,1,1.3,1.8,0.9c0.2-0.1,0.4-0.2,0.5-0.3
	c2.3-1.7,4.6-3.4,6.9-5.1C300.9,139.8,301.6,139.3,301.6,138.3z M350.5,131.3c0.3-0.1,0.4-0.1,0.5-0.1c3-2,5.4-4.6,7.9-7.1
	c0.5-0.6,0.3-1.3-0.7-1.7c-1.8,1.4-3.5,3-5.3,4.6c-0.4,0.3-1,0.6-1.5,0.9c-0.2-0.9-0.4-1.5-0.5-2.2c-0.2-0.7-0.3-1.4-0.5-2
	c-0.4-1.2-1.4-1.3-2.3-0.5c-0.1,0.1-0.3,0.3-0.4,0.4c-1.8,2.1-3.6,4.2-5.4,6.3c-0.4,0.4-0.8,1-0.9,1.5s0.2,1,0.4,1.7
	c2.5-2.2,4.2-4.8,6.5-6.7C349.5,127.9,348.7,130.1,350.5,131.3z M253.4,131.4c1.6,0.7,7.5,4.7,8.2,5.4c0.6,0.6,0.9,1.3,1,2.1
	c0,0.8,0,1.6,0.2,2.4c0.5,2.3,2.6,3.8,5.1,3.5c0.3,0,0.6-0.7,0.4-0.9c-0.4-0.4-0.9-0.8-1.4-1c-1.7-0.7-2.4-2-2.2-3.8
	c0.3-2.1-0.7-3.6-2.4-4.7c-2-1.4-4.1-2.8-6.1-4.1c-0.6-0.4-1.2-0.7-1.8-0.9c-1.3-0.4-2.7,0.4-3,1.7c-0.2,0.8-0.2,1.6-0.2,2.4
	c0,0.5,0.2,1,0.8,1.1s0.9-0.2,1.1-0.8C253.1,132.9,253.2,132.3,253.4,131.4z M329.6,134.8c2-1.5,2.7-3.8,3.7-5.8
	c-1.2-1.8-2.5-3.3-4-4.7c-1.4,0.9-1.6,1.3-1,2.3c0.5,0.6,1,1.2,1.5,1.8c0.6,0.7,0.7,1.4,0.4,2.2c-0.3,0.6-0.6,1.2-0.9,1.9
	C329,133.1,328.9,133.8,329.6,134.8z"/>
<path class="st0" d="M251.5,89.7c-0.3-0.6-0.5-1-0.7-1.4c-2.9-9.9-6-19.7-8.3-29.7c-1.5-6.5-2.3-13-2.3-19.7c0-1.4,0-2.8-0.1-4.2
	c-0.1-1.2,0.3-2.1,1.2-2.8c1.9-1.5,3.7-3,5.6-4.5c5.8-4.5,11.8-8.7,18.3-12.1c5.7-3,11.6-5.6,17.9-7c4.3-0.9,8.6-1.1,13-1.2
	c3.2,0,6.3,0.1,9.5,0.4c12.8,1.1,25.1,4.3,37.1,8.9c1.1,0.4,2.2,0.9,3.3,1.5c6,3,9.1,8,9.9,14.5c0.5,3.9,0.8,7.9,1.1,11.8
	c0.6,6.2,1.1,12.4,1.7,18.6c0,0.6,0,1.2,0,1.7c-0.3,0.1-0.5,0.2-0.7,0.2c-7.4-2.1-15-2.6-22.6-2.7c-22.7-0.4-43.8,5.4-63.8,15.8
	c-6.1,3.2-12.1,6.8-17.9,10.6C252.9,88.8,252.3,89.2,251.5,89.7z M272.8,41.4c0.3,1.1,0.5,1.8,0.8,2.5c1.3,2.5,3,4.7,5.2,6.4
	c3.5,2.8,7.4,4.6,11.7,5.7c8.9,2.2,17.5,1.2,25.9-2.3c4-1.7,7.7-4.2,10.7-7.4c3.1-3.3,5-7.1,5.8-11.5c0-0.3,0.1-0.6,0.1-0.9
	c0.1-1.1-0.4-1.7-1.5-1.7c-0.7,0-1.4,0.1-2.1,0.2c-2.3,0.3-4.5,0.8-6.8,1c-1.5,0.2-2.3,0.8-2.7,2.3c-0.9,3.4-3.1,5.9-6,7.8
	c-6.7,4.4-13.9,4.7-21.3,2.3c-2.7-0.9-4.8-2.7-6.5-5c-0.9-1.2-1.9-1.5-3.3-1.3c-2.5,0.5-5.1,0.8-7.6,1.2
	C274.6,40.9,273.9,41.1,272.8,41.4z M284.2,35.3c0-0.1,0.1-0.2,0.2-0.3c0.1-0.4,0.3-0.8,0.3-1.1c0.4-3.1,2.1-5.5,4.5-7.4
	c6.7-5.4,14.3-6.4,22.4-4c3.3,1,5.8,3,7.5,5.9c0.3,0.5,0.7,0.9,1.1,1.5c3.7-0.3,7.3-1,10.9-1.6c0.3-0.1,0.6-0.4,1-0.6
	c-0.2-0.6-0.2-1.2-0.5-1.8c-0.9-2.1-2.2-4-3.8-5.6c-3.4-3.4-7.3-5.7-11.9-7c-5.2-1.5-10.5-1.9-15.9-1.2c-7.1,0.9-13.6,3.2-19.3,7.7
	c-2.3,1.8-4.3,3.8-5.8,6.3c-1.6,2.6-2.7,5.5-2.9,8.6c-0.1,2,0.4,2.6,2.4,2.4c3.1-0.4,6.3-1,9.4-1.5
	C283.9,35.6,284.1,35.4,284.2,35.3z M301.2,43.6c2.5,0,5.1-0.5,7.5-1.7c2-1,3.6-2.3,4.8-4.2c2-3.2,1.5-6.8-1.3-9.4
	c-1.3-1.2-2.9-2-4.6-2.5c-4.3-1.1-8.4-0.5-12.3,1.6c-1.5,0.8-2.8,1.9-3.7,3.3c-2.4,3.6-1.8,7.9,1.7,10.5
	C295.5,42.8,298.1,43.7,301.2,43.6z"/>
<path class="st0" d="M273.7,285c1.6-1,3.4-1.1,5.2-1.2c5.3-0.3,10.7-0.4,16-0.6c0.2,0,0.4,0.1,0.8,0.2c0,0.5,0.2,1,0.2,1.6
	c-0.2,2.6-0.5,5.1-0.8,7.7c-1,9.3-2,18.5-2.9,27.8c-0.2,1.7-0.3,3.4-0.6,5c-0.3,1.4-0.7,2.7-1.2,4c-1.5,3.6-2.8,6.3-2.9,6.5
	c-1.4,2.6-4.4,10.2-11.2,30.5c-1,0.1-1.9,0.3-2.9,0.3c-5.2,0.3-10.5,0.5-15.7,0.7c-4.1,0.1-8.1,0.4-12.1,1.3
	c-0.4,0.1-0.8,0.1-1.3,0.2c-0.1-0.6-0.2-1.2-0.3-1.7c-0.3-3.9-0.1-7.7,0.4-11.6c0.2-1.9-0.1-3.5-1.2-5.1c-1.9-2.8-2.9-6-3.9-9.3
	c-0.5-1.5-0.4-3,0.2-4.4c1.8-4.1,4.2-7.8,6.4-11.9c0.7,0.5,1.1,0.8,1.6,1.1c0.6,0.4,1,0.9,1.6,1.3c2.5,1.7,4.7,1.2,6.2-1.4
	c0.8-1.4,1.4-2.8,2.1-4.2c3-5.9,6-11.8,8.9-17.8c2.8-5.8,5.2-11.8,7-18C273.3,285.7,273.5,285.4,273.7,285z M249.9,349.9
	c5.4-0.6,10.2-1.1,15-1.6c1.8-0.2,3.5-0.3,5.3-0.5c1.7-0.2,3.5-0.5,5.2-0.8C267,347.4,258.6,347.3,249.9,349.9z"/>
<path class="st2" d="M469,601.4c-1.6-0.5-2.6-1.6-3.8-2.2c-1.3-0.7-2.5-1.5-3.9-2.2c-1.2-0.7-2.7-0.8-3.5-2
	c-0.8,0.1-1.6,0.3-2.4,0.2c-2.7-0.4-5.1,0.4-7.4,1.7c-1.6,0.9-3.2,2-4.7,3.1c-2.9,2.1-5.7,4.3-8.6,6.3c-9.5,6.4-20.1,10.1-31.5,11.6
	c-1,0.1-2,0.3-2.9,0.4c-1.7,0.1-2.1,0-4-0.7c-0.8-2-0.6-4.1,0-6.1c1-4,0-7.4-2.3-10.6c-0.9-1.3-1.9-2.5-2.9-3.8
	c-4.5-5.8-7.5-12.3-9.1-19.5c-3.2-14.5-7.3-28.8-11.2-43.1c-0.4-1.3-0.9-2.6-0.8-4.3c1.3,0.8,1.7,2.1,2.5,3s1.5,1.8,2.3,2.7
	c0.9,0.9,1.8,1.8,3.3,2.3c0.1-0.6,0.2-1,0.2-1.4c0-0.3-0.3-0.5-0.5-0.7c-3.4-2.9-5.4-6.8-7.3-10.7c-3.2-6.9-6.3-13.9-9.5-20.8
	c-1.6-3.6-3.3-7.2-4.9-10.8c-0.4-1-1-1.9-1.1-2.9c0.1-0.3,0.1-0.4,0.2-0.4c0.1-0.1,0.2-0.1,0.3-0.1c9.8-1.1,19.7-2.1,29.5-3.2
	c0.4,0,0.8,0.1,1.3,0.1c0.4,0.9,0.9,1.8,1.3,2.6c2.6,5.8,5,11.6,7.7,17.4c1.3,2.8,1.8,5.6,1.7,8.6c0,0.9-0.2,1.8,0.4,2.6
	c0.2,0.4,0.6,0.6,1.2,1.1c0.2-0.6,0.4-0.9,0.5-1.3c0.5-3.9,0.1-7.7-1.4-11.4c-1.3-3.1-2.7-6.2-4.1-9.2c-1.3-2.9-2.7-5.7-4-8.6
	c-0.3-0.7-0.8-1.4-0.4-2.4c1.1-0.2,2.2-0.4,3.4-0.6c3-0.5,6-1.1,9-1.6c4.7-0.8,8.9-2.5,13-4.8c1.5-0.8,2.9-1.6,4.5-2.5
	c0.3,0.6,0.6,1,0.8,1.6c1.5,4.4,3,8.8,4.5,13.2c0.3,0.8,0.6,1.5,0.9,2.2s1,0.9,1.9,1c0.2-2-1.3-3.7-1.3-6c0.8,0.6,1.3,0.9,1.8,1.4
	c2.8,2.8,5.1,6.1,6.4,9.9c1.7,4.8,3.4,9.5,4.7,14.4c6,21.5,14.8,41.8,25.5,61.3c2.6,4.8,4.1,9.8,3.8,15.3c-0.2,2.8,0,5.5,0.6,8.3
	C468.8,600,468.9,600.6,469,601.4z M405.1,557.7c-0.2,0.1-0.3,0.2-0.5,0.3c0.3,0.6,0.5,1.2,0.8,1.8c2.4,4.5,4.9,9,7.3,13.6
	c0.6,1.1,1.2,2.3,1.7,3.5c1.3,3.2,1.9,6.4,1,9.8c-0.8,3.1-1.5,6.1-2.3,9.2c-0.1,0.6-0.2,1.3-0.4,2.6c0.7-0.7,1-1,1.1-1.3
	c1-3.9,2-7.8,2.9-11.8c0.6-2.6,0.2-5.1-0.6-7.6c-0.5-1.4-1.1-2.8-1.8-4c-2.8-5.1-5.6-10.2-8.4-15.3
	C405.7,558.3,405.4,558,405.1,557.7z M283.2,602.1c-0.1,0-0.5,0-0.9-0.1c-3.3-0.9-6.7-1.8-10-2.9c-5.9-1.9-11.3-4.7-16.2-8.5
	c-1.8-1.4-3.6-2.8-5.4-4.2c-1.2-0.9-2.4-1.8-3.6-2.6c-5.9-4.2-12.4-5.5-19.5-4c-2,0.4-4.1,0.9-6.1,1.4c-0.5,0.1-0.9,0.1-1.5,0.2
	c0-0.5-0.1-0.9-0.1-1.3c0.2-4.9,0.6-9.9,0.7-14.8c0.2-9,0.3-18,1-27c0.8-10.8,2.2-21.5,4.3-32.1c1.2-5.9,2.2-11.9,3.2-17.8
	c0.3-1.6,0.2-3.4,0.2-5c0.1-1-0.1-2,0.7-3c4.3,1.8,8.7,3.2,13.3,4c4.5,0.8,9,1.4,13.7,2.1c-0.2,1-0.4,1.9-0.6,2.7
	c-2,6.4-3.8,12.9-6.4,19.1c-0.5,1.3-0.3,2.2,0.4,2.3c1,0.1,1.3-0.8,1.5-1.5c2.5-6.2,4.9-12.5,6.6-19.1c0.2-1,0.5-1.9,0.8-2.6
	c0.9-0.8,1.7-0.6,2.5-0.5c12.7,1.5,25.5,1.9,38.2,2.4c1,0,1.9,0.1,2.9,0.2c0.6,1.4,0.2,2.5,0.1,3.7c-1.1,11.1-2.2,22.3-3.2,33.4
	c-0.6,6.7-0.9,13.4-1.5,20.1c-0.7,8.4-1.1,16.8-1.3,25.2c-0.1,2.9-0.1,5.7,0,8.6c0,5.2-1.7,9.7-5.3,13.5
	C288.8,596.9,286,599.4,283.2,602.1z M323.1,412.5c1.6-3,3.3-6.2,4.9-9.3c0.7-1.3,1.4-2.6,1.9-4c0.9-2.5,0.3-4-2.3-4.9
	c-4.3-1.5-8.6-2.8-13-4.2c-0.9-0.3-1.9-0.6-2.8-0.9c-1.1-1.5-1.4-3.3-1.7-5c-0.9-5.9-0.7-11.9,0.5-17.7c0.1-0.6,0.4-1.1,0.6-1.8
	c0.6,0,1.2-0.1,1.7-0.1c8.9,1.4,17.8,1.1,26.7,0.8c6.2-0.2,12.5-0.1,18.7-0.1c2.6,0,5.1,0.1,7.7,0.2c1.1,0,2.2,0.1,3.3,0.2
	c0.2,0.6,0.5,1.2,0.5,1.7c0.2,3.7,2,6.6,4.7,9c1.2,1,2.4,2,3.7,2.9c4.9,3.3,9.9,6.6,14.9,9.8c0.7,0.4,1.3,0.9,2,1.2
	c1.5,0.8,2.3,2,2.6,3.7c1.5,6.3,3,12.5,4.5,18.8c0.1,0.4,0.2,0.8,0.3,1.1c0.3,1.2-0.1,2.1-1.2,2.7c-4.5,2.9-9.3,5.2-14.3,7.2
	c-7.9,3.1-16,5.2-24.3,6.5c-9.2,1.5-18.4,2.7-27.6,4.1c-0.4,0.1-0.8,0.1-1.2,0.1c-1.9,0.1-2.2,0-2.9-1.8c-0.9-2.1-1.7-4.2-2.5-6.3
	C326.8,421.9,325,417.3,323.1,412.5z M354.1,488.2c-0.4-0.8-0.8-1.4-1.1-2c-6.7-16.3-13.3-32.6-20-49c0.7-0.3,1.2-0.5,1.8-0.6
	c5.3-0.6,10.6-1.2,15.9-1.9c10.6-1.4,21.1-3.2,31.4-6.4c2.2-0.7,4.3-1.5,6.4-2.2c1.2,0.3,1.5,1.3,2,2.1c3,4.9,5.3,10.2,6.9,15.7
	c3.4,11.7,6.7,23.4,10,35.1c0.1,0.4,0.1,0.8,0.2,1.3c-0.5,0.3-1,0.7-1.5,0.8c-3.8,0.8-7.5,1.8-11.3,2.3c-9.9,1.4-19.8,2.5-29.7,3.7
	c-2.4,0.3-4.7,0.6-7.1,0.9C356.7,488,355.5,488.1,354.1,488.2z M260.3,484.5c-0.1-2.1,1.7-3.8,0.4-5.7c-1.3,0.9-1.3,1-1.9,2.4
	c-0.4,1-0.4,2.2-1.5,3.1c-9.3-1-18.7-2-27.5-6.4c2.5-16.7,5.6-33.2,8.4-49.8c0.1-0.4,0.4-0.7,0.6-1.1c0.6,0.1,1.2,0.1,1.7,0.3
	c10.4,3.2,21,5.7,31.7,7.7c4.1,0.8,8.2,1.4,12.3,2.1c0.6,0.1,1.2,0.2,1.8,0.3c0.9,0.1,1.4,0.6,1.7,1.5c0.6,2.2,1.2,4.4,1.7,6.6
	c0.1,0.6-0.1,1.4-0.2,2c-0.9,3.9-1.7,7.7-2.6,11.6c-1.8,7.9-3.5,15.8-5.3,23.8c-0.1,0.5-0.2,1-0.4,1.4c-0.5,1.8-1,2.2-2.7,2.1
	C272.5,485.7,266.5,485.2,260.3,484.5z M244.8,371.4c2.3-1,4.5-1.3,6.6-1.5c3.9-0.3,7.7-0.4,11.6-0.6c5.8-0.2,11.7-0.4,17.5-0.7
	c1.1,0,2.2-0.2,3.3-0.3c2.5-0.2,3.9-1.7,4.7-3.9c0.4-1,0.6-2.1,1-3.1c0.5-1.5,1-3,1.6-4.5c0.3-0.6,0.7-1.3,1.2-1.5
	c0.7-0.4,1.5-0.2,2.3,0.6c-0.6,4.7-1.3,9.5-1.1,14.4c0.2,4.8,1.1,9.4,2.7,14.1c-0.7,0.1-1.3,0.2-1.8,0.2c-3.2-0.1-6.3-0.3-9.5-0.4
	c-1.4,0-2.8,0-3.9-1.1c-0.1-0.1-0.4-0.2-0.5-0.3c-0.6-0.2-1.3,0.3-1.2,0.9c0.2,2.1,0.3,4.1,0.5,6.2c0.9,6.6,1.7,13.1,2.7,19.7
	c1.2,7.5,2.6,15,3.9,22.5c0.1,0.9,0.5,1.7,0.2,2.7c-2.5,0.1-4.8-0.5-7.1-0.9c-11-2-22-4.1-32.8-7.1c-1.9-0.5-3.8-1-5.7-1.6
	s-2.2-1-1.9-3c0.4-2.6,0.9-5.3,1.4-7.9c1.4-7.4,2.9-14.8,4.3-22.1c0.2-1.2,0.3-2.4,0.3-3.5c0-3.1,0-6.1,0.6-9.2
	c0.4-1.9,0.2-3.7-0.4-5.6C245.2,373.2,245.1,372.4,244.8,371.4z"/>
<path class="st3" d="M399.8,222.4c0-1.4,1.5-2,0.8-3.4c-0.3,0.1-0.7,0.1-1,0.3c-1.2,1-2.4,2-3.6,3.1c-0.8,0.7-1.7,1.2-2.9,1.4
	c-3,0.5-6,1.3-9,1.9c-0.6,0.1-1.1,0.1-1.8,0.2c-1.3-2.4-1.7-4.9-2.2-7.4c-1-5.4-1.6-10.8-1.9-16.2c-0.2-3.6-0.5-7.1-0.6-10.7
	c-0.1-4.2-0.1-8.3,0.5-12.4c0.1-0.8,0.1-1.6,0.2-2.5c-2-1.8-2.9-4.1-2.3-7c0.6,0.3,1.2,0.5,1.7,0.7c1.5,0.8,2.9,1.7,4.4,2.4
	c2.3,1.2,4.7,1.9,7.4,2.2c1,0.1,1.9,0.4,2.8,0.8c0.8,0.3,1.6,0.7,2.4,1.1c1.8,0.8,3.5,0.7,5.1-0.2c0.4-0.2,0.9-0.5,1.3-0.7
	c1.6-0.7,3.1-0.6,4.5,0.5c0.3,0.2,0.6,0.5,0.9,0.8c2.3,2.2,5.1,3,8.2,2.9c2.4,0,4.7-0.3,7.1-0.5c2.7-0.2,5.3-0.6,8-0.8
	c2.2-0.2,4.3-0.2,6.5-0.3c0.9,0,1.8,0.1,2.3,1.1c-1.4,6.1-1.4,12.4-1.5,18.6c-0.1,3.9,0,7.7,0,11.6c0,0.9,0,1.8-0.2,2.7
	c-0.1,1-0.4,1.9-0.6,3.1C424.3,217.7,412.1,219.9,399.8,222.4z"/>
<path class="st3" d="M309.8,250.6c0.5-5.8,0.9-11.6,1.4-17.6c2.4-1.5,2.9-3.8,3-6.4c0.2-3.6,0.2-3.7,3.7-4.6
	c5.9-1.5,11.5-3.7,16.7-6.7c12.4-7.2,20.5-17.8,24.7-31.4c0.4-1.3,0.8-2.7,1.1-4c1.4-5.1,2.3-6.2,7.1-9.1c1.1,0.8,2.4,1.6,3.5,2.4
	c1.3,0.9,2.5,1.9,3.9,2.8c1.1,0.7,1.5,1.6,1.4,3c-0.3,3.5-0.6,7.1-0.5,10.7c0.2,6,0.6,12.1,1,18.1c0.1,1.6,0,3.1-0.9,4.6
	c-10.1,17-24.3,29-43,35.4c-6.5,2.2-13.2,3.4-20.1,3.5c-0.7,0-1.4,0-2.1-0.1C310.5,251,310.4,250.9,309.8,250.6z"/>
<path class="st4" d="M447.7,184.1c4.2-1.7,13.2-1.4,17.8,0.5c-0.2,0.8-0.5,1.6-0.7,2.4c0,0.2,0.2,0.7,0.4,0.7
	c0.3,0.1,0.8,0.1,1.1-0.1c0.4-0.3,0.6-0.8,0.8-1.2c2.3-4.4,5.2-8.4,8.5-12.1c4-4.6,8-9,12-13.6c3.3-3.7,6.5-7.5,9.7-11.2
	c0.4-0.5,0.9-1,1.5-1.5c2.2,1.4,4.2,2.8,6.4,3.9c2.2,1.2,4.4,2.2,6.7,3.1c2.3,0.9,4.7,1.6,7.2,2.4c-0.3,0.6-0.4,1.1-0.7,1.6
	c-6.2,11.3-13.5,21.9-20.8,32.4c-3,4.3-6,8.6-9.1,12.8c-3,4.3-7.2,6.7-12.3,7.5c-2.8,0.4-5.7,0.8-8.5,1c-3.7,0.3-7.5,0.6-11.2,0.9
	c-0.5,0-1,0.1-1.5,0.1c-1.1,0-1.9-0.4-2.5-1.3c-3.2-4.9-5.4-10.1-5.7-16C446.4,192.2,446.8,188.1,447.7,184.1z"/>
<path class="st5" d="M503.8,99.7c2-4.2,3.4-8.7,6.2-12.2c3.4-4.3,7.3-8.3,11.6-11.9c0.9-0.8,2-1.2,3.2-1.3c2.9-0.2,4.9-1.8,6.5-4.2
	c0.6-0.9,0.9-2,2.1-2.5c0.3,0.3,0.8,0.6,1,1c2.3,3.6,5.2,6.8,8,9.9c1.2,1.3,2.1,2.8,2.6,4.6c0.6,1.8,0.8,3.7,0.4,5.6
	c-0.6,3.5-1.2,7-1.8,10.5c-1.3,7-2.7,14-5.3,20.7c-1.5,3.9-3.2,7.7-4.9,11.5c-1.3,3-3.6,5.1-6.4,6.9c-1.3,0.8-2.5,1-4,0.6
	c-4.4-1.4-8.4-3.5-12.2-6.1c-1.1-0.8-1.7-1.9-1.7-3.3c0-3.7-1.1-7.2-2.2-10.7c-0.8-2.7-1.5-5.3-2.3-8c-0.5-1.5-0.3-2.9,0.5-4.3
	c1.5-2.5,1.4-3-0.4-5.3C504.5,100.8,504.3,100.4,503.8,99.7z"/>
<path class="st4" d="M249.2,309.3c-1.7,9.6-6.6,17.5-11.3,25.4c-1.2-0.1-1.8-0.8-2.4-1.4c-6.6-6.3-13.1-12.7-19.6-19
	c-2.9-2.8-5.7-5.5-8.7-8.1c-6-5.2-10.1-11.5-12-19.3c-0.4-1.6-1-3.2-1.6-4.8c-1-2.7-0.9-5.3,0.4-7.8c0.8-1.5,1.5-3,2.5-4.4
	c2.3-3.1,4.7-6.1,7.1-9.1c0.2-0.3,0.6-0.5,1-0.8c0.5,0.7,0.9,1.4,1.3,2c1.9,3,4,5.9,6.3,8.6c3.2,3.6,6.9,6.5,11.1,8.8
	c1.9,1.1,3.8,2.1,5.8,3.1c0.9,0.5,1.6,1.1,1.9,2.1c1,2.7,2.6,5.1,4.4,7.4c4.3,5.4,8.6,10.9,12.9,16.3
	C248.7,308.5,248.9,308.9,249.2,309.3z"/>
<path class="st6" d="M215.4,624.2c-0.4-0.4-0.6-0.6-0.7-0.8c-1.1-3.1-2.4-6.1-3.3-9.2c-1.2-3.8-1-7.7,0.5-11.3
	c0.9-2.2,1.8-4.4,3.1-6.4c2.5-3.8,4.1-7.9,4.3-12.5c0-0.3,0.1-0.6,0.3-1.1c4.8-1.6,9.8-2.7,14.9-2.7c0.5,0,1,0.1,1.5,0.1
	c2.7,0.4,5.2,1.2,7.6,2.5c1.3,0.7,2.6,1.5,3.8,2.4c1.9,1.3,3.7,2.6,5.5,4.1c7.6,6.5,16.5,10.4,26.1,12.8c1.2,0.3,2.5,0.7,3.6,1
	c0.2,0.3,0.4,0.5,0.3,0.7c-0.4,3.2,0.4,6.3,1.5,9.3c0.2,0.7,0.4,1.3,0.7,2c1.3,2.6,1.2,4.9-1,7c-1.3,1.3-1.4,3.2-1.7,5
	c-0.2,1.2,0,2.4-0.6,3.6c-2.3,0-4.4-0.8-6.7-1c-2.1-0.2-4.3-0.2-6.6-0.3c-0.1-0.9-0.1-1.7-0.2-2.5c-0.3-6.3-3.4-10.7-9.3-12.8
	c-2.6-1-5.3-1.6-8-2.1c-8.5-1.6-17.1-2.2-25.7-2.2c-1.9,0-3.8,0.3-5.5,1c-2.2,0.9-3.6,2.5-3.8,4.8c-0.1,1,0,2-0.1,3
	C215.8,620.3,216,622.2,215.4,624.2z"/>
<path class="st3" d="M255.5,241.4c-2.9-3.3-4.5-7.1-6.5-10.9c-1.1,1.4-1,2.6-0.4,3.8c0.7,1.5,1.4,3,2.3,4.5c1.1,1.7,2.3,3.2,3.4,4.8
	c0.4,0.6,0.8,1.1,1.3,1.8c-9.5,7.9-16.6,17.8-24.2,27.5c-0.7-0.4-1.3-0.7-1.8-1.1c-2.1-1.7-4.4-3.4-6.4-5.3
	c-3.6-3.6-7.1-7.5-10.6-11.2c-0.5-0.6-1-1.2-1.5-1.9c-2-2.7-2-4.2,0.1-6.9c0.9-1.2,1.9-2.3,3-3.3c7.5-7.4,13.9-15.7,20.3-24
	c0.7-0.9,1.3-2,1.9-3c0.5-0.8,0.9-1.5,1.5-2.2c0.9-1.2,2-1.9,3.6-1.8c0.6,0,1.2,0,1.9,0c0.3-0.5,0.5-1,0.7-1.5
	c0.8-2.1,1.4-4.3,2.3-6.4c1.9-4.5,5.4-7.2,10.1-8.3c0.1,0,0.2,0,0.4,0.1c0,0.9,0.1,1.7,0,2.6c-0.4,4.8-0.9,9.7-1.2,14.5
	c-0.3,6.1-0.5,12.3,0.1,18.4c0.3,3,0.1,6.1,0.1,9.2C256,240.8,255.8,241,255.5,241.4z"/>
<path class="st7" d="M259.5,87.3c0.7-0.6,1-0.9,1.3-1.1c12.6-7.8,25.9-14.2,40.2-18c9.9-2.7,20-4,30.2-4c5.6,0,11.3,0,16.9,0.7
	c9.8,1.2,18.5,4.7,26.5,10.4c0.4,0.3,0.8,0.6,1.1,1c0.2,0.4,0.2,0.9,0.4,1.4c-1.7,0.7-3.4,0.8-5.1,0.9c-2,0-4,0-5.9,0
	c-9.6-0.1-19.2-0.2-28.8,0.7c-9.8,0.9-19.5,2-29,4.7c-4.2,1.2-8.3,2.8-12.3,4.5c-4.4,1.9-8.8,3.7-13.1,5.6c-1.5,0.6-2.8,0.7-4.3,0
	c-4.5-2.3-9.4-3.7-14.2-5.2C262.3,88.4,261.1,87.9,259.5,87.3z"/>
<path class="st0" d="M252.9,302.9c3-22.1,4.5-44.2,5.3-66.4c0.9-0.3,1.1,0.2,1.4,0.6c9.7,10.7,21.7,17.4,35.7,20.5
	c1,0.2,1.9,0.5,3,0.7c0.1,0.5,0.3,1,0.2,1.4c-0.7,6.4-1.4,12.8-2.1,19.2c-0.1,0.7-0.2,1.3-0.4,2.1c-0.6,0.1-1.2,0.3-1.8,0.3
	c-2.6,0-5.1,0.1-7.7,0.1c-4.1,0-8.1,0.2-12.1,1.2c-1.6,0.4-2.9,0.2-4.2-0.6c-0.8-0.5-1.8-0.8-2.8-1.1c-1.3-0.3-2.4,0.1-3.1,1.2
	c-0.5,0.6-0.8,1.4-1.1,2.1c-1.3,2.7-2.4,5.4-3.7,8.1c-1.6,3.2-3.3,6.3-5,9.4c-0.3,0.5-0.7,0.9-1,1.4
	C253.3,303,253.1,302.9,252.9,302.9z"/>
<path class="st8" d="M321.9,363c-0.4,0.1-0.7,0.3-1,0.2c-2.5-0.2-4.9-0.5-7.4-0.8c-1.4-0.2-2.3-1.1-2.9-2.3
	c-1.4-2.8-2.8-5.7-4.3-8.5c-2.1-4.2-4.3-8.5-6.4-12.7c-0.4-0.8-0.7-1.7-1.8-1.7c-1,0-1.2,0.9-1.6,1.6c-3.7,7.9-7.6,15.7-10.1,24.1
	c-0.7,2.5-1.7,3.1-4.3,3.3c-1.5,0.1-2.9,0.3-4.6,0c0.1-0.6,0.2-1.2,0.4-1.8c2.5-6.7,5-13.3,7.5-20c0.6-1.6,1.6-3.1,2.3-4.8
	c1.3-2.9,2.4-5.9,3.8-8.7c1.2-2.5,1.8-5.2,2.1-8c1.1-11.1,2.3-22.2,3.5-33.4c1.2-11.2,2.3-22.4,3.4-33.7c0.3-3.1,0.7-6.1,0.9-9.1
	c0.3-3.9,0.5-7.7,0.7-11.6c0-0.8-0.1-1.6,0.6-2.4c1.8,0.1,3.7,0.2,5.9,0.4c0,0.7,0.1,1.3,0.1,1.9c-0.4,5.1-0.7,10.3-1.2,15.4
	c-0.2,2.4,0,4.9-0.6,7.4c0,0.1,0,0.2,0,0.3c0.5,6.9-0.8,13.8-1.1,20.7c-0.4,7.3-1.1,14.6-1.5,21.9c-0.4,7-0.5,14-0.7,21.1
	c0,0.7,0,1.4,0,2.1c0,1.5,0.5,2.9,1.2,4.2c4.1,7.5,8.1,15,12,22.5c1.8,3.4,3.3,7,4.4,10.7C321.8,361.8,321.8,362.4,321.9,363z"/>
<path class="st3" d="M273.2,189.7c0.2,1.8,0.3,3.3,0.5,4.9c1.3,12.1,7.5,20.6,18.6,25.5c1.5,0.7,3.1,1.3,4.7,1.9
	c0,0.7,0.1,1.3,0.1,1.9c0,1.3-0.1,2.6-0.2,3.9c-0.2,2.1,0.5,3.7,2.7,4.3c0.3,0.1,0.5,0.3,0.9,0.6c0.3,1.8,0.1,3.6,0,5.5
	c-0.1,2-0.3,3.9-0.4,5.9c-0.1,1.9,0,3.8-0.6,5.4c-1,0.7-1.9,0.3-2.7,0.1c-14-3.3-25.5-10.4-34.3-21.9c-1.3-1.6-2.3-3.4-3.6-5.1
	c-0.9-1.2-1.2-2.5-1.2-3.9c0-2.3,0-4.6,0.2-6.8c0.4-5.1,0.9-10.3,1.3-15.4c0.1-1.2,0.7-1.7,1.8-2.1c2.8-0.9,5.6-1.9,8.4-2.9
	C270.5,191.1,271.7,190.4,273.2,189.7z"/>
<path class="st6" d="M318.7,410.3c-2.8,6.8-4.3,13.9-5.8,20.9c-0.2,1-0.4,1.9-0.7,2.9c-0.2,0.8-0.9,1.3-1.7,1.5
	c-5.2,0.9-10.4,1.2-15.6,0.6c-2.1-0.3-4.3-0.6-6.4-1c-0.9-2.1-1.1-4.2-1.5-6.2c-2-10.5-3.7-21-5-31.6c-0.2-2.1-0.6-4.1-0.9-6.2
	c-0.2-1.6-0.5-3.3-0.2-5.3c0.6,0.3,1,0.5,1.3,0.8c1.3,1.1,2.5,2.2,3.8,3.3c4,3.7,8.6,6.6,13.6,8.8c4.4,1.9,8.9,3.9,13.4,5.5
	c2.4,0.9,4.1,2.3,5.1,4.6C318.3,409.4,318.5,409.8,318.7,410.3z"/>
<path class="st6" d="M397,619.2c9.8-0.2,19-2.5,27.8-6.3c5.5-2.4,10.5-5.5,15.3-9.1c1.7-1.3,3.4-2.7,5.2-4c1.8-1.4,3.8-2.5,6-3.3
	c1.6-0.6,3.3-0.8,5.1-0.1c0,0.6,0.1,1.1,0.1,1.7c-0.2,2.7-0.4,5.3-0.8,8c-0.4,3,0.3,5.7,2,8.1c1.1,1.6,2.2,3.3,3.2,5
	c0.3,0.5,0.5,1,0.9,1.7c-1.5,0.3-2.8,0.1-4,0c-4.2-0.3-8.3-0.3-12.4,0.2c-6.2,0.8-11.8,3.2-16.5,7.4c-3.5,3.1-5.2,6.9-5,11.5
	c0.1,2.8,0.5,5.5,0.7,8.3c0,0.4,0.1,0.8,0.1,1.1c-0.7,0.3-1-0.2-1.3-0.6c-2.1-2.8-4.3-5.4-6.3-8.3c-2.9-4.2-6.4-7.7-10.6-10.7
	c-1.9-1.3-3.6-2.8-5.3-4.3C398.9,623.6,398.1,622.1,397,619.2z"/>
<path class="st7" d="M258.6,647.7c-0.9-0.5-1.6-0.8-2.3-1.2c-2.5-1.4-4.9-2.9-7.4-4.3c-7.8-4.3-16.2-6.8-25.2-6.8
	c-2,0-3.9-0.2-5.9-0.4c-1.4-0.2-1.9-0.8-1.8-2.2c0.1-0.9,0.3-1.8,0.5-2.6c1.3-4.2,1.8-8.5,1.5-12.9c-0.2-2.7,0.6-3.9,3.2-4.6
	c1.7-0.5,3.5-0.7,5.3-0.7c3.3,0,6.5,0.2,9.8,0.5c6.3,0.5,12.6,1.3,18.8,2.8c1.4,0.4,2.9,0.8,4.2,1.4c5,2.3,7.6,7.2,6.7,12.6
	c-0.2,1.5-0.6,2.9-1.1,4.3C262.8,638.2,260.7,642.8,258.6,647.7z M476.4,649.3c-1.1-0.3-2-0.6-2.9-0.9c-5.5-1.9-11-2.9-16.9-2.9
	c-5.6,0-10.7,1.5-15.5,4.5c-3.8,2.4-7.6,4.5-10.7,7.5c-1,0-1.2-0.6-1.5-1.1c-1.4-2.5-1.9-5.2-2.3-7.9c-0.4-2.6-0.5-5.3-0.7-8
	c-0.3-4.4,1.5-7.9,4.8-10.7c4.1-3.4,8.8-5.2,14-6.1c3.3-0.5,6.7-0.7,10-0.3c2.5,0.3,5.1,0.2,7.7,0.3c1.5,0.1,3,0.2,4.4,0.4
	c2.2,0.3,3.8,1.5,5.1,3.3c1.5,2.1,2.3,4.3,2.7,6.8c0.4,2.9,0.8,5.9,1.2,8.8c0.2,1.6,0.5,3.1,0.6,4.7
	C476.5,648.1,476.4,648.5,476.4,649.3z M183.4,664.8c0.2-1.9,1.1-2.8,2-3.7c5-5,10.6-9.3,16.4-13.3c0.8-0.6,1.7-0.9,2.8-1
	c6.5-0.1,13.1,0,19.6,0.9c5.1,0.8,10,2.4,14.6,4.9c3.7,2,7.3,4.1,10.9,6.1c1.4,0.8,2.6,1.8,3.4,3.3c0.5,1.1,0.8,2.3,0.7,3.5
	c-0.3,3.2,0,6.3,0.2,9.5c0,0.5,0.1,1,0.1,1.5c0,0.9-0.3,1.8-1,2.4c-1.1,1-2.3,1.9-3.5,2.7c-0.8,0.5-1.4,0.4-2.1-0.3
	c-0.7-0.7-1.3-1.5-1.9-2.3c-1.9-2.5-4.1-4.6-6.8-6.1c-8.1-4.7-16.5-8.6-25.6-10.8s-18.1-1.7-26.8,1.9
	C185.2,664.3,184.4,664.5,183.4,664.8z M253.8,681c0.4,2,0.4,3.4,0.2,4.9c-0.6,0.4-1.3,0.9-1.9,1.3c-10.2,6.2-21.3,9.5-33.2,9.9
	c-6.1,0.2-12.3,0-18.4-0.5c-5.1-0.4-9.8-2.2-14.2-4.9c-3.5-2.1-6.5-4.9-9.6-7.5c-0.7-0.6-1.1-1.4-1-2.3c0.9-5,2.4-9.8,7-13.2
	c0.3,0.6,0.6,1.2,0.9,1.8c1.1,3.1,2.7,5.9,5.3,8.1c0.7,0.6,1.4,1.2,2.2,1.5c6.4,2.8,12.9,4.9,20,5.3c6.1,0.3,11.8-0.8,17.3-3.4
	c2.8-1.3,5.5-2.8,8.2-4.1c1-0.5,1.9-0.9,3.1-1.4c0.7,0.6,1.3,1.1,1.8,1.6c1.1,1.2,2.1,2.4,3.1,3.6c0.5,0.5,0.9,1,1.5,1.5
	c1.6,1.3,2.9,1.4,4.6,0.2C251.6,682.8,252.5,682,253.8,681z M500.4,677.6c0.6,0.3,1,0.5,1.4,0.8c1,0.8,2.1,1.5,3,2.4
	c4.4,4.1,3.8,3.8,3.4,8.4c-0.1,1.7-0.2,3.3-0.3,5c-0.7,1-1.8,1.3-2.8,1.8c-4.5,2-9.2,3.5-14.1,4.5c-6.7,1.4-13.4,2.4-20.3,2.4
	c-11.5,0.1-22.6-2.1-33.4-6c-2-0.7-4.1-1.5-6.1-2.3c-0.6-0.3-1.2-0.6-1.9-1c0.3-0.8,0.5-1.6,0.9-2.3c1-1.8,1.8-1.7,3.1-1.3
	c0.6,0.2,1.3,0.5,2,0.7c3.4,1.1,6.5,0.4,9.2-1.7c1-0.8,1.9-1.7,2.8-2.6c0.5-0.5,0.9-1,1.5-1.5c0.6-0.6,1.4-0.7,2.2-0.3
	c0.5,0.3,1.1,0.5,1.6,0.8c3.5,2.2,7.4,3.4,11.4,4.1c6,0.9,12,1.3,18,1c1.9-0.1,3.8-0.1,5.6-0.3c1.9-0.2,3.7-0.5,5.5-1.2
	c3.5-1.2,5.7-3.8,6.5-7.5C499.9,680.3,500.1,679,500.4,677.6z M434,687.6c1.1-4.5,2.2-8.9,3.2-13.3c0.4-1.6,1.2-2.9,2.6-3.9
	c4.7-3.4,9.6-6.6,15-9c6.7-2.9,13.6-4.1,20.9-3c3.9,0.6,7.8,1.1,11.7,1.9c5.7,1.2,10.4,4.3,14.4,8.4c2.2,2.2,3,5,2.6,8.3
	c-0.5-0.2-0.9-0.3-1.2-0.6c-5.2-4-11.2-5.7-17.6-6.6c-2.5-0.3-5.1-0.6-7.7-0.9c-6.2-0.7-12,0.6-17.5,3.5c-4.2,2.3-7.9,5.3-11.2,8.8
	c-1.8,1.9-3.6,3.7-5.4,5.5c-1.9,1.9-4.2,2.5-6.8,2.1C435.9,688.9,434.8,688.5,434,687.6z"/>
<path class="st9" d="M185.3,666.8c1.5-1,3.3-1.6,5.1-2.1c8-2.4,16-2.1,24,0.2c7.6,2.2,14.9,5.4,21.8,9.4c0.3,0.2,0.6,0.5,0.9,0.7
	c-0.2,0.2-0.2,0.4-0.4,0.5c-4,2-7.9,4-12,5.8c-5.3,2.3-11,2.5-16.6,1.8c-4.1-0.5-8.1-1.6-12.1-2.9c-5.8-1.8-9.2-5.9-10.7-11.7
	c-0.1-0.3-0.1-0.6-0.1-0.9C185.1,667.3,185.1,667.2,185.3,666.8z"/>
<path class="st10" d="M253.9,688.9c0.3,2.8,0.6,5.1,0.8,7.4c-0.8,1.2-2,1.8-3,2.5c-6.1,3.8-12.7,6.4-19.7,8.1
	c-6.6,1.5-13.3,2-20,1.7c-5.3-0.3-10.7-0.7-15.9-1.6c-3-0.5-6-1.4-8.8-2.5c-5-2-8.6-5.5-11.4-10c-1.6-2.5-1.6-5.2-0.5-8.2
	c1.7,1.1,3.1,2.3,4.5,3.5c3.7,3.2,7.8,5.7,12.5,7.3c3.1,1.1,6.3,1.9,9.6,2c6.5,0.2,13.1,0.3,19.6,0.3c7.2-0.1,14.1-1.9,20.7-4.7
	c3.2-1.3,6.3-3,9.4-4.5C252.2,689.8,252.9,689.4,253.9,688.9z"/>
<path class="st2" d="M403.8,418.2c5.4,18.5,10,37.3,14.9,55.9c-1.4,1.5-5.5,3.9-8.7,5.2c-1-0.5-1-1.6-1.2-2.5
	c-1.6-5.9-3.2-11.8-4.9-17.7c-1.7-6.1-3.5-12.2-5.4-18.2c-1.5-4.8-3.5-9.3-6.2-13.4c-0.4-0.7-0.8-1.4-1.2-2.1c-0.1-0.1,0-0.4,0-0.6
	c0.1-0.1,0.2-0.4,0.4-0.4c3.8-2.1,7.7-4.1,11.5-6.1C403.2,418.1,403.4,418.2,403.8,418.2z"/>
<path class="st10" d="M430.5,705.6c0.8-2.5,1.7-5,2.6-7.7c1.1,0.3,2,0.6,2.9,0.9c5.7,2,11.5,3.7,17.4,4.8c8.4,1.6,16.9,2,25.4,1.1
	c9.5-1,18.7-3.1,27.5-7c0.4-0.2,0.9-0.3,1.4-0.4c0.5,2.1,0.6,5.5,0.1,6.8c-0.3,0.9-0.8,1.6-1.6,2.1c-0.7,0.4-1.4,0.8-2.1,1.1
	c-5.9,2.6-12.1,4.2-18.5,5c-7.9,0.9-15.8,0.6-23.7,0.3c-4.5-0.2-9.1-0.6-13.6-1c-1.6-0.1-3.2-0.3-4.7-0.7c-4.1-1.2-8.1-2.6-11.9-4.5
	C431.2,706.2,430.9,706,430.5,705.6z"/>
<path class="st9" d="M451.4,682.3c1.3-1.5,2.7-2.6,4.1-3.7c2.6-2.2,5.4-4.1,8.5-5.5c2.6-1.2,5.4-2,8.3-2.1c7-0.1,13.8,0.7,20.6,2.5
	c0.9,0.2,1.7,0.5,2.5,0.8c1.8,0.6,2.6,1.9,2.7,3.8c0.2,4.6-2.3,8.1-6.8,9.2c-2.1,0.5-4.3,0.7-6.5,0.8c-7.2,0.4-14.4,0.4-21.6-1
	C458.9,686.4,455.7,685.1,451.4,682.3z"/>
<path class="st11" d="M227.3,53.6c4.9,0.6,9.1,2.3,13.2,5.1c0.9,3.4,1.9,7,2.8,10.6c1,3.7,2.1,7.4,3.1,11.2c1,3.6,2.3,7.1,3.1,10.8
	c-2.3,1.4-4.8,1.5-7.1,2.5s-4.6,1.9-6.9,2.9c-0.3-0.5-0.6-0.9-0.7-1.3c-2.7-9.6-5.7-19.2-7.7-29c-0.5-2.5-0.9-5.1-0.8-7.7
	C226.3,57,226.6,55.4,227.3,53.6z"/>
<path class="st12" d="M436.9,216.7c0.2,1.8,0.3,3.5,0.5,5.1c0.2,1.7,0.4,3.3,0.7,5c0.3,1.6,0.6,3.3,1,4.9c-1.6,1-3.3,1.3-4.9,1.3
	c-2,0.1-4,0.1-5.9,0.1c-7.7,0-15.4-0.4-23.1-1.3c-3.8-0.5-7.6-1.2-11.4-1.9c-0.6-0.1-1.1-0.4-1.8-0.6c0.3-0.4,0.5-0.8,0.7-1.1
	c1-1.1,2.1-2.1,3.1-3.2c0.8-0.8,1.7-1.3,2.8-1.5c12.4-2.3,24.7-4.6,37-6.9C435.9,216.7,436.2,216.7,436.9,216.7z"/>
<path class="st7" d="M533.5,135.3c0.6,1.3,0.5,2.1,0.3,3c-0.9,4.8-2.5,9.3-4.9,13.6c-0.2,0.4-0.5,0.9-0.8,1.3
	c-1.8,2.4-4.2,3.4-7,2.6c-6.4-1.9-12.9-3.8-18.5-7.8c-1.5-1.1-3.1-2.1-4.5-3.1c-0.4-1.3-0.3-2.3,0.1-3.4c1.7-4.6,3.9-8.9,7.1-12.6
	c0.3-0.4,0.7-0.6,1.1-0.9c0.2,0.3,0.4,0.4,0.4,0.6c0.2,3.5,2.2,5.9,5,7.5c3.2,1.9,6.6,3.5,10.3,4.6c2.9,0.9,5.4,0.4,7.6-1.8
	C530.8,137.7,532,136.6,533.5,135.3z"/>
<path class="st3" d="M326.2,177c1.8-1.6,4-3.1,6.2-4.5c5.8-3.4,12-6.1,18.1-8.9c0.2-0.1,0.5,0,1,0c-0.5,0.9-0.9,1.7-1.3,2.4
	c-0.7,1.2-1.5,2.4-2.2,3.5c-1.5,2.2-2.2,4.6-2.3,7.3c0,2.4,0,4.7,0,7.3c-8.4,7.2-17.4,13.6-27.1,18.9c-0.8-0.8-0.2-1.4,0-2
	c1.2-3.2,2.5-6.4,3.7-9.7s2.2-6.6,3.3-9.9C325.9,180.1,325.9,178.8,326.2,177z"/>
<path class="st9" d="M482.1,657.1c-2.3-0.2-3.9-0.3-5.5-0.5c-8.9-1.3-17.3,0.1-25.3,4.2c-3.7,1.9-7.3,4-10.7,6.4
	c-0.8,0.6-1.6,1.1-2.4,1.6c-1.5-1.2-5.2-6-6.8-8.9c0.3-0.4,0.6-0.9,1-1.2c2.6-2,5.2-4,7.9-5.8c7.5-5.1,15.8-6.6,24.6-4.7
	c3.6,0.8,7.1,1.8,10.5,3.1c1,0.4,2,0.9,2.7,1.8C479.3,654.2,480.7,655.2,482.1,657.1z"/>
<path class="st11" d="M415.5,664.7c0.7,0.3,1.1,0.5,1.4,0.6c1.9,1,3.9,0.8,5.7-0.3c1.4-0.9,2.7-1.9,4.1-3c0.6-0.5,1.2-1,1.8-1.5
	c0.3,0.2,0.6,0.4,0.8,0.6c2,2.7,4,5.4,6.1,8c0.8,1,0.9,2,0.5,3.3c-1,3.1-1.9,6.2-2.7,9.4c-0.6,2.7-1.5,5-3.7,6.9
	c-1.1,0.9-1.6,2.4-2.5,3.8c-0.4-0.1-0.8-0.3-1.2-0.5c-2.7-1.3-5.3-2.6-8-4c-2.6-1.3-2.9-1-2.8-4.5c0.1-4,0.2-7.9,0.3-11.9
	c0-1.6,0-3.2,0.1-4.8C415.3,666.4,415.4,665.7,415.5,664.7z"/>
<path class="st6" d="M294.1,438.4c3.1,0.1,5.9,0.4,8.8,0.3c2.7-0.1,5.4-0.6,8.4-0.9c-0.2,3.5-1.2,6.7-1.8,10
	c-0.6,3.3-1.2,6.6-1.8,9.9c-0.6,3.2-1.1,6.4-1.6,9.6c-0.5,3.3-1,6.6-1.5,10c-0.6,0.1-0.8-0.4-1-0.9c-1.9-3.9-3.8-7.8-5.8-11.7
	c-2.3-4.5-4.1-9.2-5.9-13.9c-0.3-0.9-0.5-1.7-0.3-2.6c0.7-3.1,1.4-6.1,2.2-9.2C293.8,438.8,293.9,438.6,294.1,438.4z"/>
<path class="st3" d="M366.3,324c-0.1-0.1-0.3-0.5-0.5-0.8c-7-9.3-12.9-19.2-16.8-30.3c-0.9-2.6-1.6-5.3-2.4-7.9
	c-0.4-1.3-0.2-2.3,0.9-3.1c1.2-0.9,2.2-2,3.3-3c0.5-0.4,1.1-0.7,1.6-1.1c1,0.4,1.3,1.1,1.6,1.8c0.5,1.3,1.1,2.5,1.6,3.8
	c4.6,11.3,10,22.2,16.1,32.7c0.6,1.1,1.2,2.3,1.7,3.5s0.1,1.9-0.9,2.5C371.2,323.1,368.7,323.8,366.3,324z"/>
<path class="st3" d="M297.9,201.9c-1.1-0.5-1.6-0.7-2.1-0.9c-4.4-2.1-8.6-4.5-12.6-7.3c-3.8-2.6-7.4-5.3-11.5-7.3
	c-0.3-0.1-0.5-0.3-0.8-0.5c-0.6-0.5-0.9-1.1-0.5-1.8c0.5-1,1-1.9,1.7-2.8c0.9-1.1,1.9-2.1,2.7-3.1c1.4-1.7,2.8-3.3,4-5.1
	c1.1-1.6,2.4-2.3,4.3-2s3.7,0.6,5.6,1c0.9,0.1,1.4,0.7,1.5,1.6c1.6,8.5,4.8,16.5,6.9,24.9C297.4,199.4,297.6,200.3,297.9,201.9z"/>
<path class="st9" d="M257.5,650c-0.1,0.4-0.1,0.7-0.2,1c-1.3,2.5-2.6,5.1-3.9,7.8c-0.9-0.5-1.8-1-2.6-1.5c-1.9-1.2-3.7-2.3-5.5-3.5
	c-9.5-6.2-19.9-9.1-31.2-9c-1.7,0-3.4-0.1-5-0.1c-0.3,0-0.6-0.2-0.9-0.3c0.1-0.3,0.2-0.6,0.3-0.8c1.9-1.8,3.8-3.5,5.6-5.3
	c0.8-0.7,1.5-1.2,2.6-1.1c4.7,0.3,9.5,0.5,14.2,0.9c3.6,0.3,7,1.3,10.3,2.7c5.3,2.3,10.3,5,15.2,8.1
	C256.7,649.2,257.1,649.7,257.5,650z"/>
<path class="st13" d="M308.5,204.2c-0.4-1.1-0.7-1.8-0.9-2.4c-1.8-5.5-3.5-10.9-5.3-16.4c-0.9-2.6-1.3-5.2-1.7-7.8
	c-0.5-2.8-1-5.6-1.4-8.5c-0.1-0.5-0.2-0.9-0.2-1.3c0.5-0.6,1-0.3,1.5-0.2c7.2,1.9,14.5,3.1,21.8,4.4c1.8,0.3,2,0.5,2,2.3
	c0,0.3,0,0.6-0.1,0.9c0,0.2-0.2,0.3-0.4,0.7c-0.6,0.1-1.4,0.2-2.1,0.2c-1.9,0-3.2,1-4,2.6c-0.4,0.9-0.8,1.8-1.1,2.7
	c-2.2,6.5-4.3,12.9-6.5,19.4C309.7,201.8,309.5,202.9,308.5,204.2z"/>
<path class="st2" d="M282.7,486.3c3.3-11.4,5.3-22.8,8.1-34.3c0.4,0.4,0.7,0.6,0.8,1c2.3,6.9,5.8,13.2,9,19.7c1,2,1.8,4,2.8,5.9
	c0.7,1.4,0.8,2.8,0.5,4.3c-0.2,1-0.3,2-0.5,2.9s-0.7,1.4-1.6,1.5c-0.5,0.1-1,0.1-1.5,0.1c-5.2-0.3-10.5-0.5-15.7-0.8
	C284.1,486.5,283.5,486.4,282.7,486.3z"/>
<path class="st11" d="M256.5,684c-0.1-0.8-0.4-1.5-0.4-2.3c-0.2-6.5-0.4-13-0.6-19.6c-0.1-1.8,0.4-3.5,1.2-5.2
	c0.9-1.8,1.8-3.5,3-5.2c0.8,0.7,1.4,1.2,2,1.7c0.8,0.7,1.6,1.5,2.5,2.1c2.5,1.8,5.3,2.1,8.2,0.9c0.6-0.3,1.3-0.5,1.8-0.7
	c0.7,0.4,0.5,0.9,0.5,1.3c-0.2,2.8-0.4,5.5-0.5,8.3c-0.1,2.6-0.9,4.9-2.8,6.7c-4.4,4.2-9,8.3-14.1,11.8
	C257.1,683.9,256.9,683.9,256.5,684z"/>
<path class="st3" d="M352,181.4c0.5,1.5,0,2.4-0.3,3.3c-6.1,15.1-16.7,25.2-32.5,29.5c-1.1,0.3-2.3,0.6-3.5,0.8
	c-1.1,0.2-1.8-0.3-1.9-1.3c-0.1-1.7-0.1-3.4,0-5c0.1-1.5,0.7-2.7,2.2-3.2c6.5-2.5,12.2-6.5,17.9-10.4c5.5-3.9,10.8-8.1,16.1-12.1
	C350.5,182.5,351.2,182,352,181.4z"/>
<path class="st2" d="M305.3,355c3.2,3.6,4.2,7.8,3.4,12.3c-0.6,3.3-1.4,6.6-1.1,10c0.2,3.4,0.6,6.7,1,10.3c-0.3,0.4-0.9,0.2-1.4,0
	c-2.2-0.6-4.4-1.2-6.6-1.8c-0.8-0.2-1.4-0.6-1.7-1.5c-0.6-1.8-1.3-3.5-1.7-5.4c-1.5-5.9-1.6-12-1-18c0.2-1.8,0.4-3.5,0.7-5.4
	C299.7,355,302.5,355,305.3,355z"/>
<path class="st12" d="M255.4,247.4c0.1,1.1,0.2,1.7,0.2,2.4c-0.2,2.8-0.4,5.5-0.6,8.3c-0.1,2.1-0.2,4.1-0.2,6.2s-0.5,4-1.9,5.5
	c-2.4,2.8-4.9,5.4-7.5,8c-0.8,0.8-1.8,1.2-3,0.7c-3.1-1.2-6.1-2.3-8.9-4c-0.3-0.2-0.6-0.5-0.8-0.7
	C235.1,268.8,250,251.4,255.4,247.4z"/>
<path class="st11" d="M267.8,632c0.6-0.1,1.3-0.3,1.9-0.3c3.3,0,6.5,0.2,9.7,1c3.9,1,4.7,2.5,3,6.3c-0.8,1.8-1.7,3.5-2.8,5.2
	c-1.6,2.6-3.3,5.2-5.1,7.7c-2.6,3.6-4.2,4.1-8.6,1.9c-1.1-0.5-2-1.2-3-1.9c-1.7-1.3-2.2-3-1.5-5c0.4-1,0.8-2,1.2-3
	C264.4,639.9,266,636.1,267.8,632z"/>
<path class="st6" d="M475.4,628.4c-0.6-0.9-0.9-1.4-1.2-1.8c-1.5-2.6-3.8-4.4-6.8-4.8c-2.3-0.3-3.7-1.4-4.8-3.4
	c-0.8-1.6-1.9-3-2.9-4.5c-1.5-2.2-2.1-4.7-1.9-7.3c0.3-3,0.5-6.1,0.8-9.1c1-0.3,1.8,0.1,2.6,0.6c2.7,1.7,5.3,3.4,7.9,5.2
	c0.5,0.4,1,1,1.3,1.6c1.5,3.5,3.6,6.6,5.6,9.8c0.8,1.3,1.6,2.7,2.3,4.2c1,2,0.9,4-0.3,5.9C477.3,625.8,476.5,626.9,475.4,628.4z"/>
<path class="st3" d="M271.1,285.1c-0.5,3-1.4,5.5-2.5,8c-2.9,6.4-5.8,12.8-8.8,19.2c-1.9,3.9-3.8,7.8-5.8,11.7
	c-0.1,0.2-0.2,0.4-0.3,0.5c-0.8,1.9-2.1,2.9-4.4,0.9c-0.9-0.7-1.5-1.8-2.4-2.7c0.6-1.5,1.2-2.8,1.6-4.2c1.3-5.3,3.9-9.9,6.7-14.4
	c3.5-5.6,6.3-11.6,9.1-17.7c0.2-0.4,0.3-0.7,0.5-1.1c1.2-2.5,2-2.8,4.3-1.4c0.3,0.2,0.7,0.4,1,0.7
	C270.5,284.6,270.8,284.8,271.1,285.1z"/>
<path class="st2" d="M372,365.9c0.6-0.1,1.2-0.2,1.8-0.2c4.7,0,9.5,0.1,14.2,0.1c1.5,0,2.1,0.8,2.5,2c1.6,5.2,3.2,10.4,4.7,15.6
	c0.5,1.5,1,3,1.1,4.8c-0.5-0.2-0.9-0.2-1.2-0.4c-5.7-3.5-11.3-7.3-16.6-11.3c-1-0.7-1.8-1.5-2.7-2.3
	C372.9,372.2,372,369.3,372,365.9z"/>
<path class="st12" d="M373.7,172.3c-1.4-1-2.4-1.6-3.3-2.3c-0.7-0.5-1.5-0.7-2.4-0.6c-1.8,0.1-3.2,0.6-4.6,1.7
	c-4.4,3.4-8.9,6.6-13.3,9.9c-0.9,0.6-1.7,1.3-2.5,1.8c-0.8-0.2-0.7-0.8-0.7-1.2c0-0.7,0-1.4-0.1-2.1c-0.2-4.1,0.7-7.8,3.2-11.1
	c1.3-1.6,2.3-3.5,3.3-5.3c0.5-0.9,1-1.4,1.9-1.8c0.4-0.2,0.7-0.3,1.1-0.5c1.8-1,3.5-0.8,5,0.4c2.2,1.8,4.7,2.4,7.4,2.4
	c2.2,0,3.5,1,4,3.1C373,168.4,373.7,169.9,373.7,172.3z"/>
<path class="st8" d="M301.9,206.4c0.9,0.6,0.4,1.4,0.5,2c0.1,0.7,0.4,1.3,1.1,1.6c1.9,0.7,3.8,1.1,5.8,0.6c1.5-0.4,1.9-0.8,2-2.5
	c0-0.5,0-1,0-1.4c0.7-0.4,1.1-0.2,1.2,0.3c0.2,0.6,0.2,1.2,0.2,1.8c-0.1,3.2-0.3,6.3-0.4,9.5c-0.1,2.5,0,4.9,0,7.4
	c0,1.2-0.2,2.4-0.3,3.5c-0.1,1-0.8,1.6-1.7,1.8c-0.4,0.1-0.8,0.2-1.2,0.2c-2.9,0.2-5.7-0.2-8.5-0.9c-1.4-0.4-1.8-0.9-1.8-2.3
	c-0.1-2.5,0.4-4.9,0.9-7.4c0.4-1.9,0.9-3.9,1.3-5.8c0.5-2.4,0.9-4.9,0.9-7.4C301.7,207.2,301.8,206.8,301.9,206.4z"/>
<path class="st11" d="M410.3,636.1c0.5,0.4,1,0.8,1.5,1.3c1.2,1.5,2.5,3.1,3.6,4.7c3,4.2,6.1,8.2,9.6,12c0.7,0.7,1.3,1.5,1.8,2.3
	c0.6,0.9,0.5,1.9-0.2,2.7c-1.8,1.9-3.8,3.4-6.3,4.2c-1.8,0.6-3.4,0.1-4.4-1.5c-0.9-1.4-1.7-2.9-2.5-4.4c-1.9-3.4-3.4-6.9-4.4-10.7
	c-0.8-3.3-0.9-6.5,0.4-9.6c0.1-0.3,0.2-0.5,0.4-0.8C409.8,636.4,410,636.3,410.3,636.1z"/>
<path class="st14" d="M451.8,213.7c-2.6,0.7-9.4,1.4-12,1.3c-0.1-0.5-0.3-1.1-0.3-1.7c-0.1-8.1-0.3-16.2,0.1-24.3c0-0.5,0-1,0.1-1.5
	c0.1-1.3,0.8-2.2,2.1-2.6c1.4-0.4,2.9-0.7,4.5-1.1c0,0.6,0.1,1.1,0.1,1.5c-0.2,2.4-0.6,4.7-0.8,7.1c-0.4,6.7,1.4,12.9,4.8,18.7
	C450.8,212,451.3,212.9,451.8,213.7z"/>
<path class="st13" d="M205.4,258.8c1.1-1.5,2.1-3,3.5-4.4c0.7,0.7,1.3,1.3,1.9,2c4.3,5.1,8.9,10,14.1,14.3c1.8,1.4,3.6,2.7,5.5,4
	c0.4,0.3,0.8,0.5,1.2,0.9c0.6,0.5,0.8,1.1,0.5,1.9c-0.6,1.4-1.1,2.7-1.7,4C221.1,278.8,211.8,270.3,205.4,258.8z"/>
<path class="st5" d="M227.6,385.6c0.5-0.6,0.7-0.9,1-1.2c2.4-2.1,3.6-4.9,4.1-8c0.2-1.2,0.6-2,1.4-2.8c0.8-0.8,1.5-1.6,2-2.5
	c1.4-2.5,2.4-5,0.7-7.9c0.5-0.5,0.9-0.9,1.4-1.2c2-1.1,3.3-2.5,3-5c0-0.2,0.2-0.5,0.4-0.7c0.2,0.2,0.4,0.4,0.4,0.5
	c-0.1,4.3-0.2,8.7-0.2,13c0,0.7,0.3,1.5,0.7,2.2c1.3,2.3,1.6,4.6,1.3,7.1c-0.1,1.4-0.3,2.8-0.3,4.1c-0.1,1.4-0.8,2.3-2,2.6
	c-1.5,0.4-3.1,0.7-4.6,0.8C233.8,387,230.8,386.6,227.6,385.6z"/>
<path class="st6" d="M312,390.4c2,0.6,3.3,0.9,4.6,1.4c3.2,1,6.4,2.1,9.6,3.1c0.6,0.2,1.3,0.5,1.9,0.8c0.8,0.4,1.1,1.1,1.1,2
	c-0.1,0.6-0.1,1.2-0.4,1.7c-2,3.9-4.1,7.9-6.2,11.8c-1.8-1.7-3.3-4.1-6.1-9.8C314.9,398,313.3,394.6,312,390.4z"/>
<path class="st7" d="M478.7,628.5c0.6,0.3,1.2,0.6,1.8,1c1.8,1.1,3,2.6,3.2,4.7c0.4,2.7,0.8,5.5,0.9,8.3c0.2,4,0.1,8.1,0.1,12.2
	c0,0.3-0.2,0.5-0.3,1c-0.6-0.5-1.2-0.8-1.7-1.3c-3.6-3.3-3.6-3.3-4.3-8c-0.6-4.4-1.2-8.8-1.8-13.2c0-0.1,0-0.2,0-0.3
	C476.2,630.3,476.2,630.3,478.7,628.5z"/>
<path class="st3" d="M299,213.9c-7.9-1.4-15.5-9.6-16.7-18.1c0.5-0.4,0.9,0,1.3,0.2c4.1,2.2,8.1,4.5,12.2,6.7c0.9,0.5,1.7,1,2.6,1.5
	c1.4,0.9,2.1,2.2,2,3.8c-0.1,1.7-0.4,3.3-0.7,5C299.5,213.3,299.2,213.6,299,213.9z"/>
<path class="st8" d="M305.9,203.6c-1.2,0.4-2.4,0.6-3.5,0.6c-1.3,0-2.1-0.6-2.3-1.9c-1.4-8.8-5-17-6.9-25.7
	c-0.2-1.1-0.5-2.1-0.8-3.1c1.7-0.4,3-0.1,3.9,1.2c0.4,0.6,0.7,1.2,0.9,1.9c2.9,8.6,5.8,17.2,8.6,25.8
	C305.9,202.8,305.8,203.2,305.9,203.6z"/>
<path class="st15" d="M431.9,697.4c-0.7,2.7-1.3,5.2-2.6,7.6c-0.6-0.2-1.2-0.3-1.7-0.6c-3-1.7-6-3.4-9-5.1c-2.5-1.5-3.8-3.6-3.6-6.6
	c0.1-1,0-2,0-3.1c0.6,0.1,1.1,0.2,1.5,0.3c4.7,2.3,9.4,4.5,14.1,6.8C431,696.9,431.4,697.1,431.9,697.4z"/>
<path class="st7" d="M238,35.4c0.5,7.3,0.3,14.2,1.9,21.2c-1.7-0.3-2.7-1.3-4-1.7c-1.3-0.5-2.6-1-3.9-1.4c-1.3-0.4-2.6-0.7-3.9-1.1
	C228.9,47.9,233.7,39.5,238,35.4z"/>
<path class="st7" d="M210.9,620c1.5,3.4,2.9,6.5,3.4,9.9c0.4,2.9-0.2,5.5-2.4,7.6c-1.1,1.1-2.2,2.2-3.4,3.3
	c-0.3,0.3-0.8,0.4-1.4,0.8c-0.1-0.6-0.3-0.9-0.3-1.3c-0.1-4.6-0.1-9.3-0.1-13.9C206.7,623.5,207.7,622.1,210.9,620z"/>
<path class="st8" d="M314.8,204.6c-1.2,0.3-2.2,0.2-3.4-0.3c0-0.6-0.1-1.2,0.1-1.7c2.2-6.6,4.4-13.1,6.6-19.7
	c0.4-1.1,0.9-2.2,1.4-3.3c0.7-1.5,1.2-1.7,2.8-1.5c0.5,0.1,0.9,0.3,1.5,0.4c-0.1,0.8,0,1.5-0.2,2.1c-2.7,7.7-5.5,15.5-8.3,23.2
	C315.2,204.1,315,204.3,314.8,204.6z"/>
<path class="st15" d="M272.6,674.3c0,0.9,0,1.3-0.1,1.8c-0.8,2.8-2,5.4-3.6,7.7c-3.4,4.7-7.9,8.2-12.7,11.8c-0.3-0.6-0.5-1-0.6-1.5
	c-0.2-2-0.3-3.9-0.5-5.9c3-2.3,6-4.4,8.8-6.6C266.8,679.3,269.5,676.9,272.6,674.3z"/>
<path class="st11" d="M253.4,91.4c0.2-0.3,0.3-0.6,0.5-0.8c1.4-0.9,2.8-1.8,4.2-2.7c4.9,1.7,9.7,3.2,14.5,4.9
	c1.7,0.6,3.3,1.2,4.6,2.1c0.1,0.8-0.4,0.8-0.8,0.9c-2.5,0.9-5.1,1.5-7.9,1.3c-1.4-0.1-2.8-0.3-4-0.8
	C260.8,94.8,257.1,93.1,253.4,91.4z"/>
<path class="st6" d="M308.9,389.2c2,4.6,3.7,8.9,5.6,13.4c-3.2-0.7-5.9-2.2-8.5-3.2c-0.7-1.6-1.4-3-2.1-4.4c-1.1-2-2.2-4-3.3-6
	c-0.3-0.6-0.5-1.3-0.8-2.1C303.3,387,306,388.5,308.9,389.2z"/>
<path class="st6" d="M303,397.8c-6.1-2-15.5-8.2-18.4-12.1c2.4-0.7,6.2-0.6,12.3,0.3C298.8,389.7,300.8,393.6,303,397.8z"/>
<path class="st16" d="M298.4,341.5c1.3,1.7,4.6,8.2,5.7,11.1c-1.8,0.6-3.6,0.4-5.5,0.5c-1.8,0-3.7,0.2-5.5,0
	C293.7,350.4,297,343.2,298.4,341.5z"/>
<path class="st17" d="M441.1,229.6c-0.4-0.6-0.7-0.9-0.8-1.2c-1-3.2-1.4-6.6-1.7-9.9c-0.1-1,0.3-1.5,1.3-1.7
	c0.9-0.2,1.8-0.3,2.6-0.3c0.9,0,1.5,0.7,1.3,1.6C443,221.9,442.1,225.6,441.1,229.6z"/>
<path class="st18" d="M297.6,172.3c-3.2-0.9-6.1-1.6-9.2-2.5c0.6-1.7,1.8-2.6,3.2-3.4c1.1-0.6,2.3-0.5,3.5-0.3
	c0.9,0.1,1.4,0.7,1.7,1.5C297.2,169,297.6,170.5,297.6,172.3z"/>
<path class="st12" d="M385.8,233c-1.1-1.8-2.2-3.6-3-5.9c3.2-0.9,6.3-1.5,9.7-2.2c-0.4,0.7-0.5,1.1-0.8,1.4c-2,2-4,4.1-5.3,6.6
	C386.4,233.1,386.1,233,385.8,233z"/>
<path class="st1" d="M230.6,376.1c-0.6,2.2-1.2,4.2-2.6,5.9c-0.4,0.4-0.9,0.8-1.4,1.1c-0.9,0.5-1.9,0.2-2.2-0.8
	c-0.2-0.5-0.3-1.1-0.4-1.7c-0.5-4.3-1.3-8.6-2.8-12.7c-0.6-1.5,0.3-3.3,1.4-3.9c1.2-0.6,2.1-0.4,2.7,0.7c1.1,2,2,4.1,3,6.1
	c0.6,1.1,1.1,2.3,1.7,3.5C230.3,375,230.4,375.6,230.6,376.1z M513.1,80.6c-1.2,1.3-2.3,2.4-3.3,3.6s-1.9,2.5-2.9,3.8
	c-1.1-0.7-2-1.6-3.1-1.9c-1.1-0.4-2.3-0.4-3.5-0.6c0-0.3-0.2-0.6-0.1-0.8c0.6-3.6,2.7-6,6-7.5c0.8-0.4,1.7-0.5,2.6-0.2
	C510.4,77.5,511.9,78.7,513.1,80.6z M230.8,356.8c1.5,2.6,2.8,4.9,4.2,7.3c0.6,1.1,0.8,2.2,0.4,3.4c-0.6,2-1.8,3.7-3.7,5.1
	c-0.3-0.4-0.7-0.7-0.9-1.1c-1.3-2.8-2.6-5.5-3.8-8.3C225.9,360.2,227.3,357.7,230.8,356.8z M505.9,90c-1.5,3.2-2.8,6.1-4,8.9
	c-0.1,0.3-0.3,0.5-0.4,0.8c-0.7,1-1.9,1.2-2.9,0.5c-1.8-1.3-2.8-3.8-2.3-6s1.8-4,3.1-5.7c0.8-1.1,2.8-1.3,4.1-0.5
	C504.2,88.6,504.9,89.3,505.9,90z M518.3,65.5c2.6-4.2,10.1-4.2,12.5,0.4c-0.4,1.6-1.3,3-2.4,4.2c-0.6,0.6-1.4,1.1-2.2,1.5
	c-2,0.9-3,0.6-4.3-1.2c-0.6-0.8-1-1.7-1.6-2.5S519,66.4,518.3,65.5z M521,73c-2.2,2.1-4.3,4-6.3,5.9c-1.8-1.5-3.7-3.1-5.7-4.8
	c1.3-3,3.6-5.1,6.7-6.4c0.6-0.3,1.2-0.2,1.6,0.3c0.6,0.5,1.1,1.1,1.5,1.8C519.7,70.7,520.3,71.8,521,73z M502.7,101.9
	c0.4,0.5,1,1,1.1,1.6c0.2,0.5,0,1.2-0.2,1.7c-0.4,0.9-1,1.6-1.6,2.5c-1.3-0.1-2.3-0.8-3.1-1.7c-0.8-0.9-1.4-1.9-1.2-3.4
	c0.8,0,1.7,0.1,2.5,0C501.1,102.5,501.8,102.2,502.7,101.9z M239.3,357.4c-0.7,1.8-1.8,2.9-3.6,3.6c-0.4-0.5-0.9-1-1.1-1.6
	c-0.4-1.1-0.7-2.2-0.9-3.4c-0.1-0.7,0.6-1.2,1.4-1.2C236.4,355,237.7,355.8,239.3,357.4z"/>
<path class="st12" d="M349.6,162.2c-2.9,1.3-5.8,2.6-8.5,3.8c-0.7-0.3-0.8-0.6-0.5-1c1.3-1.2,2.6-2.4,4-3.5c0.6-0.5,1.4-0.8,2.2-0.5
	C347.8,161.3,348.9,161,349.6,162.2z"/>
<path class="st8" d="M309.4,208.6c-1.4,0.8-2.8,0.4-4.2-0.1c-0.3-0.1-0.5-0.6-0.5-0.9c-0.1-0.5,0.2-1,0.8-1c0.9-0.1,1.8-0.1,2.6-0.1
	C309.2,206.6,309.4,206.9,309.4,208.6z"/>
<path class="st17" d="M440,179.4c0.8,0.4,1.4,0.4,1.6,0.7c0.4,0.5,0.6,1.2,0.8,1.8c0.3,1.1-0.4,1.8-1.6,1.7c-0.5-0.1-1-0.3-1-0.9
	C439.8,181.8,439.9,180.9,440,179.4z"/>
<path class="st6" d="M290.1,442.4c-0.4-1.5-0.7-2.9-1-4.3c1.8-0.6,2.7-0.1,2.3,1.4C291.1,440.5,291.3,441.7,290.1,442.4z"/>
<path class="st12" d="M325.8,172.2c1.4-0.5,2.3-0.4,3.4,0c-0.8,1.2-1.8,1.7-3,2.5C326.1,173.8,325.9,173.1,325.8,172.2z"/>
<path class="st19" d="M290.2,128.9c0,0.9,0,1.8,0,2.6c0,0.6-0.1,1.2-0.4,1.7c-0.4,1-1.2,1.3-2.1,1.2c-0.9,0-1.3-0.3-1.5-1.4
	c-0.5-1.9-0.9-3.8-1.3-5.7c-0.2-1,0.2-1.8,1.1-2.1c0.5-0.2,1.1-0.3,1.7-0.4c2.1-0.3,2.4-0.1,2.4,2.1
	C290.2,127.5,290.1,128.2,290.2,128.9L290.2,128.9z"/>
<path class="st20" d="M284.3,123.3c-1.1-3.3-1.2-6.5-0.9-9.6c0.2-1.6,0.4-3.3,1.8-4.5c1.8,0.6,1.9,0.8,1.7,2.1
	c-0.1,0.4-0.2,0.8-0.3,1.2c-0.6,3.2-0.9,6.4,0.7,9.4c-0.2,0.3-0.3,0.5-0.4,0.6C286.1,122.7,285.4,122.9,284.3,123.3z"/>
<path class="st20" d="M340.7,98c-0.9,1.7-0.9,1.7-0.9,3.3c-0.1,1.9,0.4,3.7,0.8,5.5c0.2,0.8,0.4,1.7,0.6,2.7c-1.4,0.6-2.7,0.7-4,0.9
	c-0.2-0.3-0.5-0.6-0.5-0.8c-0.8-4.1-0.6-8,1.2-11.8c0.1-0.2,0.2-0.3,0.3-0.5c0.5-0.8,1.2-0.9,1.9-0.2
	C340.4,97.3,340.5,97.7,340.7,98z"/>
<path class="st19" d="M342.8,117.6c0,1.1,0,2.2,0,3.3c0,1.1-0.5,1.6-1.6,1.7s-1.7-0.3-1.9-1.3c-0.4-2-0.8-4.1-1.1-6.1
	c-0.1-0.4-0.1-0.8-0.1-1.2c0-0.3,0-0.6,0.2-0.8c0.7-0.9,1.7-1,2.6-0.9c1,0.1,1.8,0.7,1.8,1.6C342.8,115,342.7,116.3,342.8,117.6
	L342.8,117.6z"/>
<path class="st21" d="M306.5,148.4c0.5-0.2,0.7-0.4,1-0.5c6.6-1.9,13.3-3.7,19.9-5.6c2.1-0.6,3.9-0.1,5.5,1.2
	c0.9,0.7,1.1,1.2,0.6,2.3c-1.5,3.4-3.3,6.8-5.8,9.6c-1.2,1.3-2.5,2.5-4.3,3c-0.9,0.3-1.7,0.4-2.6,0.1c-5.4-1.9-10.2-4.6-13.9-9.2
	C306.8,149.2,306.7,148.9,306.5,148.4z"/>
<path class="st3" d="M274.7,42.4c3.4-0.5,6.3-1,9.2-1.4c0.6,0.7,1.2,1.2,1.7,1.8c3.3,3.8,7.5,5.8,12.4,6.2c3.9,0.3,7.7,0,11.4-1.2
	c2.6-0.9,5-2.3,7.1-4.1c2.1-1.9,3.9-4,4.7-6.7c0.3-1,0.8-1.8,1.9-2c2.5-0.4,5.1-0.7,7.6-1c0.1,0,0.2,0.1,0.4,0.3
	c0,0.4,0.1,0.8,0,1.3c-0.8,3.8-2.6,7-5.3,9.8c-5.2,5.2-11.5,8.4-18.7,9.6c-6.1,1.1-12.2,0.5-18.2-1.1c-3.5-0.9-6.6-2.6-9.4-4.8
	C277.6,47.2,276,45.2,274.7,42.4z"/>
<path class="st3" d="M330.3,26.8c-1.2,0.3-2,0.5-2.9,0.6c-2,0.3-4.1,0.6-6.2,0.9c-0.6-0.7-1.2-1.4-1.8-2c-3.4-4.1-7.9-6.2-13.2-6.4
	c-3.5-0.2-6.9,0.2-10.3,1.2c-3.2,0.9-6,2.5-8.4,4.8c-1.9,1.8-3.5,3.9-4,6.5c-0.4,1.7-1.3,2.2-2.9,2.4c-2.2,0.2-4.3,0.6-6.6,0.9
	c-0.1-0.6-0.3-1.1-0.3-1.6c0.3-3,1.5-5.7,3.3-8.2c1.4-2,3.1-3.6,5-5c8.1-5.9,17.2-8.4,27.1-7.2c2.4,0.3,4.9,0.8,7.3,1.5
	c3.5,1,6.5,2.8,9.2,5.2C327.6,22,329.1,24,330.3,26.8z"/>
<path class="st3" d="M301.3,42c-1.4-0.3-2.9-0.5-4.3-0.9c-0.7-0.2-1.3-0.5-1.9-0.8c-3.9-2.3-4.4-6.5-1.4-9.7
	c1.5-1.6,3.4-2.6,5.6-3.2c2.9-0.8,5.8-0.9,8.7,0.1c1.6,0.5,3,1.5,4,2.9c1.4,1.8,1.5,3.8,0.5,5.8s-2.6,3.4-4.6,4.4
	C305.8,41.5,303.6,41.9,301.3,42z"/>
<path class="st22" d="M488.6,659.1c-3.3-0.8-3.4-0.8-2.7-4.6C486.8,656,487.6,657.4,488.6,659.1z"/>
<path class="st23" d="M331.3,140.9c0.9-0.3,1.5-0.6,2.2-0.8c1-0.2,2.2-1.1,2.7-0.4c0.6,0.9-0.4,2-0.7,3.1c-0.3,0.9-0.8,0.9-1.4,0.2
	C333.4,142.2,332.4,141.6,331.3,140.9z"/>
<path d="M283.5,135.4c-0.4,0.2-1,0-1.3,0.7c1.3,0.4,2.5,0.1,3.7,0c3.2-0.1,6.2-1.3,9.2-2c0.2,0,0.4-0.4,0.6-0.6
	c-1.2-0.8-2.6,0.4-3.9-0.7c-0.1-0.6-0.2-1.4-0.2-2.1c0-1.8,0-3.6,0-5.3c-0.1-3.5,0-6.9-0.6-10.3c-0.4-2-1-3.8-2.1-5.5
	c-0.4-0.6-0.8-1.1-1.3-1.6c-1.4-1.3-3-1.1-4.1,0.4c-0.6,0.8-1.1,1.7-1.3,2.6c-0.3,1.3-0.6,2.7-0.5,4.1c0.1,2.6,0.3,5.1,0.8,7.7
	c0.6,3.5,1.5,7,2.3,10.4C285,134.5,284.8,135,283.5,135.4z M284.3,123.3c-1.1-3.3-1.2-6.5-0.9-9.6c0.2-1.6,0.4-3.3,1.8-4.5
	c1.8,0.6,1.9,0.8,1.7,2.1c-0.1,0.4-0.2,0.8-0.3,1.2c-0.6,3.2-0.9,6.4,0.7,9.4c-0.2,0.3-0.3,0.5-0.4,0.6
	C286.1,122.7,285.4,122.9,284.3,123.3z M286,125.2c0.5-0.2,1.1-0.3,1.7-0.4c2.1-0.4,2.4-0.1,2.4,2c0,0.7,0,1.4,0,2.1h0.1
	c0,0.9,0,1.8,0,2.6c0,0.6-0.1,1.2-0.3,1.7c-0.4,1-1.2,1.3-2.1,1.2c-0.9,0-1.3-0.3-1.5-1.5c-0.5-1.9-0.9-3.8-1.3-5.7
	C284.7,126.2,285.1,125.5,286,125.2z M309.3,153.9c2.7,2.5,6,4.1,9.4,5.5c3.4,1.5,6.4,0.8,9-1.7c1.5-1.5,2.9-3.2,4.1-5
	c2.7-4,4.5-8.5,6-13.1c0.1-0.4,0.1-0.8,0.1-1.3c-1.1-0.5-1.8-0.1-2.5,0.1c-9.3,2.6-18.6,5.3-27.9,7.9c-0.5,0.1-1,0.3-1.4,0.4
	c-1.7,0.6-2,1.3-0.8,2.8C306.5,151.1,307.8,152.6,309.3,153.9z M333.4,140.2c1-0.2,2.2-1.1,2.7-0.4c0.7,0.9-0.4,2-0.7,3.1
	c-0.3,0.9-0.8,0.9-1.4,0.2c-0.7-0.9-1.7-1.4-2.8-2.1C332.1,140.6,332.8,140.3,333.4,140.2z M307.5,147.9c6.6-1.9,13.3-3.7,19.9-5.6
	c2.1-0.6,3.9-0.1,5.5,1.2c0.9,0.7,1.1,1.2,0.6,2.3c-1.5,3.4-3.3,6.8-5.8,9.6c-1.2,1.3-2.5,2.5-4.3,3c-0.9,0.3-1.7,0.4-2.6,0.1
	c-5.4-1.9-10.2-4.6-13.9-9.2c-0.2-0.2-0.3-0.5-0.5-1C307,148.2,307.2,148,307.5,147.9z M328.3,126.5c-0.7-0.9-0.5-1.3,1-2.3
	c1.5,1.3,2.8,2.9,4,4.7c-1,2.1-1.7,4.3-3.7,5.8c-0.7-0.9-0.5-1.7-0.3-2.4c0.2-0.6,0.6-1.2,0.9-1.9c0.3-0.8,0.2-1.5-0.4-2.2
	C329.3,127.7,328.7,127.2,328.3,126.5z M414.3,573.9c0.7,1.3,1.3,2.7,1.8,4c0.9,2.5,1.2,5,0.6,7.6c-0.9,4-1.9,7.9-2.9,11.8
	c-0.1,0.3-0.4,0.5-1.1,1.3c0.2-1.3,0.2-2,0.4-2.6c0.7-3.1,1.5-6.1,2.3-9.2c0.9-3.4,0.3-6.7-1-9.8c-0.5-1.2-1.1-2.3-1.7-3.5
	c-2.4-4.5-4.8-9-7.3-13.6c-0.3-0.6-0.5-1.2-0.8-1.8c0.2-0.1,0.3-0.2,0.5-0.3c0.2,0.3,0.5,0.5,0.7,0.8
	C408.7,563.7,411.5,568.8,414.3,573.9z M337.3,122.9c-0.5,0.3-0.9,0.5-1.6,0.9c1.4,0.7,2.5,0.5,3.5,0.5c3.3-0.2,6.4-1.3,9.4-2.6
	c0.7-0.3,1.6-0.4,1.8-1.5c-2.1-0.2-3.6,1.6-5.8,1.3c0-0.8-0.1-1.5-0.1-2.3c0-3.6,0.1-7.1-0.1-10.7c-0.1-2.7-0.5-5.3-1-7.9
	c-0.2-1.1-0.7-2.3-1.3-3.3c-0.7-1.2-1.6-2.3-3.3-2.1c-1.5,0.2-2.1,1.4-2.6,2.6c-0.9,1.9-1.1,4-1.1,6.1c0.1,5,0.6,10,1.6,15
	C336.8,120.3,337.1,121.6,337.3,122.9z M342.7,113.8c0.1,1.3,0,2.5,0,3.8l0,0c0,1.1,0,2.2,0,3.3c0,1.1-0.5,1.6-1.6,1.7
	s-1.7-0.3-1.9-1.3c-0.4-2-0.8-4.1-1.1-6.1c-0.1-0.4-0.1-0.8-0.1-1.2c0-0.3,0-0.6,0.2-0.8c0.7-0.9,1.7-1,2.6-0.9
	C341.9,112.2,342.6,112.8,342.7,113.8z M337.8,97.7c0.1-0.2,0.2-0.4,0.3-0.5c0.5-0.8,1.2-0.9,1.9-0.2c0.3,0.3,0.5,0.6,0.7,0.9
	c-0.9,1.7-0.9,1.7-0.9,3.3c-0.1,1.9,0.4,3.7,0.8,5.5c0.2,0.8,0.4,1.7,0.6,2.7c-1.4,0.6-2.7,0.7-4,0.9c-0.2-0.3-0.5-0.6-0.5-0.8
	C335.9,105.5,336,101.5,337.8,97.7z M300.3,140.2c-2.3,1.7-4.6,3.4-6.9,5.1c-0.2,0.1-0.3,0.2-0.5,0.3c-0.8,0.4-1.7,0-1.8-0.9
	c-0.1-0.8-0.2-1.6-0.3-2.3c-0.1-0.6-0.3-1.1-0.4-1.7c-0.3,0.1-0.5,0.1-0.7,0.2c-1.5,1.3-3,2.6-4.5,3.9c-0.5,0.4-0.9,0.8-1.4,1.1
	s-1,0.1-1.3-0.4c-0.2-0.3-0.1-0.7,0-1.1c0.1-0.3,0.4-0.5,0.6-0.7c2.1-1.9,4.2-3.8,6.3-5.8c0.4-0.3,0.8-0.6,1.2-0.9
	c0.6-0.4,1.5-0.1,1.7,0.6c0.2,0.8,0.3,1.7,0.5,2.6c0.1,0.7,0.2,1.3,0.3,2.3c0.6-0.3,1.1-0.5,1.5-0.7c1.5-1.1,3.1-2.2,4.6-3.2
	c0.8-0.5,1.6-0.8,2.5-0.3C301.6,139.3,300.9,139.8,300.3,140.2z M264.9,348.3c-4.8,0.5-9.6,1-15,1.6c8.7-2.6,17.1-2.6,25.5-2.9
	c-1.7,0.3-3.4,0.5-5.2,0.8C268.4,348,266.7,348.1,264.9,348.3z M547.2,85.4c0-2.5-0.9-4.7-2.4-6.6c-2.5-3.1-5-6.2-7.5-9.2
	c-1.8-2.2-3.7-4.2-5.9-5.9c-1.5-1.2-3.1-2.2-4.9-2.7c-3.1-0.8-5.8-0.5-8.3,1.8c-1.5,1.4-3.2,2.6-4.8,4c-1.4,1.1-2.8,2.3-4,3.5
	c-0.7,0.7-1.5,1.5-1.7,2.4c-0.3,2.2-1.7,3.2-3.5,4c-0.5,0.2-1,0.6-1.5,0.9c-2.3,1.6-3.9,3.6-4.2,6.5c-0.2,2-1,3.8-2,5.6
	c-0.6,1.1-1.2,2.3-1.7,3.5c-0.6,1.3-0.8,2.7-0.2,4c1,2.1,1.4,4.3,1.4,6.6c0,1.5,0.7,2.7,2,3.5c1,0.6,2,1.3,3.1,1.7
	c1.6,0.6,2.3,1.7,2.7,3.3c0.8,3.3,1.7,6.5,2.7,9.7c0.6,1.8,0.2,3-1.1,4.2c-4.3,4.3-6.9,9.6-8.9,15.3c-0.5,1.5-0.6,2.9,0.3,4.3
	c0.2,0.3,0.3,0.7,0.4,1.2c-0.5,0.7-0.9,1.3-1.4,1.9c-4.5,5.2-9.1,10.5-13.7,15.6c-5,5.6-10,11.3-14.2,17.5c-0.3,0.4-0.5,0.8-0.7,1
	c-2.9-0.5-5.4-1.1-8-1.3s-5.2-0.3-7.7-0.2c-2.5,0.2-5.1,0.7-7.6,1.1c-0.3-0.6-0.6-1-0.8-1.4c-0.8-2.4-2.6-3.7-5-4
	c-1.9-0.2-3.8-0.4-5.6-0.3c-2.3,0.1-4.5,0.5-6.8,0.7c-3,0.3-6.1,0.6-9.2,0.7c-3.6,0.2-6.9-0.8-9.6-3.3c-0.2-0.2-0.5-0.4-0.7-0.6
	c-1.4-1.1-2.9-1.2-4.5-0.6c-0.7,0.3-1.4,0.7-2.1,1c-1.7,0.8-3.4,0.9-5.1,0c-1.8-1-3.8-1.6-5.9-1.8c-2.2-0.2-4.3-0.9-6.2-2
	c-2.2-1.2-4.2-2.5-6.4-3.8c-1.1-0.7-2.1-1.4-2.6-2.7c-0.5-1.4-1.7-2.1-3.2-2.3c-1.1-0.1-2.2-0.2-3.3-0.4c-1.8-0.2-3.5-0.7-4.9-1.9
	c-1.9-1.6-4-1.6-6.1-0.8c-0.9,0.3-1.8,0.9-2.7,1.3c-0.6,0.2-1.4,0.5-2,0.4c-1.4-0.3-2.8-0.7-4.5-1.2c0.5-0.7,0.8-1.2,1.1-1.6
	c2.6-2.9,5.2-5.7,7.8-8.5c3-3.3,5.9-6.7,8.5-10.3c1.7-2.4,3.1-4.9,3.3-7.9c0.1-1.2,0.6-2,1.5-2.7c0.5-0.4,1.1-0.8,1.6-1.3
	c4.6-4,9.3-8,13.9-12.1c2-1.8,2.3-2.5,0.3-4.3c-0.1-0.1-0.1-0.4-0.3-0.7c0.6-0.5,1.3-1.1,1.9-1.7c1.7-1.4,3.4-2.8,5-4.2
	c2.1-1.9,2.1-2.6,0-4.6c-1.4-1.3-3.1-2.5-4.7-3.6c-0.5-0.4-1-0.6-1.5-0.9c-1-0.7-1.2-1.5-0.4-2.5c0.7-1,1.5-1.8,2.2-2.8
	c0.6-0.8,0.4-1.5-0.4-2c-0.7-0.4-1.4-0.8-2.1-1.1c-3.9-1.8-7.8-3.5-11.6-5.2c-0.5-0.2-1.2-0.2-1-1.1c0.7-0.1,1.3-0.3,2-0.4
	c0.8-0.2,1.6-0.2,2.3-0.4c1.8-0.6,2.4-2.6,1.3-4.1c-0.4-0.5-1-1-1.5-1.4c-1.5-1.1-3-2.2-4.7-3.1c-3-1.6-6-3-9.1-4.4
	c-1.3-0.6-2-1.4-2.1-2.8c-0.4-5.2-0.8-10.5-1.3-15.7c-0.5-5.6-1-11.3-1.6-16.8c-0.9-7.2-4.7-12.2-11.3-15.2
	c-0.5-0.3-1.1-0.5-1.6-0.7c-15.8-6.4-32.1-9.9-49.2-9.9c-9.1,0-17.7,1.9-25.8,5.9c-10.1,5-19.4,11.2-28,18.3
	c-5.8,4.8-10,10.9-13.2,17.7c-3.7,8-4.2,16.2-1.4,24.6c2.7,8,4.6,16.2,7,24.3c0.5,1.7,0.2,3.1-0.9,4.4c-1.7,2.2-3.2,4.5-5,6.7
	c-3.6,4.5-7.2,9-10.8,13.4c-0.3,0.4-0.6,0.8-0.2,1.3c0.4,0.5,0.9,0.3,1.3,0.1c2.2-0.8,4.5-1.6,6.7-2.4c0.6-0.2,1.2-0.7,2-0.3
	c0.2,0.9-0.5,1.6-0.8,2.4c-3.8,7.5-7.5,15-11.3,22.6c-0.5,1-1.2,1.8-1.1,3c0.6,1,1.6,0.8,2.4,0.8c7,0.4,14,0.8,21.1,1.2
	c0.5,0,1,0.3,1.8,0.5c-0.6,0.7-0.9,1.1-1.3,1.5c-1.7,1.5-3.5,3-5.2,4.5c-0.4,0.3-0.7,0.7-1,1c-0.2,0.3,0,0.9,0.4,1
	c0.3,0.1,0.6,0.2,0.8,0.2c4.9-0.3,9.9-0.5,14.8-0.8c2.8-0.2,5.5-0.7,8.2-1.1c1-0.1,2.1-0.5,3.3,0c0,0.6,0.1,1.2,0,1.7
	c-0.4,2.7-0.9,5.5-1.3,8.2c-0.1,0.5-0.1,1-0.2,1.5c0,0.5,0.5,0.9,1,0.8c0.4,0,0.8-0.1,1.2-0.2c2-0.7,3.9-1.4,5.9-2.1
	c0.5-0.2,1.1-0.4,1.8-0.6c0.1,2.1,0.2,3.9,0.2,5.9c0.5,0,1,0.1,1.2-0.1c0.5-0.4,1-0.9,1.5-1.4c3.6-3.7,8.2-6.2,12.4-9.2
	c0.5-0.3,1.1-0.4,1.7-0.1c2.1,1.3,4.2,2.5,6,4.2c-1.1,1.3-2.1,2.5-3.1,3.7c-0.7,0.8-1.5,1.2-2.6,1.2c-0.6,0-1.2-0.1-1.8-0.1
	c-2.1-0.2-3.6,0.5-4.8,2.3c-0.8,1.3-1.9,2.5-2.9,3.8c-1.4,1.7-2.9,3.3-4.3,4.9c-0.7,0.8-1.3,1.8-1.8,2.7c-0.6,1.2-0.4,2.3,0.5,3.3
	c0.6,0.6,1.2,1.2,1.7,1.7c-0.4,1.2-1.3,1.4-2.1,1.7c-3.3,1.1-6.5,2.3-9.8,3.4c-1.7,0.6-3.4,1-5.1,1.7c-4.5,1.7-7.7,4.8-9.5,9.3
	c-0.5,1.4-1,2.8-1.5,4.2c-0.4,1.1-0.9,1.9-2.2,2.1c-2.5,0.3-4.1,1.8-5.3,3.9c-1.1,1.8-2.2,3.6-3.4,5.2c-6.4,8.2-12.9,16.3-20.4,23.6
	c-1.1,1.1-2.1,2.4-3,3.7c-0.7,0.9-1.2,1.9-0.8,3c0.5,1.7-0.2,3.1-1.2,4.4c-2.2,2.8-4.5,5.5-6.7,8.3c-1.7,2.2-3.5,4.3-5,6.6
	c-1.1,1.6-2.1,3.4-2.9,5.2c-1,2.2-1.2,4.6-0.5,7c1.2,3.8,2.3,7.6,3.5,11.3c1.5,4.5,4,8.4,7.5,11.6c2.5,2.4,5.1,4.8,7.6,7.1
	c4.8,4.4,9.5,9,14.2,13.6c3.9,3.8,8,7.4,12,11.1c0.3,0.3,0.7,0.7,1,1c-0.2,1.9-0.4,3.6,0.2,5.4c1,2.8,1.8,5.7,3.4,8.2
	c0.1,0.3,0.3,0.5,0.4,0.8c0.4,1,0.2,2-0.8,2.9c-0.8,0.7-1.6,0.7-2.5,0.3c-1-0.5-2-0.9-3-1.3c-0.9-0.3-1.8-0.4-2.5,0.3
	c-1.1,1.1-2.5,1.6-3.9,2.2c-2.2,1-3.8,2.5-4.2,5c-0.1,0.4-0.3,0.7-0.5,1.1c-0.7,0.3-1.3,0.5-2,0.7c-2.5,1-3.2,2.2-2.8,4.8
	c0,0.4,0.1,0.8,0.2,1.2c1.3,4.2,2.2,8.4,2.9,12.7c0.2,1.2,0.7,2.3,1.5,3.2c1.8,1.8,3.8,3.2,6.4,3.5c4.2,0.4,8.3,0.6,12.3-1
	c0.2-0.1,0.4,0,0.6,0c0.1,0.1,0.3,0.3,0.4,0.4c0.1,0.5,0.2,1,0.1,1.5c-0.2,1.4-0.3,2.8-0.6,4.1c-2.8,13.4-5.1,26.8-7.5,40.3
	c-1.7,9.8-3.4,19.5-5.1,29.3c-1.1,6.3-2.5,12.6-2.9,19.1c-0.3,3.5-0.6,7.1-1.2,10.6c-1.3,8.2-2.9,16.4-4.3,24.6
	c-1.3,8.1-2.2,16.3-2.6,24.5c-0.3,8.6-0.5,17.2-0.7,25.8c-0.1,5.4-0.3,10.9-1.2,16.3c-0.8,4.7-2.2,9.3-4.9,13.3
	c-1.8,2.7-2.8,5.6-3.5,8.7c-0.8,3.3-0.7,6.5,0.3,9.7c0.1,0.4,0.3,0.7,0.4,1.1c0.3,1,0.2,1.9-0.8,2.6c-0.4,0.3-0.8,0.6-1.2,0.9
	c-2.1,1.6-3.1,3.8-3.3,6.4c-0.1,0.8,0,1.6,0,2.4c0.1,4.1,0.2,8.1,0.4,12.2c0.1,2-0.5,3.4-2.3,4.4c-6.9,3.9-12.8,9-18.4,14.4
	c-1,1-1.8,2.1-2.3,3.4c-0.8,1.9-1.8,3.8-2.7,5.6c-0.8,1.5-1.7,2.9-2.6,4.3c-1.6,2.6-2.6,5.3-3,8.3c-0.3,2.3-0.7,4.5-1,6.8
	c-0.4,3,0.2,5.7,1.9,8.2c3.5,5,8.1,8.7,14,10.6c2.5,0.8,5.2,1.4,7.8,1.9c5.4,1.1,10.8,1.2,16.3,1.5c4.1,0.2,8.1,0,12.2-0.5
	c14.4-1.7,27-7.4,37.8-17.2c2.1-1.9,4.1-4,6.1-6.1c3.5-3.9,5.5-8.4,6.1-13.6c0.5-4.8,0.8-9.7,1.4-14.5c0.8-7.1-0.2-5.2,3.9-11.6
	c0.6-0.9,1.2-1.8,1.7-2.8c0.9-1.8,1.8-3.5,2.6-5.3c0.7-1.5,0.8-3,0.1-4.6c-1-2-0.8-4-0.5-6.1c0.1-0.8,0.3-1.5,0.5-2.3
	c0.2-1.4,0.7-2.7,1.8-3.7c1.3-1.2,1.5-2.8,1.1-4.4c-0.1-0.7-0.4-1.3-0.6-2c-0.6-1.9-1.2-3.8-1.9-5.6c-1.3-3.7-0.6-6.8,2.4-9.4
	c1.6-1.4,3.1-3.1,4.7-4.6c4.3-4.3,6.4-9.4,6.3-15.5c-0.1-5.5,0-11.1,0.4-16.6c0.7-10.1,1.2-20.2,2.1-30.2c1-11.8,2.2-23.7,3.3-35.5
	c1-10,2.1-19.9,3.5-29.8c2.2-14.9,5.1-29.7,8.7-44.3c0.7-2.9,1.4-5.8,2.3-8.6c0.3-1.2,0.6-2.5,1.7-3.6c0.4,0.5,0.8,0.8,1,1.2
	c0.8,1.5,1.6,3,2.2,4.5c2.7,6.8,5.4,13.6,8.1,20.4c9.4,23.5,18.9,47,29.6,70c3.3,7.1,5.8,14.5,7.5,22.2c1.3,5.8,2.8,11.5,4.3,17.3
	c2.6,10.1,5.4,20.1,7.8,30.2c1.8,7.6,4.9,14.4,9.6,20.5c1.2,1.5,2.3,3,3.3,4.5c1.4,2,1.9,4.1,1.5,6.5c-0.1,0.7-0.2,1.4-0.4,2
	c-1,4.9,0.1,9.3,3.1,13.2c1.3,1.6,2.8,3.1,4.4,4.4c1.7,1.5,3.6,2.8,5.4,4.2c1.3,1,1.4,1.3,0.7,2.8c-1.7,3.5-1.7,7-1,10.7
	c0.8,4,2.5,7.7,4.4,11.3c1.6,2.9,2.3,6,2.2,9.4c-0.3,7.2-0.5,14.5-0.7,21.7c0,2,0.1,4,0.3,5.9c0.1,1.9,1,3.4,2.5,4.5
	c1.3,0.9,2.5,1.9,3.9,2.7c5.9,3.5,12,6.5,18.4,8.9c2.6,1,5.3,1.7,8.1,1.9c5.3,0.4,10.7,0.9,16,1.3c7.5,0.5,15,0.6,22.5-0.2
	c6.6-0.7,13.1-2.2,19.2-4.9c0.9-0.4,1.8-0.8,2.6-1.3c1.8-1,2.7-2.6,2.9-4.6c0.1-1.4,0.1-2.8,0.1-4.2c0-3.6-0.1-7.1,0.2-10.7
	c0.3-3-0.3-5.5-2.6-7.5c-0.8-0.7-1.2-1.6-1.2-2.6c0-0.7,0-1.4-0.1-2.1c-0.4-4.8-2.3-8.8-6.5-11.4c-1.8-1.1-3.5-2.2-5.4-3.2
	c-2.7-1.5-4.9-3.4-5.9-6.4c-0.2-0.5-0.4-0.9-0.7-1.3c-1-1.3-1.3-2.9-1.3-4.5c-0.1-3.1-0.2-6.1-0.4-9.2c-0.1-1.9-0.3-3.8-0.6-5.6
	c-0.5-3-1.9-5.4-4.7-6.8c-0.5-0.3-0.9-0.7-1.4-1c0.1-0.5,0.1-0.9,0.3-1.2c1.8-3.3,1.2-6.5-0.7-9.5c-1-1.6-2-3.2-3-4.8
	c-1.8-2.8-3.3-5.6-4.5-8.7c-1.3-3.6-2.1-7.3-1.8-11.1c0.4-4.6-0.5-8.9-2.3-13c-0.7-1.6-1.6-3.2-2.4-4.8
	c-8.8-16.4-16.5-33.3-22.1-51.2c-1.9-6.1-3.7-12.3-5.6-18.5c-2.2-7.2-6-13.4-11.9-18.1c-1.3-1-2.1-2.3-2.6-3.9
	c-0.5-1.7-1.1-3.4-1.5-5.1c-2.1-8-4.1-16.1-6.2-24.2c-2.9-11.1-6-22.2-8.9-33.3c-4.6-17.7-8.8-35.5-14.4-53c-0.1-0.5-0.2-1-0.3-1.7
	c0.6-0.4,1-0.8,1.4-1.1c1.8-1.4,2.3-3.2,1.8-5.3c-0.1-0.6-0.3-1.2-0.5-1.7c-0.8-3.4-1.1-6.9-0.5-10.3c0.5-3.1,1.2-6.2,1.8-9.3
	c0.3-1.5,0.7-2.9,0.9-4.3c0.5-3.1-0.2-5.9-2-8.5c-0.8-1-1.5-2.1-2.4-3c-2.8-3.1-4.2-6.8-4.8-11c-0.9-7-1-14-0.8-21
	c0.4-11.9,1.1-23.8,1-35.6c0-5.9,0.2-11.9,0.3-17.8c0-0.7,0-1.4,0.2-2.1c0.6-2.3,2-3.2,4.4-2.6c2.3,0.5,4.7,1,7,1.4
	c7.1,1.4,14.3,1.9,21.6,2.1c4.8,0.1,9.5-0.1,14.3-0.3c1.5-0.1,2.9-0.5,4.4-0.9s2.6-1.5,2.9-3.1c0.1-0.5,0.2-1,0.3-1.5
	c0.7-3.3,1.3-6.6,2-9.9c0.5-2.3,1-2.8,3.4-3c0.3,0,0.6-0.1,0.9-0.1c3.6-0.3,7.1-0.4,10.7-0.8c5.5-0.5,11-1.1,16.5-1.8
	s10.2-3,13.4-7.8c0.2-0.3,0.5-0.6,0.7-1c2.2-3.2,4.4-6.3,6.7-9.5c8.1-11.3,15.8-22.8,22.6-34.9c0.3-0.5,0.6-1,0.9-1.5
	c0.6-0.9,1.4-1.5,2.5-1.4c3.4,0.2,5.6-1.6,7.2-4.3c2.8-4.8,4.6-9.9,5.5-15.3c0.2-0.9,0.2-2.1-0.2-2.9c-0.8-1.9-0.2-3.4,0.5-5.1
	c1.6-3.6,3.2-7.3,4.5-11c3.5-9.9,5.2-20.1,6.8-30.4C547.3,87.4,547.2,86.4,547.2,85.4z M530.7,65.9c-0.4,1.6-1.3,3-2.4,4.2
	c-0.6,0.6-1.4,1.1-2.2,1.5c-2,0.9-3,0.6-4.3-1.2c-0.6-0.8-1-1.7-1.6-2.5s-1.2-1.5-2-2.4C520.8,61.3,528.3,61.4,530.7,65.9z
	 M515.7,67.6c0.6-0.3,1.2-0.2,1.6,0.3c0.6,0.5,1.1,1.1,1.5,1.8c0.7,1,1.4,2.2,2.1,3.3c-2.2,2.1-4.3,4-6.3,5.9
	c-1.8-1.5-3.7-3.1-5.7-4.8C510.3,71,512.6,68.9,515.7,67.6z M500.3,84.7c0.6-3.6,2.7-6,6-7.5c0.8-0.4,1.7-0.5,2.6-0.2
	c1.5,0.5,3.1,1.7,4.3,3.6c-1.2,1.3-2.3,2.4-3.3,3.6S508,86.7,507,88c-1.1-0.7-2-1.5-3.1-2c-1.1-0.4-2.3-0.4-3.5-0.6
	C500.3,85.2,500.2,84.9,500.3,84.7z M496.2,94.3c0.5-2.2,1.8-4,3.1-5.7c0.8-1.1,2.8-1.3,4.1-0.5c0.8,0.5,1.5,1.2,2.5,2
	c-1.5,3.2-2.8,6.1-4,8.9c-0.1,0.3-0.3,0.5-0.4,0.8c-0.7,1-1.9,1.2-2.9,0.5C496.7,99,495.7,96.5,496.2,94.3z M503.7,105.2
	c-0.4,0.9-1,1.6-1.6,2.5c-1.3-0.1-2.3-0.8-3.1-1.7s-1.4-1.9-1.2-3.4c0.8,0,1.7,0.1,2.5,0s1.5-0.4,2.4-0.7c0.4,0.5,1,1,1.1,1.6
	C504,104,503.9,104.7,503.7,105.2z M440,179.4c0.8,0.4,1.4,0.4,1.6,0.7c0.4,0.5,0.6,1.2,0.8,1.8c0.3,1.1-0.4,1.8-1.6,1.7
	c-0.5,0-1-0.3-1-0.9C439.8,181.8,439.9,180.9,440,179.4z M376.2,169.5c0.6,0.3,1.2,0.5,1.7,0.7c1.5,0.8,2.9,1.7,4.4,2.4
	c2.3,1.2,4.7,1.9,7.4,2.2c1,0.1,1.9,0.5,2.8,0.8c0.8,0.3,1.6,0.7,2.4,1.1c1.8,0.8,3.5,0.7,5.1-0.2c0.4-0.2,0.9-0.5,1.3-0.7
	c1.6-0.7,3.1-0.6,4.5,0.5c0.3,0.2,0.6,0.5,0.9,0.8c2.3,2.2,5.1,3,8.2,2.9c2.4,0,4.7-0.3,7.1-0.5c2.7-0.2,5.3-0.6,8-0.8
	c2.2-0.2,4.3-0.2,6.5-0.3c0.9,0,1.8,0.1,2.3,1c-1.4,6.1-1.3,12.4-1.5,18.6c-0.1,3.9,0,7.7,0,11.6c0,0.9,0,1.8-0.2,2.7
	c-0.1,1-0.4,1.9-0.6,3.1c-12.2,2.3-24.4,4.5-36.7,6.9c0-1.4,1.5-2,0.8-3.4c-0.3,0.1-0.7,0.1-1,0.3c-1.2,1-2.4,2-3.6,3.1
	c-0.8,0.7-1.7,1.2-2.9,1.4c-3,0.5-6,1.3-9,1.9c-0.6,0.1-1.1,0.1-1.8,0.2c-1.3-2.4-1.7-4.9-2.2-7.4c-1-5.4-1.6-10.8-1.9-16.2
	c-0.2-3.6-0.5-7.1-0.6-10.7c-0.1-4.2-0.1-8.3,0.5-12.5c0.1-0.8,0.1-1.6,0.2-2.5C376.5,174.7,375.6,172.5,376.2,169.5z M374.9,176
	c1.1,0.7,1.5,1.6,1.4,3c-0.3,3.5-0.6,7.1-0.5,10.7c0.2,6,0.6,12,1,18.1c0.1,1.6,0,3.1-0.9,4.5c-10.1,17-24.3,29-43,35.4
	c-6.5,2.2-13.2,3.4-20.1,3.5c-0.7,0-1.4,0-2.1-0.1c-0.2,0-0.3-0.2-0.9-0.5c0.5-5.8,0.9-11.6,1.4-17.5c2.4-1.5,2.9-3.8,3-6.4
	c0.2-3.6,0.2-3.7,3.7-4.6c5.9-1.5,11.5-3.7,16.7-6.7c12.4-7.2,20.5-17.8,24.7-31.4c0.4-1.3,0.8-2.7,1.1-4c1.4-5.1,2.3-6.2,7.1-9.1
	c1.1,0.8,2.4,1.6,3.5,2.5C372.3,174.1,373.6,175.1,374.9,176z M307.2,258.1c0.5,6.9-0.8,13.8-1.1,20.7c-0.4,7.3-1.1,14.6-1.5,21.9
	c-0.3,7-0.5,14-0.7,21.1c0,0.7,0,1.4,0,2.1c0,1.5,0.5,2.9,1.2,4.2c4.1,7.5,8.1,15,12,22.5c1.8,3.4,3.3,7,4.4,10.7
	c0.2,0.6,0.2,1.1,0.3,1.7c-0.4,0.1-0.7,0.3-1,0.2c-2.5-0.2-4.9-0.5-7.4-0.8c-1.4-0.2-2.3-1.1-2.9-2.3c-1.4-2.8-2.8-5.7-4.3-8.5
	c-2.1-4.2-4.3-8.5-6.4-12.7c-0.4-0.8-0.7-1.7-1.8-1.7c-1,0-1.2,0.9-1.6,1.6c-3.7,7.9-7.6,15.7-10.1,24.1c-0.7,2.5-1.7,3.2-4.3,3.3
	c-1.5,0.1-2.9,0.3-4.6,0c0.1-0.7,0.2-1.2,0.4-1.8c2.5-6.7,5-13.3,7.5-20c0.6-1.6,1.6-3.1,2.3-4.8c1.3-2.9,2.4-5.9,3.8-8.7
	c1.2-2.5,1.8-5.2,2.1-8c1.2-11.1,2.3-22.2,3.5-33.4c1.2-11.2,2.3-22.4,3.4-33.7c0.3-3.1,0.7-6.1,0.9-9.1c0.3-3.9,0.5-7.7,0.7-11.5
	c0-0.8-0.1-1.6,0.7-2.4c1.8,0.1,3.7,0.2,5.8,0.4c0,0.7,0.1,1.3,0.1,1.8c-0.4,5.1-0.7,10.3-1.2,15.4c-0.2,2.5,0,5-0.6,7.4
	C307.2,257.9,307.2,258,307.2,258.1z M296,360.9c0.2-1.8,0.4-3.5,0.7-5.4c3-0.5,5.8-0.5,8.5-0.5c3.2,3.6,4.2,7.8,3.4,12.3
	c-0.6,3.3-1.4,6.6-1.2,10c0.2,3.4,0.6,6.7,1,10.3c-0.3,0.4-0.9,0.2-1.4,0c-2.2-0.6-4.4-1.2-6.6-1.8c-0.8-0.2-1.4-0.6-1.7-1.5
	c-0.6-1.8-1.3-3.5-1.7-5.4C295.5,373,295.4,366.9,296,360.9z M293.1,353c0.6-2.6,4-9.8,5.3-11.5c1.3,1.7,4.6,8.2,5.7,11.1
	c-1.8,0.6-3.6,0.4-5.5,0.5C296.8,353,294.9,353.2,293.1,353z M303,397.8c-6.1-2-15.5-8.2-18.4-12.1c2.4-0.7,6.2-0.6,12.3,0.3
	C298.8,389.7,300.8,393.6,303,397.8z M300.7,389c-0.3-0.6-0.5-1.3-0.8-2.1c3.4,0.1,6.1,1.6,9,2.3c2,4.6,3.7,8.9,5.6,13.4
	c-3.2-0.7-5.9-2.2-8.5-3.2c-0.7-1.6-1.4-3-2.1-4.4C302.9,393,301.8,391,300.7,389z M234.3,277.6c0.6,0.2,1.2,0.2,1.7,0.5
	c1.6,0.6,3.1,1.3,4.6,2c2.7,1.2,5,0.7,7-1.5c1.6-1.7,3.1-3.3,4.7-5c0.4-0.4,0.7-1,1.4-0.9c0.4,5-2.2,27.8-4,33.8
	c-0.5-0.5-0.8-0.7-1-1c-4.6-6.1-9.2-12.2-13.8-18.2c-0.2-0.2-0.3-0.5-0.5-0.7C232.3,283.6,232.4,280.7,234.3,277.6z M232.7,273.8
	c2.3-5,17.3-22.4,22.7-26.4c0.1,1,0.2,1.7,0.2,2.3c-0.2,2.8-0.4,5.5-0.6,8.3c-0.1,2.1-0.2,4.1-0.2,6.2s-0.5,4-1.9,5.5
	c-2.4,2.8-4.9,5.4-7.5,8c-0.8,0.8-1.8,1.2-3,0.7c-3-1.2-6.1-2.3-8.9-4C233.3,274.3,233,274,232.7,273.8z M270.2,281.9
	c-0.8-0.5-1.8-0.8-2.8-1.1c-1.3-0.3-2.4,0.1-3.1,1.2c-0.5,0.7-0.8,1.4-1.2,2.1c-1.3,2.7-2.4,5.4-3.7,8.1c-1.6,3.2-3.3,6.3-5,9.4
	c-0.3,0.5-0.7,0.9-1,1.4c-0.2,0-0.4-0.1-0.6-0.1c3-22.1,4.5-44.2,5.3-66.4c0.8-0.3,1.1,0.2,1.4,0.5c9.7,10.7,21.7,17.4,35.7,20.5
	c1,0.2,1.9,0.5,3,0.7c0.1,0.5,0.3,1,0.2,1.4c-0.7,6.4-1.4,12.8-2.1,19.2c-0.1,0.7-0.2,1.3-0.4,2.1c-0.7,0.1-1.2,0.3-1.8,0.3
	c-2.6,0-5.1,0.1-7.7,0.1c-4.1,0-8.1,0.2-12.1,1.2C272.9,282.9,271.6,282.7,270.2,281.9z M271.1,285.1c-0.5,3-1.4,5.5-2.5,8
	c-2.8,6.4-5.8,12.8-8.8,19.2c-1.8,3.9-3.8,7.8-5.8,11.7c-0.1,0.2-0.2,0.4-0.3,0.5c-0.8,1.9-2.1,2.9-4.4,0.9
	c-0.9-0.7-1.5-1.8-2.4-2.7c0.6-1.5,1.2-2.8,1.6-4.2c1.3-5.3,3.9-9.9,6.7-14.4c3.5-5.6,6.3-11.6,9.1-17.7c0.2-0.4,0.3-0.7,0.5-1.1
	c1.2-2.5,2-2.8,4.3-1.4c0.3,0.2,0.7,0.4,1,0.7C270.5,284.6,270.8,284.8,271.1,285.1z M300.5,230.4c-1.4-0.3-1.8-0.9-1.8-2.3
	c-0.1-2.5,0.4-4.9,0.9-7.3c0.4-1.9,0.9-3.9,1.3-5.8c0.5-2.4,0.9-4.9,0.9-7.4c0-0.4,0.1-0.7,0.2-1.1c0.9,0.6,0.4,1.4,0.5,2
	c0.1,0.7,0.4,1.3,1.1,1.6c1.9,0.7,3.8,1.1,5.8,0.6c1.5-0.4,1.9-0.8,2-2.5c0-0.5,0-1,0-1.4c0.7-0.5,1.1-0.2,1.2,0.3
	c0.2,0.5,0.2,1.2,0.2,1.8c-0.1,3.2-0.3,6.3-0.4,9.5c-0.1,2.5,0,4.9,0,7.4c0,1.2-0.2,2.4-0.3,3.5c-0.1,1-0.8,1.6-1.7,1.8
	c-0.4,0.1-0.8,0.2-1.2,0.2C306.1,231.5,303.3,231.1,300.5,230.4z M315.3,203.9c0,0.2-0.2,0.3-0.5,0.7c-1.2,0.3-2.2,0.2-3.4-0.3
	c0-0.6-0.1-1.2,0.1-1.7c2.2-6.6,4.4-13.1,6.6-19.7c0.4-1.1,0.9-2.2,1.4-3.3c0.7-1.5,1.2-1.7,2.8-1.5c0.5,0.1,0.9,0.3,1.5,0.4
	c-0.1,0.8,0,1.5-0.2,2.1C320.8,188.5,318,196.2,315.3,203.9z M315.9,205.5c6.5-2.5,12.2-6.5,17.9-10.4c5.5-3.9,10.8-8.1,16.1-12.1
	c0.6-0.5,1.2-0.9,2-1.5c0.5,1.5,0,2.4-0.3,3.3c-6.1,15.1-16.7,25.2-32.5,29.5c-1.1,0.3-2.3,0.6-3.5,0.8c-1.1,0.2-1.8-0.3-1.9-1.3
	c-0.1-1.7-0.1-3.4,0-5C313.8,207.2,314.5,206,315.9,205.5z M323.7,175.8c-0.6,0.1-1.4,0.2-2.1,0.2c-1.9,0-3.2,1-4,2.6
	c-0.4,0.9-0.8,1.8-1.1,2.7c-2.2,6.5-4.3,13-6.5,19.4c-0.3,1-0.5,2.1-1.5,3.3c-0.4-1.1-0.7-1.8-0.9-2.4c-1.8-5.5-3.5-10.9-5.3-16.4
	c-0.8-2.6-1.3-5.2-1.7-7.8c-0.5-2.8-1-5.6-1.4-8.5c-0.1-0.5-0.2-0.9-0.2-1.3c0.5-0.6,1-0.3,1.5-0.2c7.2,1.9,14.5,3.1,21.8,4.4
	c1.8,0.3,2,0.5,2,2.3c0,0.3,0,0.6-0.1,0.9C324.1,175.2,323.9,175.4,323.7,175.8z M309.4,208.5c-1.4,0.8-2.8,0.4-4.2,0
	c-0.3-0.1-0.5-0.6-0.5-0.9c-0.1-0.5,0.2-1,0.8-1c0.9-0.1,1.8-0.1,2.6,0C309.2,206.6,309.4,206.9,309.4,208.5z M305.8,202.4
	c0.1,0.3,0.1,0.7,0.1,1.2c-1.2,0.5-2.4,0.6-3.5,0.6c-1.3,0-2.1-0.6-2.3-1.9c-1.4-8.8-5-17-6.9-25.7c-0.2-1-0.5-2.1-0.8-3.1
	c1.7-0.5,3-0.1,3.9,1.2c0.4,0.6,0.7,1.2,0.9,1.9C300,185.2,302.9,193.8,305.8,202.4z M300.3,208c-0.1,1.7-0.4,3.3-0.7,5
	c-0.1,0.4-0.4,0.6-0.6,0.9c-7.9-1.4-15.5-9.6-16.7-18.1c0.5-0.4,0.9,0,1.3,0.2c4.1,2.2,8.1,4.5,12.2,6.7c0.9,0.5,1.7,1,2.6,1.5
	C299.6,205.1,300.3,206.4,300.3,208z M353.2,163.1c0.5-0.9,1-1.4,1.9-1.8c0.4-0.2,0.7-0.3,1.1-0.5c1.8-1,3.5-0.8,5,0.4
	c2.2,1.8,4.7,2.4,7.4,2.4c2.2,0,3.5,1,4,3.1c0.4,1.6,1.1,3.2,1.1,5.5c-1.4-1-2.4-1.6-3.3-2.3c-0.7-0.5-1.5-0.7-2.4-0.6
	c-1.8,0-3.2,0.6-4.6,1.7c-4.4,3.4-8.9,6.6-13.3,9.9c-0.9,0.6-1.7,1.3-2.5,1.8c-0.8-0.2-0.7-0.8-0.7-1.2c0-0.7,0-1.4-0.1-2.1
	c-0.2-4.1,0.7-7.8,3.2-11.1C351.2,166.7,352.2,164.9,353.2,163.1z M351.6,163.6c-0.5,0.9-0.9,1.7-1.3,2.4c-0.7,1.2-1.5,2.4-2.2,3.5
	c-1.5,2.2-2.2,4.6-2.3,7.3c0,2.4,0,4.7,0,7.3c-8.4,7.2-17.4,13.6-27.2,18.9c-0.8-0.8-0.2-1.5,0-2c1.2-3.2,2.5-6.4,3.7-9.7
	s2.2-6.5,3.3-9.9c0.4-1.2,0.4-2.5,0.7-4.3c1.8-1.6,4-3.1,6.2-4.5c5.8-3.4,12-6,18.1-8.9C350.8,163.5,351.1,163.6,351.6,163.6z
	 M325.8,172.2c1.4-0.5,2.3-0.4,3.4,0c-0.8,1.2-1.8,1.7-3,2.5C326.1,173.8,325.9,173,325.8,172.2z M346.9,161c0.9,0.3,2,0,2.7,1.2
	c-2.9,1.3-5.8,2.6-8.5,3.8c-0.7-0.3-0.8-0.6-0.5-1c1.3-1.2,2.7-2.4,4-3.5C345.3,161,346.1,160.7,346.9,161z M374.7,75.3
	c0.4,0.3,0.8,0.6,1.1,1c0.2,0.4,0.2,0.9,0.4,1.4c-1.7,0.7-3.4,0.8-5.1,0.9c-2,0-4,0-5.9,0c-9.6-0.1-19.2-0.2-28.8,0.7
	c-9.8,0.9-19.5,2-29,4.7c-4.2,1.2-8.3,2.8-12.3,4.5c-4.4,1.9-8.8,3.7-13.1,5.6c-1.5,0.6-2.8,0.7-4.3,0c-4.5-2.3-9.4-3.7-14.2-5.2
	c-1.2-0.4-2.4-0.8-4-1.4c0.7-0.6,1-0.9,1.3-1.1c12.6-7.8,25.8-14.2,40.2-18c9.9-2.7,20-4,30.2-4c5.6,0,11.3,0,16.9,0.7
	C357.9,66.1,366.7,69.7,374.7,75.3z M277.2,95c0.1,0.8-0.4,0.8-0.8,1c-2.5,0.9-5.2,1.5-7.9,1.3c-1.4-0.1-2.8-0.3-4-0.8
	c-3.7-1.5-7.4-3.3-11.2-4.9c0.2-0.3,0.3-0.6,0.5-0.8c1.4-0.9,2.8-1.8,4.2-2.7c4.9,1.7,9.7,3.2,14.5,4.9
	C274.2,93.5,275.8,94.1,277.2,95z M241.3,31.8c1.9-1.5,3.7-3,5.6-4.5c5.8-4.5,11.8-8.7,18.3-12.1c5.7-3,11.6-5.6,17.9-7
	c4.3-0.9,8.6-1.1,13-1.2c3.2,0,6.3,0.1,9.5,0.4c12.8,1.1,25.1,4.3,37.1,8.9c1.1,0.4,2.2,0.9,3.3,1.5c6,3,9.1,8,9.9,14.5
	c0.5,3.9,0.8,7.9,1.1,11.8c0.6,6.2,1.1,12.4,1.7,18.6c0,0.6,0,1.2,0,1.7c-0.3,0.1-0.5,0.2-0.7,0.2c-7.4-2.1-15-2.6-22.6-2.7
	c-22.7-0.4-43.8,5.4-63.8,15.8c-6.2,3.2-12.1,6.8-17.9,10.6c-0.7,0.4-1.4,0.8-2.1,1.3c-0.3-0.6-0.5-1-0.7-1.5
	c-2.9-9.9-6-19.7-8.3-29.7c-1.5-6.5-2.3-13-2.3-19.7c0-1.4,0-2.8-0.1-4.2C240,33.5,240.4,32.6,241.3,31.8z M238,35.4
	c0.5,7.3,0.3,14.2,1.9,21.2c-1.7-0.3-2.7-1.3-4-1.7c-1.3-0.5-2.6-1-3.9-1.4c-1.3-0.4-2.6-0.7-3.9-1.1
	C228.9,47.9,233.7,39.5,238,35.4z M235.5,96.7c-0.3-0.5-0.6-0.9-0.7-1.4c-2.7-9.6-5.7-19.2-7.7-29c-0.5-2.5-0.9-5.1-0.8-7.7
	c0.1-1.7,0.4-3.3,1.1-5.1c5,0.6,9.1,2.3,13.2,5.1c0.9,3.4,1.9,7,2.8,10.7c1,3.7,2.1,7.4,3.1,11.2c1,3.6,2.3,7.1,3.1,10.8
	c-2.3,1.4-4.8,1.5-7.1,2.5C240.1,94.8,237.8,95.7,235.5,96.7z M285.4,159.2c-0.5-0.5-1-1-1.6-1.3c-1.6-0.9-2.8-2.2-3.9-3.6
	c-0.6-0.8-1.2-1.6-1.8-2.4c-1.3-1.7-1.6-1.8-3.4-0.9c-0.4,0.2-0.9,0.5-1.3,0.7c-5.1,2.6-9.9,2.2-14.5-1.2c-3.7-2.8-7-6.1-9.9-9.8
	c-3.3-4.3-3.6-8.9-1.1-13.6c2.4-4.5,7.5-5.3,11.1-1.6c0.6,0.6,1.1,1.4,1.6,2.1c1.2,1.8,2.4,3.6,3.6,5.4c0.3,0.5,0.7,0.9,1.2,1.3
	c0.5,0.4,1.6,0,1.6-0.8c0-0.7,0-1.4-0.2-2c-1.4-7.6-2.8-15.2-4.2-22.8c-0.6-3.3-0.5-6.7,0.1-10c0.1-0.1,0.2-0.1,0.3-0.3
	c2,0.3,4.1,0.7,6.2,1.3c3,0.8,5.9,1.7,8.8,2.6c0.3,0.1,0.5,0.2,0.9,0.4c-1.1,2.4-3.5,4.1-4.1,6.7c0.7,0.5,1.1,0,1.4-0.2
	c1.3-0.9,2.6-1.8,3.9-2.7c3.7-2.3,7.6-2.9,12-2.1c4.6,0.9,9.2,1.4,13.8,2c1.3,0.2,2.5,0,3.8,0c0.3-0.7-0.1-0.9-0.6-1.1
	c-4.2-2.1-8.5-3.7-13.1-4.7c-3.6-0.8-7.2-1.1-10.9-1.1c-0.7,0-1.5-0.1-2.2-0.1c0.1-1,0.7-1,1.2-1.3c3.5-1.5,7.1-2.5,10.8-3.3
	c2.9-0.7,5.8-1.3,8.7-1.7c5.8-0.9,11.2,0.2,16.4,2.8c0.8,0.4,1.6,1.1,2.9,1.1c-0.2-0.6-0.3-1.1-0.4-1.5c-0.7-3.1,0.6-5.8,3.4-7.1
	c0.2-0.1,0.4-0.2,0.5-0.2c4-1.1,7.9-2.6,11.3-4.9c0.8,0.5,0.5,1,0.3,1.3c-0.8,1.3-1.6,2.5-2.5,3.7c-2.5,3.3-5,6.6-7.5,10
	c-0.6,0.8-1.1,1.7-1.5,2.5c-0.1,0.3,0.1,0.8,0.3,1c0.2,0.2,0.8,0.2,1,0.1c0.8-0.5,1.6-1.2,2.4-1.7c0.4,0.4,0.8,0.7,1.3,1.2
	c0.3-0.3,0.8-0.5,1-0.9c0.4-0.7,0.6-1.5,1-2.2c0.6-1,1.1-2.1,1.8-3c3.4-4.1,8.7-4.4,12.5-0.8c1.3,1.2,2.4,2.6,3.1,4.3
	c0.2,0.5,0.5,1.1,0.9,1.5c0.1,0.2,0.5,0.3,0.8,0.2s0.4-0.4,0.5-0.6c0.1-0.3,0-0.6-0.1-0.9c-1.4-4.3-4-7.4-8.5-8.9
	c-0.7-0.2-1.5-0.5-2.5-0.8c0.5-0.6,0.8-1,1.2-1.5c1-1.1,2.2-2,3.1-3.2c2.3-2.9,5.3-4,8.9-3.8c0.5,0,1,0.1,1.5,0.1
	c0.3,0,0.5,0.2,1,0.4c0.1,0.5,0.3,1,0.3,1.6c0.5,3.6,1,7.3,1.3,10.9c0.5,5.1,1.7,10.1,2.7,15.2c0.8,3.7,1.1,7.4,1.7,11.2
	c0.3,2,0.6,3.9,1.1,5.8c1.3,5,0.3,9.4-3,13.4c-1.5,1.8-3,3.7-4.5,5.5c-5.7,6.2-11.4,12.4-17.1,18.5c-0.8,0.9-1.7,1.7-2.5,2.5
	c-3.5,3.4-7.6,4.9-12.5,4.1c-5.2-0.8-10.4-1.7-15.5-2.5c-5.5-0.9-10.8-2.5-16.1-3.9C290.7,162.8,287.8,161.4,285.4,159.2z
	 M291.5,166.4c1.1-0.6,2.3-0.5,3.5-0.3c0.9,0.1,1.4,0.7,1.7,1.5c0.5,1.5,0.9,3,0.9,4.8c-3.2-0.9-6.1-1.6-9.2-2.5
	C289,168.1,290.2,167.2,291.5,166.4z M270.9,185.9c-0.6-0.5-0.9-1.1-0.5-1.8c0.5-1,1-1.9,1.7-2.8c0.9-1.1,1.9-2,2.7-3.1
	c1.4-1.7,2.8-3.3,4-5.1c1.1-1.6,2.4-2.3,4.3-2s3.7,0.6,5.6,1c0.9,0.1,1.4,0.7,1.5,1.6c1.6,8.5,4.8,16.5,6.9,24.9
	c0.3,0.9,0.4,1.9,0.8,3.5c-1.1-0.5-1.6-0.7-2.1-0.9c-4.4-2.1-8.6-4.5-12.6-7.3c-3.8-2.6-7.4-5.3-11.5-7.3
	C271.4,186.3,271.2,186.1,270.9,185.9z M257.8,212c0.4-5.1,0.9-10.3,1.3-15.4c0.1-1.2,0.7-1.7,1.8-2.1c2.8-0.9,5.6-1.9,8.4-3
	c1.3-0.5,2.5-1.1,4-1.9c0.2,1.8,0.3,3.3,0.5,4.9c1.3,12.1,7.5,20.6,18.6,25.5c1.5,0.7,3.1,1.3,4.7,1.9c0,0.7,0.1,1.3,0.1,1.9
	c0,1.3-0.1,2.6-0.2,3.8c-0.2,2.1,0.5,3.7,2.7,4.3c0.3,0.1,0.5,0.3,0.8,0.6c0.3,1.8,0.1,3.6,0,5.5c-0.1,2-0.3,3.9-0.4,5.9
	c-0.1,1.8,0,3.8-0.6,5.5c-1,0.7-1.9,0.3-2.7,0.1c-14-3.3-25.5-10.4-34.3-21.9c-1.3-1.6-2.3-3.4-3.6-5.1c-0.9-1.2-1.2-2.5-1.2-3.9
	C257.6,216.5,257.6,214.3,257.8,212z M211.3,246.5c0.9-1.2,1.9-2.3,3-3.3c7.5-7.4,13.9-15.7,20.3-24c0.7-0.9,1.3-2,1.9-3
	c0.5-0.8,0.9-1.5,1.5-2.2c0.9-1.2,2-1.9,3.6-1.8c0.6,0,1.2,0,1.9,0c0.3-0.5,0.5-1,0.7-1.5c0.8-2.1,1.4-4.3,2.3-6.4
	c1.9-4.5,5.4-7.2,10.1-8.3c0.1,0,0.2,0,0.4,0.1c0,0.9,0.1,1.7,0,2.6c-0.4,4.8-0.9,9.7-1.2,14.5c-0.3,6.1-0.5,12.3,0.1,18.4
	c0.3,3,0.1,6.1,0.1,9.2c0,0.2-0.2,0.3-0.5,0.8c-2.9-3.3-4.5-7.1-6.5-10.9c-1,1.4-1,2.6-0.4,3.8c0.7,1.5,1.4,3,2.3,4.5
	c1,1.7,2.3,3.2,3.4,4.8c0.4,0.5,0.8,1.1,1.3,1.8c-9.5,7.9-16.6,17.8-24.2,27.5c-0.7-0.4-1.3-0.7-1.8-1.1c-2.2-1.7-4.4-3.4-6.4-5.3
	c-3.6-3.6-7.1-7.5-10.6-11.2c-0.5-0.6-1-1.2-1.5-1.9C209.2,250.7,209.2,249.2,211.3,246.5z M208.9,254.4c0.7,0.7,1.3,1.3,1.8,2
	c4.3,5.2,9,10,14.2,14.3c1.8,1.4,3.6,2.7,5.5,4c0.4,0.3,0.8,0.5,1.2,0.9c0.6,0.5,0.8,1.1,0.5,1.8c-0.6,1.4-1.1,2.7-1.7,4
	c-9.2-2.7-18.6-11.2-25-22.7C206.5,257.3,207.5,255.8,208.9,254.4z M237.9,334.7c-1.2-0.1-1.8-0.8-2.4-1.4
	c-6.5-6.3-13.1-12.7-19.6-19c-2.9-2.8-5.7-5.5-8.7-8.1c-6-5.2-10.2-11.5-12-19.3c-0.4-1.6-1-3.2-1.6-4.8c-1-2.7-0.8-5.3,0.4-7.8
	c0.8-1.5,1.5-3,2.5-4.3c2.3-3.1,4.7-6.1,7.1-9.1c0.2-0.3,0.6-0.5,1-0.8c0.5,0.7,0.9,1.4,1.3,2c1.9,3,4,5.9,6.3,8.6
	c3.2,3.6,7,6.5,11.1,8.8c1.9,1.1,3.8,2.1,5.8,3.1c0.9,0.5,1.6,1.1,1.9,2.1c1,2.7,2.6,5.1,4.4,7.4c4.3,5.4,8.6,10.9,12.9,16.3
	c0.3,0.3,0.5,0.6,0.8,1C247.5,318.9,242.6,326.8,237.9,334.7z M234.9,354.9c1.4,0.1,2.8,0.9,4.4,2.5c-0.7,1.8-1.8,2.9-3.6,3.7
	c-0.4-0.5-0.9-1-1.1-1.6c-0.4-1.1-0.7-2.2-1-3.4C233.4,355.4,234.2,354.8,234.9,354.9z M230.8,356.8c1.5,2.6,2.8,4.9,4.2,7.3
	c0.6,1.1,0.8,2.2,0.4,3.4c-0.6,2-1.8,3.7-3.7,5.1c-0.3-0.4-0.7-0.7-0.9-1.1c-1.3-2.8-2.6-5.5-3.8-8.3
	C225.9,360.2,227.3,357.7,230.8,356.8z M224.4,382.3c-0.2-0.5-0.3-1.1-0.4-1.7c-0.5-4.3-1.3-8.6-2.8-12.7c-0.6-1.5,0.3-3.3,1.4-3.9
	c1.2-0.6,2.1-0.4,2.7,0.7c1.1,2,2,4.1,3,6.1c0.6,1.2,1.1,2.3,1.7,3.5c0.3,0.6,0.4,1.3,0.5,1.8c-0.6,2.2-1.2,4.2-2.6,5.8
	c-0.4,0.4-0.9,0.8-1.4,1.1C225.8,383.6,224.8,383.2,224.4,382.3z M243.8,379.1c-0.1,1.4-0.3,2.8-0.3,4.1c-0.1,1.4-0.8,2.3-2,2.6
	c-1.5,0.4-3.1,0.7-4.6,0.8c-3,0.3-5.9,0-9.1-1.1c0.5-0.6,0.7-0.9,1-1.2c2.4-2.2,3.6-4.9,4.1-8c0.2-1.2,0.6-2,1.4-2.8
	c0.8-0.8,1.5-1.6,2-2.5c1.4-2.5,2.4-5,0.7-7.9c0.5-0.5,0.9-0.9,1.3-1.2c2-1.1,3.3-2.5,3-5c0-0.2,0.2-0.5,0.4-0.7
	c0.2,0.2,0.4,0.4,0.4,0.5c-0.1,4.3-0.2,8.7-0.2,13c0,0.7,0.3,1.5,0.7,2.2C243.7,374.2,244,376.6,243.8,379.1z M244.3,355.6
	c0.2-1.9-0.1-3.5-1.2-5.1c-1.9-2.8-2.9-6-3.9-9.3c-0.5-1.5-0.4-3,0.2-4.4c1.8-4.1,4.2-7.8,6.4-11.9c0.7,0.5,1.1,0.8,1.6,1.1
	c0.5,0.4,1,0.9,1.6,1.3c2.5,1.7,4.7,1.2,6.2-1.4c0.8-1.4,1.4-2.8,2.1-4.2c3-5.9,6-11.8,8.9-17.8c2.8-5.8,5.2-11.8,7-18
	c0.1-0.4,0.3-0.7,0.4-1.1c1.6-1,3.4-1.1,5.2-1.2c5.3-0.3,10.7-0.4,16-0.6c0.2,0,0.4,0.1,0.8,0.2c0,0.5,0.2,1,0.2,1.6
	c-0.2,2.6-0.5,5.1-0.8,7.7c-1,9.3-2,18.5-2.9,27.8c-0.2,1.7-0.3,3.4-0.6,5c-0.3,1.4-0.7,2.7-1.2,4c-1.5,3.6-2.8,6.3-2.9,6.5
	c-1.4,2.6-4.4,10.2-11.2,30.5c-1,0.1-1.9,0.3-2.9,0.3c-5.2,0.3-10.5,0.5-15.7,0.7c-4.1,0.1-8.1,0.4-12.1,1.3
	c-0.4,0.1-0.8,0.1-1.3,0.2c-0.1-0.6-0.2-1.2-0.3-1.7C243.6,363.3,243.8,359.5,244.3,355.6z M239.3,422.2c0.4-2.6,0.9-5.3,1.4-7.9
	c1.4-7.4,2.9-14.8,4.3-22.1c0.2-1.2,0.3-2.4,0.3-3.5c0-3.1,0-6.1,0.6-9.2c0.4-1.9,0.2-3.7-0.4-5.6c-0.3-0.7-0.4-1.5-0.7-2.5
	c2.3-1,4.5-1.3,6.6-1.5c3.9-0.3,7.7-0.4,11.6-0.6c5.8-0.2,11.7-0.4,17.5-0.7c1.1,0,2.2-0.2,3.3-0.3c2.5-0.2,3.9-1.7,4.7-3.9
	c0.4-1,0.6-2.1,1-3.1c0.5-1.5,1-3,1.6-4.5c0.3-0.6,0.7-1.3,1.2-1.5c0.7-0.4,1.5-0.2,2.3,0.6c-0.6,4.7-1.3,9.5-1.1,14.4
	c0.2,4.8,1.1,9.4,2.7,14.1c-0.7,0.1-1.3,0.2-1.8,0.2c-3.2-0.1-6.3-0.3-9.5-0.4c-1.4,0-2.8,0-3.9-1.1c-0.1-0.1-0.4-0.2-0.5-0.3
	c-0.6-0.2-1.3,0.3-1.2,0.9c0.2,2.1,0.3,4.1,0.5,6.2c0.9,6.6,1.7,13.1,2.7,19.7c1.2,7.5,2.6,15,3.9,22.5c0.1,0.9,0.5,1.7,0.2,2.7
	c-2.5,0.1-4.8-0.5-7.1-0.9c-11-2-22-4.1-32.8-7.1c-1.9-0.5-3.8-1-5.7-1.6C239.2,424.6,239,424.3,239.3,422.2z M238.3,428.1
	c0.1-0.4,0.3-0.7,0.6-1.1c0.6,0.1,1.2,0.1,1.7,0.3c10.4,3.2,21,5.7,31.7,7.7c4.1,0.8,8.2,1.4,12.3,2.1c0.6,0.1,1.2,0.2,1.8,0.3
	c0.9,0.1,1.4,0.6,1.7,1.5c0.6,2.2,1.2,4.4,1.7,6.6c0.1,0.6-0.1,1.4-0.2,2c-0.9,3.9-1.7,7.7-2.6,11.6c-1.8,7.9-3.5,15.8-5.3,23.8
	c-0.1,0.5-0.2,1-0.4,1.4c-0.5,1.8-1,2.2-2.7,2.1c-6-0.5-12-1-18.2-1.7c-0.1-2.1,1.7-3.8,0.4-5.7c-1.3,0.9-1.3,1-1.9,2.4
	c-0.4,1-0.4,2.2-1.5,3.1c-9.3-1-18.7-2-27.5-6.4C232.3,461.2,235.5,444.7,238.3,428.1z M289,438.1c1.8-0.6,2.7-0.1,2.3,1.4
	c-0.3,1-0.1,2.2-1.3,2.9C289.7,440.9,289.4,439.5,289,438.1z M210.9,620c1.5,3.4,2.9,6.5,3.4,9.9c0.4,2.9-0.2,5.5-2.4,7.6
	c-1.1,1.1-2.2,2.2-3.4,3.3c-0.3,0.3-0.8,0.4-1.4,0.8c-0.1-0.6-0.3-0.9-0.3-1.3c0-4.6-0.1-9.3-0.1-13.9
	C206.7,623.5,207.7,622.1,210.9,620z M217.9,617.2c-0.2-2.7,0.6-3.9,3.2-4.6c1.7-0.5,3.5-0.7,5.3-0.7c3.3,0,6.5,0.2,9.8,0.5
	c6.3,0.5,12.6,1.3,18.8,2.8c1.4,0.4,2.9,0.8,4.2,1.4c5,2.3,7.6,7.2,6.7,12.6c-0.2,1.5-0.6,2.9-1.1,4.3c-1.9,4.7-3.9,9.3-6.1,14.2
	c-0.9-0.5-1.6-0.8-2.3-1.2c-2.5-1.4-4.9-2.9-7.4-4.3c-7.8-4.3-16.2-6.8-25.2-6.8c-2,0-4-0.2-5.9-0.4c-1.4-0.2-1.9-0.8-1.8-2.2
	c0.1-0.9,0.3-1.8,0.5-2.6C217.7,625.9,218.3,621.6,217.9,617.2z M216.5,637.2c4.7,0.3,9.5,0.5,14.2,0.9c3.6,0.3,7,1.3,10.3,2.7
	c5.3,2.3,10.3,5,15.2,8.1c0.5,0.3,0.8,0.8,1.2,1.1c-0.1,0.4-0.1,0.7-0.2,1c-1.3,2.5-2.5,5.1-3.9,7.8c-0.9-0.5-1.8-1-2.6-1.5
	c-1.9-1.2-3.7-2.3-5.5-3.5c-9.5-6.2-19.9-9.1-31.2-9c-1.7,0-3.4-0.1-5-0.1c-0.3,0-0.6-0.2-0.9-0.3c0.1-0.3,0.2-0.6,0.3-0.8
	c1.9-1.8,3.8-3.5,5.6-5.3C214.7,637.6,215.4,637.1,216.5,637.2z M185.3,661.1c5-5,10.5-9.3,16.4-13.3c0.8-0.6,1.7-0.9,2.8-1
	c6.5-0.1,13.1,0,19.6,0.9c5.1,0.8,10,2.4,14.6,4.9c3.7,2,7.3,4.1,10.9,6.1c1.4,0.8,2.6,1.8,3.4,3.3c0.5,1.1,0.8,2.3,0.7,3.5
	c-0.3,3.2,0,6.3,0.2,9.5c0,0.5,0.1,1,0.1,1.5c0,0.9-0.3,1.8-1,2.4c-1.1,1-2.3,1.9-3.5,2.7c-0.8,0.5-1.4,0.4-2.1-0.3
	c-0.7-0.7-1.3-1.5-1.9-2.3c-1.9-2.5-4.2-4.6-6.8-6.1c-8.1-4.7-16.5-8.6-25.6-10.8s-18.1-1.7-26.8,1.9c-0.7,0.3-1.5,0.5-2.5,0.9
	C183.6,663,184.4,662,185.3,661.1z M237.1,674.8c-0.2,0.2-0.2,0.4-0.4,0.5c-4,2-7.9,4-12,5.8c-5.3,2.3-11,2.5-16.6,1.8
	c-4.1-0.5-8.1-1.6-12.1-2.9c-5.8-1.8-9.2-5.9-10.7-11.7c-0.1-0.3-0.1-0.6-0.1-0.9c0-0.1,0-0.2,0.2-0.7c1.5-1,3.3-1.6,5.1-2.1
	c8-2.4,16-2.1,24,0.2c7.6,2.2,14.9,5.4,21.8,9.4C236.5,674.3,236.8,674.6,237.1,674.8z M175.7,682c0.9-5,2.4-9.8,7-13.2
	c0.3,0.6,0.6,1.2,0.9,1.8c1.1,3.1,2.7,5.9,5.3,8.1c0.7,0.6,1.4,1.2,2.2,1.5c6.4,2.8,12.9,4.9,20,5.3c6,0.3,11.8-0.8,17.3-3.4
	c2.8-1.3,5.5-2.8,8.2-4.1c1-0.5,2-0.9,3.1-1.4c0.7,0.6,1.3,1.1,1.8,1.6c1.1,1.2,2.1,2.4,3.1,3.6c0.5,0.5,0.9,1,1.5,1.5
	c1.5,1.3,2.9,1.4,4.6,0.2c1-0.7,1.9-1.4,3.2-2.4c0.4,2,0.4,3.4,0.2,4.9c-0.6,0.4-1.3,0.9-2,1.3c-10.2,6.2-21.3,9.5-33.2,9.9
	c-6.1,0.2-12.3,0-18.4-0.5c-5.1-0.4-9.8-2.2-14.2-4.9c-3.5-2.1-6.5-4.9-9.6-7.5C175.9,683.7,175.5,682.9,175.7,682z M251.7,698.8
	c-6.1,3.8-12.7,6.4-19.7,8.1c-6.6,1.5-13.3,2-20,1.7c-5.3-0.3-10.7-0.7-15.9-1.6c-3-0.5-6-1.4-8.8-2.5c-5-2-8.6-5.5-11.4-10
	c-1.6-2.5-1.6-5.2-0.5-8.2c1.7,1.1,3.1,2.3,4.5,3.5c3.7,3.2,7.8,5.7,12.5,7.3c3.1,1.1,6.3,1.9,9.6,2c6.5,0.2,13.1,0.3,19.6,0.3
	c7.2-0.1,14.1-1.9,20.7-4.7c3.2-1.3,6.3-3,9.4-4.5c0.7-0.4,1.4-0.7,2.4-1.2c0.3,2.8,0.5,5.1,0.8,7.4
	C254,697.5,252.8,698.1,251.7,698.8z M272.5,676.1c-0.8,2.8-2,5.4-3.6,7.7c-3.4,4.7-7.8,8.2-12.7,11.8c-0.3-0.6-0.5-1-0.6-1.5
	c-0.2-2-0.3-3.9-0.5-5.9c3-2.3,6-4.4,8.8-6.6c2.8-2.3,5.6-4.7,8.6-7.3C272.5,675.2,272.6,675.6,272.5,676.1z M274.6,657.1
	c-0.2,2.8-0.4,5.5-0.5,8.3c-0.1,2.6-0.9,4.9-2.8,6.7c-4.4,4.2-9,8.3-14.1,11.8c-0.1,0.1-0.4,0.1-0.8,0.2c-0.1-0.8-0.4-1.5-0.4-2.3
	c-0.2-6.5-0.4-13-0.6-19.6c-0.1-1.8,0.4-3.5,1.2-5.2c0.8-1.8,1.8-3.5,3-5.2c0.8,0.7,1.4,1.2,2,1.7c0.8,0.7,1.6,1.5,2.5,2.1
	c2.5,1.8,5.3,2.1,8.2,0.9c0.6-0.3,1.3-0.5,1.8-0.7C274.8,656.1,274.6,656.6,274.6,657.1z M282.5,638.9c-0.8,1.8-1.7,3.5-2.8,5.2
	c-1.6,2.6-3.3,5.2-5.1,7.7c-2.6,3.6-4.2,4.1-8.6,1.9c-1.1-0.5-2-1.2-3-1.9c-1.7-1.3-2.2-3-1.5-5c0.4-1,0.8-2,1.2-3
	c1.6-3.8,3.3-7.6,5.1-11.8c0.6-0.1,1.3-0.3,1.9-0.3c3.3,0,6.5,0.2,9.7,1C283.4,633.7,284.1,635.2,282.5,638.9z M285,615.1
	c1.3,2.6,1.2,4.9-1,7c-1.3,1.3-1.4,3.2-1.7,5c-0.2,1.2,0,2.4-0.6,3.6c-2.3,0-4.4-0.8-6.7-1c-2.1-0.2-4.3-0.2-6.6-0.3
	c-0.1-0.9-0.1-1.7-0.2-2.5c-0.3-6.3-3.4-10.7-9.3-12.8c-2.6-1-5.3-1.6-8-2.1c-8.5-1.6-17.1-2.2-25.7-2.2c-1.9,0-3.8,0.3-5.5,1
	c-2.2,0.9-3.6,2.5-3.8,4.8c-0.1,1,0,2-0.1,3c0,1.8,0.2,3.7-0.4,5.7c-0.4-0.4-0.6-0.6-0.7-0.8c-1.1-3.1-2.4-6.1-3.3-9.2
	c-1.2-3.8-1-7.7,0.5-11.3c0.9-2.2,1.8-4.4,3.1-6.4c2.5-3.8,4.1-7.9,4.3-12.5c0-0.3,0.1-0.6,0.3-1.1c4.8-1.6,9.8-2.7,15-2.7
	c0.5,0,1,0.1,1.5,0.1c2.7,0.4,5.2,1.2,7.6,2.5c1.3,0.7,2.6,1.5,3.8,2.4c1.9,1.3,3.7,2.6,5.5,4.1c7.7,6.5,16.5,10.4,26.1,12.8
	c1.2,0.3,2.5,0.7,3.6,1c0.2,0.3,0.4,0.5,0.3,0.7c-0.4,3.2,0.3,6.3,1.5,9.3C284.5,613.8,284.7,614.5,285,615.1z M302.7,493.3
	c-1.1,11.1-2.2,22.3-3.2,33.4c-0.6,6.7-0.9,13.4-1.5,20.1c-0.7,8.4-1.1,16.8-1.3,25.2c-0.1,2.9-0.1,5.7,0,8.6
	c0,5.2-1.7,9.7-5.3,13.5c-2.6,2.7-5.4,5.2-8.2,8c-0.1,0-0.5,0-0.9-0.1c-3.3-0.9-6.7-1.8-10-2.9c-5.9-1.9-11.3-4.7-16.2-8.5
	c-1.8-1.4-3.6-2.8-5.4-4.2c-1.2-0.9-2.4-1.8-3.6-2.6c-5.9-4.2-12.4-5.5-19.5-4c-2,0.4-4,0.9-6.1,1.4c-0.5,0.1-0.9,0.1-1.5,0.2
	c0-0.5-0.1-0.9-0.1-1.3c0.2-4.9,0.6-9.9,0.7-14.8c0.2-9,0.3-18,1-27c0.8-10.8,2.2-21.5,4.3-32.1c1.2-5.9,2.2-11.9,3.2-17.8
	c0.3-1.7,0.2-3.4,0.2-5c0.1-1-0.1-2,0.7-3c4.3,1.8,8.7,3.2,13.3,4c4.5,0.8,9,1.4,13.7,2.1c-0.2,1-0.4,1.9-0.6,2.7
	c-2,6.4-3.8,12.9-6.4,19.1c-0.5,1.3-0.3,2.2,0.4,2.3c1,0.1,1.3-0.8,1.5-1.5c2.5-6.2,4.9-12.5,6.5-19.1c0.2-1,0.5-1.9,0.8-2.6
	c0.9-0.8,1.7-0.6,2.5-0.5c12.7,1.5,25.5,1.9,38.2,2.4c1,0,1.9,0.2,2.9,0.2C303.2,491,302.9,492.1,302.7,493.3z M303.9,482.9
	c-0.2,1-0.3,2-0.5,2.9s-0.7,1.4-1.6,1.5c-0.5,0.1-1,0.1-1.5,0.1c-5.2-0.3-10.5-0.5-15.7-0.8c-0.6,0-1.1-0.1-2-0.2
	c3.3-11.4,5.3-22.8,8.1-34.3c0.4,0.4,0.7,0.7,0.8,1c2.3,6.9,5.8,13.2,9,19.7c1,2,1.8,4,2.8,5.9C304.1,480,304.2,481.4,303.9,482.9z
	 M309.5,447.7c-0.6,3.3-1.2,6.6-1.8,9.9c-0.6,3.2-1.1,6.4-1.6,9.6c-0.5,3.3-1,6.6-1.5,10c-0.7,0.1-0.8-0.4-1-0.8
	c-1.9-3.9-3.8-7.8-5.8-11.7c-2.3-4.5-4.1-9.2-5.9-13.9c-0.3-0.9-0.5-1.7-0.3-2.6c0.7-3.1,1.4-6.1,2.2-9.2c0-0.2,0.2-0.3,0.4-0.5
	c3.1,0.1,5.9,0.4,8.8,0.3c2.7-0.1,5.4-0.6,8.4-0.9C311.1,441.2,310,444.4,309.5,447.7z M312.9,431.3c-0.2,1-0.4,1.9-0.7,2.9
	c-0.2,0.8-0.8,1.3-1.7,1.5c-5.2,0.9-10.4,1.2-15.6,0.6c-2.1-0.3-4.3-0.6-6.4-1c-0.9-2.1-1.1-4.2-1.5-6.2c-2-10.5-3.7-21-5-31.6
	c-0.2-2.1-0.6-4.1-0.9-6.2c-0.2-1.6-0.5-3.3-0.2-5.3c0.6,0.3,1,0.5,1.3,0.8c1.3,1.1,2.5,2.2,3.8,3.3c4,3.7,8.6,6.7,13.6,8.8
	c4.4,1.9,8.9,3.8,13.4,5.5c2.4,0.9,4.1,2.3,5.1,4.6c0.2,0.3,0.3,0.7,0.6,1.3C315.9,417.2,314.4,424.2,312.9,431.3z M316.5,401.3
	c-1.6-3.3-3.3-6.7-4.5-10.9c2,0.6,3.3,0.9,4.6,1.3c3.2,1,6.4,2.1,9.6,3.1c0.6,0.2,1.3,0.5,1.9,0.8c0.8,0.4,1.1,1.1,1.1,2
	c-0.1,0.6-0.2,1.2-0.4,1.7c-2,3.9-4.1,7.9-6.2,11.8C320.8,409.5,319.3,407,316.5,401.3z M353,486.1c-6.7-16.3-13.3-32.6-20-49
	c0.7-0.3,1.2-0.5,1.8-0.6c5.3-0.7,10.6-1.2,15.9-1.9c10.6-1.4,21.1-3.2,31.4-6.4c2.2-0.7,4.3-1.5,6.4-2.2c1.2,0.3,1.5,1.3,2,2.1
	c3,4.9,5.3,10.2,6.9,15.7c3.4,11.7,6.7,23.4,10,35.1c0.1,0.4,0.1,0.8,0.2,1.3c-0.5,0.3-1,0.7-1.5,0.8c-3.8,0.8-7.5,1.8-11.3,2.3
	c-9.9,1.4-19.8,2.5-29.7,3.7c-2.4,0.3-4.7,0.6-7.1,0.8c-1.2,0.1-2.4,0.2-3.8,0.3C353.6,487.3,353.3,486.8,353,486.1z M406.3,630
	c-1.9-1.3-3.6-2.8-5.3-4.3c-2.1-2-3-3.5-4-6.4c9.8-0.2,19-2.5,27.8-6.3c5.5-2.4,10.5-5.5,15.3-9.1c1.7-1.3,3.4-2.7,5.2-4
	c1.8-1.4,3.8-2.5,6-3.3c1.6-0.6,3.3-0.8,5.1-0.1c0,0.6,0.1,1.1,0.1,1.7c-0.2,2.7-0.4,5.3-0.8,8c-0.4,3,0.3,5.7,2,8.1
	c1.1,1.6,2.2,3.3,3.2,5c0.3,0.5,0.5,1,0.9,1.7c-1.5,0.3-2.8,0.1-4,0c-4.2-0.3-8.3-0.3-12.4,0.2c-6.2,0.8-11.8,3.2-16.5,7.4
	c-3.5,3.1-5.2,6.9-5,11.5c0.1,2.8,0.5,5.5,0.7,8.3c0,0.4,0.1,0.8,0.1,1.1c-0.7,0.3-1-0.2-1.3-0.6c-2.1-2.8-4.3-5.4-6.3-8.3
	C414,636.4,410.5,632.9,406.3,630z M476.4,649.3c-1.1-0.3-2-0.6-2.9-0.9c-5.5-1.9-11-2.9-16.9-2.9c-5.6,0-10.7,1.5-15.5,4.5
	c-3.8,2.4-7.6,4.5-10.7,7.5c-1,0-1.2-0.6-1.5-1.1c-1.4-2.5-1.9-5.2-2.3-7.9c-0.4-2.6-0.5-5.3-0.7-8c-0.3-4.4,1.5-7.9,4.8-10.7
	c4.1-3.4,8.8-5.2,14-6.1c3.3-0.5,6.7-0.7,10-0.3c2.5,0.3,5.1,0.2,7.7,0.3c1.5,0.1,3,0.2,4.4,0.4c2.2,0.3,3.8,1.5,5.1,3.3
	c1.5,2.1,2.3,4.3,2.7,6.8c0.4,2.9,0.8,5.9,1.2,8.8c0.2,1.6,0.5,3.1,0.6,4.7C476.5,648.1,476.4,648.5,476.4,649.3z M478.2,653
	c1.1,1.2,2.4,2.2,3.9,4.1c-2.3-0.2-3.9-0.3-5.5-0.5c-8.9-1.3-17.3,0.1-25.3,4.2c-3.7,1.9-7.3,4-10.7,6.4c-0.8,0.6-1.6,1.1-2.4,1.6
	c-1.5-1.2-5.2-6-6.8-8.9c0.3-0.4,0.6-0.9,1-1.2c2.6-2,5.2-4,7.9-5.8c7.5-5.1,15.8-6.6,24.6-4.7c3.6,0.8,7.1,1.8,10.5,3.1
	C476.6,651.6,477.5,652.2,478.2,653z M413.3,657.6c-1.8-3.4-3.4-6.9-4.4-10.7c-0.8-3.3-0.9-6.5,0.4-9.6c0.1-0.3,0.2-0.5,0.4-0.8
	c0.1-0.1,0.3-0.2,0.6-0.4c0.5,0.4,1,0.8,1.5,1.3c1.2,1.5,2.5,3.1,3.6,4.7c3,4.2,6.1,8.2,9.6,12c0.7,0.7,1.3,1.5,1.8,2.3
	c0.6,0.9,0.5,1.9-0.2,2.7c-1.8,1.9-3.8,3.4-6.3,4.2c-1.8,0.6-3.4,0.1-4.4-1.5C414.9,660.6,414.1,659.1,413.3,657.6z M414.9,683.7
	c0.1-4,0.2-7.9,0.3-11.9c0-1.6,0-3.2,0.1-4.8c0-0.7,0.1-1.3,0.2-2.3c0.7,0.3,1.1,0.5,1.4,0.6c1.9,1,3.9,0.8,5.7-0.3
	c1.4-0.9,2.7-1.9,4.1-3c0.6-0.5,1.2-1,1.8-1.5c0.3,0.2,0.6,0.4,0.8,0.6c2,2.7,4,5.4,6.1,8c0.8,1,0.9,2,0.5,3.3
	c-1,3.1-1.9,6.2-2.7,9.4c-0.6,2.7-1.5,5-3.7,6.9c-1.1,0.9-1.6,2.4-2.5,3.8c-0.4-0.1-0.8-0.3-1.2-0.5c-2.7-1.3-5.3-2.6-8-4
	C415.1,686.8,414.9,687.2,414.9,683.7z M427.6,704.5c-3-1.7-6-3.4-9-5.1c-2.5-1.5-3.8-3.6-3.6-6.6c0.1-1,0-2,0-3.1
	c0.6,0.1,1.1,0.2,1.5,0.3c4.7,2.3,9.4,4.5,14.1,6.8c0.4,0.2,0.7,0.4,1.2,0.7c-0.7,2.7-1.3,5.2-2.6,7.6
	C428.7,704.8,428.1,704.7,427.6,704.5z M507.8,704.1c-0.3,0.9-0.8,1.6-1.6,2.1c-0.7,0.4-1.4,0.8-2.1,1.1c-5.9,2.6-12.1,4.2-18.5,5
	c-7.9,0.9-15.8,0.6-23.7,0.3c-4.5-0.2-9.1-0.6-13.6-1c-1.6-0.1-3.2-0.3-4.7-0.7c-4.1-1.2-8.1-2.6-11.9-4.5c-0.3-0.2-0.6-0.4-1.1-0.8
	c0.8-2.5,1.7-5,2.6-7.7c1.1,0.3,2,0.6,2.9,0.9c5.7,2,11.5,3.7,17.4,4.8c8.4,1.6,16.9,2,25.4,1.1c9.5-1,18.7-3.1,27.5-7
	c0.4-0.2,0.9-0.3,1.4-0.4C508.2,699.4,508.2,702.8,507.8,704.1z M508.2,689.2c-0.1,1.7-0.2,3.3-0.3,5c-0.7,1-1.8,1.3-2.8,1.8
	c-4.5,2-9.2,3.5-14.1,4.5c-6.7,1.4-13.4,2.4-20.3,2.4c-11.5,0.1-22.6-2.1-33.4-6c-2-0.7-4.1-1.5-6.1-2.3c-0.6-0.3-1.2-0.6-1.9-1
	c0.3-0.8,0.5-1.6,0.9-2.3c1-1.8,1.8-1.7,3.2-1.3c0.6,0.2,1.3,0.5,2,0.7c3.4,1.1,6.5,0.4,9.2-1.7c1-0.8,1.9-1.7,2.8-2.6
	c0.5-0.5,0.9-1,1.5-1.5c0.6-0.6,1.4-0.7,2.2-0.3c0.5,0.3,1.1,0.5,1.6,0.8c3.5,2.2,7.3,3.4,11.4,4.1c6,0.9,12,1.3,18,1
	c1.9-0.1,3.8-0.1,5.6-0.3c1.9-0.2,3.7-0.5,5.5-1.2c3.5-1.2,5.7-3.8,6.5-7.5c0.3-1.2,0.4-2.5,0.7-3.9c0.6,0.3,1,0.5,1.4,0.8
	c1,0.8,2.1,1.5,3,2.4C509.1,684.9,508.5,684.6,508.2,689.2z M451.4,682.3c1.3-1.5,2.7-2.6,4.1-3.7c2.6-2.2,5.4-4.1,8.5-5.5
	c2.6-1.2,5.4-2,8.3-2.1c7-0.1,13.8,0.7,20.6,2.5c0.9,0.2,1.7,0.5,2.5,0.8c1.8,0.6,2.6,1.9,2.7,3.8c0.2,4.6-2.3,8.1-6.8,9.2
	c-2.1,0.5-4.3,0.7-6.5,0.8c-7.2,0.4-14.4,0.4-21.6-1C458.9,686.4,455.7,685.1,451.4,682.3z M485.9,654.5c0.9,1.5,1.7,2.9,2.7,4.6
	C485.3,658.3,485.2,658.2,485.9,654.5z M487.3,660.5c5.7,1.2,10.4,4.3,14.4,8.4c2.2,2.2,3,5,2.6,8.3c-0.5-0.2-0.9-0.3-1.2-0.6
	c-5.2-4-11.2-5.7-17.6-6.6c-2.5-0.3-5.1-0.6-7.7-0.9c-6.2-0.7-12,0.6-17.5,3.5c-4.2,2.3-7.9,5.3-11.2,8.8c-1.8,1.9-3.6,3.7-5.4,5.5
	c-1.9,1.9-4.2,2.5-6.8,2.1c-1.2-0.2-2.3-0.5-3.2-1.4c1.1-4.5,2.2-8.9,3.2-13.3c0.4-1.6,1.2-2.9,2.6-3.9c4.7-3.4,9.6-6.6,15-9
	c6.7-2.9,13.6-4.1,20.9-3C479.5,659.1,483.5,659.7,487.3,660.5z M480.4,629.4c1.8,1.1,3,2.6,3.2,4.7c0.4,2.7,0.8,5.5,0.9,8.3
	c0.2,4,0.1,8.1,0.1,12.2c0,0.3-0.2,0.5-0.3,1c-0.6-0.5-1.2-0.8-1.7-1.3c-3.6-3.3-3.6-3.3-4.3-8c-0.6-4.4-1.2-8.8-1.8-13.2
	c0-0.1,0-0.2,0-0.3c-0.3-2.6-0.3-2.6,2.2-4.4C479.2,628.8,479.8,629.1,480.4,629.4z M470.4,604.8c1.5,3.5,3.6,6.6,5.6,9.8
	c0.8,1.3,1.6,2.7,2.3,4.2c1,2,0.9,4-0.3,5.9c-0.7,1.1-1.6,2.2-2.6,3.7c-0.6-0.9-0.9-1.4-1.2-1.8c-1.5-2.6-3.8-4.4-6.8-4.8
	c-2.3-0.3-3.7-1.4-4.8-3.4c-0.8-1.6-1.9-3-2.8-4.5c-1.5-2.2-2.2-4.7-1.9-7.3c0.3-3,0.5-6.1,0.8-9.1c1-0.3,1.8,0.1,2.6,0.6
	c2.7,1.7,5.3,3.4,7.9,5.2C469.7,603.6,470.2,604.2,470.4,604.8z M420,478.5c1.5,4.4,3,8.8,4.5,13.2c0.3,0.8,0.6,1.5,0.9,2.2
	s1,0.9,1.9,1c0.2-2-1.3-3.7-1.3-6c0.8,0.6,1.3,0.9,1.8,1.4c2.8,2.8,5.1,6.1,6.4,9.9c1.7,4.8,3.3,9.5,4.7,14.4
	c6,21.5,14.8,41.8,25.5,61.3c2.6,4.8,4.1,9.8,3.8,15.3c-0.2,2.8,0,5.5,0.6,8.3c0.1,0.5,0.2,1.1,0.3,1.9c-1.6-0.5-2.6-1.6-3.8-2.2
	c-1.3-0.7-2.5-1.5-3.8-2.2c-1.2-0.7-2.7-0.8-3.5-2c-0.8,0.1-1.6,0.3-2.4,0.2c-2.7-0.4-5.1,0.4-7.4,1.7c-1.6,0.9-3.2,2-4.7,3.1
	c-2.9,2.1-5.7,4.3-8.6,6.3c-9.5,6.4-20.1,10.1-31.5,11.6c-1,0.1-2,0.3-2.9,0.4c-1.7,0.1-2.1,0-4-0.7c-0.8-2-0.6-4.1,0-6.1
	c1-4,0-7.4-2.3-10.6c-0.9-1.3-1.9-2.5-2.9-3.8c-4.5-5.8-7.5-12.3-9.1-19.5c-3.2-14.5-7.3-28.8-11.2-43.1c-0.4-1.3-0.8-2.6-0.8-4.3
	c1.3,0.8,1.7,2.1,2.5,3s1.5,1.8,2.3,2.7c0.9,0.9,1.8,1.8,3.3,2.3c0.1-0.6,0.2-1,0.2-1.4c0-0.3-0.3-0.5-0.5-0.7
	c-3.4-2.9-5.4-6.8-7.3-10.7c-3.2-6.9-6.3-13.9-9.5-20.8c-1.6-3.6-3.3-7.2-4.9-10.8c-0.4-1-1-1.9-1.1-2.9c0.1-0.3,0.1-0.4,0.2-0.4
	c0.1-0.1,0.2-0.1,0.3-0.1c9.8-1.1,19.7-2.1,29.5-3.2c0.4,0,0.8,0.1,1.3,0.1c0.4,0.9,0.9,1.8,1.3,2.7c2.6,5.8,5,11.6,7.7,17.4
	c1.3,2.8,1.8,5.6,1.7,8.6c0,0.9-0.2,1.8,0.4,2.6c0.2,0.4,0.7,0.6,1.2,1.1c0.2-0.6,0.4-0.9,0.5-1.3c0.5-3.9,0.1-7.7-1.4-11.4
	c-1.3-3.1-2.7-6.2-4.1-9.2c-1.3-2.9-2.7-5.7-4-8.6c-0.3-0.7-0.8-1.4-0.4-2.4c1.1-0.2,2.2-0.4,3.4-0.6c3-0.5,6-1.1,9-1.6
	c4.7-0.8,8.9-2.5,13-4.8c1.5-0.8,2.9-1.6,4.5-2.5C419.5,477.5,419.8,478,420,478.5z M403.8,418.2c5.3,18.5,10,37.3,14.9,55.9
	c-1.4,1.5-5.5,3.9-8.7,5.2c-1-0.5-1-1.6-1.2-2.5c-1.6-5.9-3.2-11.8-4.9-17.7c-1.7-6.1-3.5-12.2-5.3-18.2c-1.5-4.8-3.5-9.3-6.2-13.4
	c-0.4-0.7-0.8-1.4-1.2-2.1c-0.1-0.2,0-0.4,0-0.6c0.1-0.2,0.2-0.4,0.4-0.4c3.8-2.1,7.7-4.1,11.5-6.1
	C403.2,418.1,403.4,418.2,403.8,418.2z M397.9,394c1.5,6.3,3,12.5,4.5,18.8c0.1,0.4,0.2,0.8,0.3,1.1c0.3,1.2-0.1,2.1-1.2,2.7
	c-4.5,2.9-9.3,5.2-14.3,7.2c-7.9,3.1-16,5.2-24.3,6.5c-9.2,1.5-18.4,2.7-27.6,4.1c-0.4,0.1-0.8,0.1-1.2,0.1c-1.9,0.1-2.2,0-2.9-1.8
	c-0.9-2.1-1.7-4.2-2.5-6.3c-1.9-4.6-3.7-9.2-5.6-13.9c1.6-3,3.3-6.2,4.9-9.3c0.7-1.3,1.4-2.6,1.9-4c0.9-2.5,0.3-4-2.3-4.9
	c-4.3-1.5-8.6-2.8-13-4.2c-0.9-0.3-1.9-0.6-2.8-0.8c-1.1-1.5-1.4-3.3-1.7-5c-0.9-5.9-0.7-11.8,0.5-17.7c0.1-0.6,0.4-1.1,0.6-1.8
	c0.6,0,1.2-0.2,1.7-0.1c8.9,1.4,17.8,1.1,26.7,0.8c6.2-0.2,12.5-0.1,18.7-0.1c2.6,0,5.1,0.1,7.7,0.2c1.1,0,2.2,0.1,3.3,0.2
	c0.2,0.6,0.5,1.2,0.5,1.7c0.2,3.7,2,6.6,4.7,9c1.2,1,2.4,2,3.7,2.9c4.9,3.3,9.9,6.6,14.9,9.8c0.7,0.4,1.3,0.9,2,1.2
	C396.8,391.1,397.5,392.4,397.9,394z M395.2,383.4c0.5,1.5,1,3,1.1,4.8c-0.5-0.2-0.9-0.2-1.2-0.4c-5.7-3.5-11.3-7.3-16.6-11.3
	c-1-0.7-1.8-1.5-2.7-2.3c-2.8-2.1-3.7-5-3.7-8.4c0.6-0.1,1.2-0.2,1.8-0.2c4.7,0,9.5,0.1,14.2,0.1c1.5,0,2.1,0.8,2.5,2
	C392,373,393.6,378.2,395.2,383.4z M391.2,322.8c2,2,3.2,4.5,3.6,7.3c0.3,2.1-0.2,4.1-0.8,6.1c-1.2,3.9-2,7.9-2.2,12
	c-0.1,2.9,0,5.7,0.7,8.5c0.3,1.3,0.2,2.8,0.1,4.1c-0.1,1.3-0.9,2.2-2.2,2.4c-1.4,0.2-2.8,0.4-4.1,0.4c-6.5-0.1-13.1-0.3-19.6-0.4
	c-11.4-0.2-22.8-0.3-34.2,0c-2.3,0.1-4.6-0.1-6.8,0c-1.4,0-2.2-0.6-2.8-1.7c-0.2-0.4-0.4-0.9-0.5-1.4c-2.2-6.5-5.2-12.6-8.5-18.6
	c-2.3-4.4-4.7-8.7-7.2-13c-1.2-2-1.7-4.1-1.7-6.5c0.1-11.8,1-23.5,1.6-35.3c0-0.9,0.2-1.8,0.3-2.6c0-0.3,0.2-0.5,0.4-0.9
	c1.5-0.6,3.1-0.7,4.6-0.7c9.1-0.3,18.2-0.5,27.3,0.3c1.2,0.1,2.4,0.1,3.6,0.3c1.2,0.1,2,0.8,2.3,2c0.4,1.3,0.8,2.7,1.1,4
	c2.6,9.1,6.5,17.6,11.8,25.5c2.1,3.2,4.3,6.4,6.5,9.6c1.3,1.8,1.6,2,3.7,1.4c1.5-0.4,3-0.9,4.5-1.6c2.7-1.2,3.2-2.5,2.1-5.2
	c-0.5-1.3-1.1-2.5-1.8-3.7c-6.2-11.1-11.8-22.4-16.7-34.1c-0.5-1.2-1-2.4-1.7-3.5c-0.9-1.5-2.1-1.7-3.5-0.7
	c-1.3,0.9-2.5,1.9-3.6,3.1c-1.7,1.9-3.7,2.5-6.1,2.2c-8.7-1-17.4-0.8-26.1-0.6c-1.4,0-2.8,0.2-4.2,0.3c-0.6,0-1.2,0.1-1.8,0.1
	c-1.7,0-2.2-0.5-2.2-2.1c0-1.1,0-2.2,0.1-3.3c0.3-4.5,0.7-9.1,1.1-13.6c0-0.5,0-1,0.1-1.5c0.2-0.7,0.4-1.3,0.7-2.1
	c5.4-0.4,10.9-0.5,16.2-1.6c5.3-1.1,10.5-2.7,15.6-4.8c5-2.1,9.8-4.7,14.4-7.7c4.5-3,8.7-6.5,12.6-10.3s7.3-8,10.7-12.7
	c0.3,0.6,0.5,0.9,0.6,1.2c1.1,3.9,2.8,7.6,4.8,11.1c1.1,1.9,1.4,3.7,1.1,5.9c-1.8,11.4-3.5,22.9-5.1,34.4c0,0.2-0.1,0.4-0.1,0.6
	c-0.5,6.7-1.1,13.4-1.3,20.1c-0.3,8.2,1.4,16.2,4.9,23.7c3.3,7.1,3.9,14.4,2.9,22c-0.1,0.9-0.2,1.8-0.3,2.7c-0.3,1.7-0.7,2-2.3,1.9
	c-0.2,0-0.4,0-0.6-0.1c-3.4-0.7-6.9-0.7-10.4-0.7c-7.2,0-14.5,0-21.7,0.1c-9.5,0.2-19,0.8-28.5,1.6c-0.4,0-0.8,0.1-1.2,0.2
	c0,0.2,0,0.4,0,0.6c0.4,0,0.9,0.1,1.3,0.1c5.5-0.3,11.1-0.7,16.6-0.9c7.7-0.3,15.4-0.4,23.2-0.6c3.5-0.1,6.9,0,10.4-0.1
	c3.8,0,7.5,0.2,11.2,0.9c0.6,0.1,1.3,0.1,2.1,0.1c0.2-0.7,0.4-1.2,0.5-1.8c1-5.8,1.5-11.6,0.5-17.4c-0.6-3.5-1.9-6.9-3.2-10.2
	c-3.2-7.9-5.1-16-4.5-24.6c0.3-3.5,0.5-7.1,1-10.6c0.4-2.8,1.1-5.6,1.6-8.4c1-5.9,1.8-11.7,2.8-17.6c0.2-1.1,0.5-2.2,1-3.2
	c-0.1,6.4-0.3,12.9-0.5,19.3c-0.2,6.8-0.5,13.7-0.7,20.5c-0.1,5.8,0.1,11.7,0.8,17.5C386.2,315,387.8,319.3,391.2,322.8z
	 M347.5,281.9c1.2-0.9,2.2-2,3.3-3c0.5-0.4,1.1-0.7,1.6-1.1c1,0.4,1.3,1.1,1.6,1.8c0.5,1.3,1.1,2.5,1.6,3.8
	c4.6,11.3,10,22.2,16.1,32.7c0.6,1.1,1.2,2.3,1.7,3.5s0.1,1.9-0.9,2.5c-1.3,0.8-3.8,1.6-6.2,1.8c-0.1-0.1-0.3-0.5-0.5-0.8
	c-7-9.3-12.9-19.2-16.8-30.3c-0.9-2.6-1.6-5.3-2.4-7.9C346.2,283.8,346.4,282.8,347.5,281.9z M386.4,233c0,0.1-0.3,0-0.6,0
	c-1.1-1.8-2.2-3.6-3-5.9c3.2-0.8,6.3-1.5,9.7-2.2c-0.4,0.7-0.5,1.1-0.8,1.4C389.8,228.4,387.8,230.4,386.4,233z M434.2,233.1
	c-2,0.1-4,0.1-5.9,0.1c-7.7,0-15.4-0.4-23.1-1.3c-3.8-0.5-7.6-1.2-11.4-1.9c-0.6-0.1-1.1-0.4-1.8-0.6c0.3-0.5,0.5-0.8,0.7-1.1
	c1-1.1,2.1-2.1,3.1-3.2c0.8-0.8,1.7-1.3,2.8-1.5c12.3-2.3,24.7-4.6,37-6.9c0.3,0,0.6,0,1.3,0c0.2,1.8,0.3,3.5,0.5,5.1
	c0.2,1.7,0.4,3.3,0.7,5c0.3,1.6,0.7,3.3,1,5C437.5,232.8,435.9,233.1,434.2,233.1z M443.8,218.2c-0.8,3.7-1.7,7.4-2.7,11.5
	c-0.4-0.6-0.7-0.9-0.8-1.2c-1-3.2-1.4-6.6-1.7-9.9c-0.1-1,0.3-1.5,1.3-1.7c0.9-0.2,1.8-0.3,2.6-0.3
	C443.4,216.6,444,217.3,443.8,218.2z M439.8,215.1c-0.1-0.5-0.3-1.1-0.3-1.7c-0.1-8.1-0.3-16.2,0.1-24.3c0-0.5,0-1,0.1-1.5
	c0.1-1.3,0.8-2.2,2.1-2.6c1.4-0.4,2.8-0.7,4.5-1.1c0,0.6,0.1,1.1,0.1,1.5c-0.2,2.4-0.6,4.7-0.8,7.1c-0.4,6.7,1.4,12.9,4.8,18.7
	c0.5,0.8,1,1.7,1.5,2.5C449.1,214.4,442.4,215.2,439.8,215.1z M518.3,159c-6.2,11.3-13.5,21.9-20.8,32.4c-3,4.3-6,8.6-9.1,12.8
	c-3,4.3-7.2,6.7-12.3,7.5c-2.8,0.4-5.7,0.8-8.5,1c-3.7,0.3-7.5,0.6-11.2,0.9c-0.5,0-1,0-1.5,0.1c-1.1,0-1.9-0.4-2.5-1.3
	c-3.2-4.9-5.4-10.1-5.7-16c-0.2-4.2,0.2-8.3,1.1-12.2c4.2-1.7,13.2-1.4,17.8,0.5c-0.2,0.8-0.5,1.6-0.7,2.4c0,0.2,0.2,0.7,0.4,0.7
	c0.3,0.1,0.8,0.1,1.1-0.1c0.4-0.3,0.6-0.8,0.8-1.2c2.3-4.4,5.2-8.4,8.5-12.1c4-4.5,8-9,12-13.6c3.3-3.7,6.5-7.5,9.7-11.2
	c0.4-0.5,0.9-1,1.5-1.5c2.2,1.4,4.2,2.8,6.4,3.9c2.2,1.2,4.4,2.2,6.7,3.1c2.3,0.9,4.7,1.5,7.2,2.4C518.7,158,518.6,158.5,518.3,159z
	 M533.8,138.3c-0.9,4.8-2.5,9.3-4.9,13.6c-0.2,0.4-0.5,0.9-0.8,1.3c-1.8,2.4-4.2,3.4-7,2.6c-6.4-1.9-12.9-3.8-18.5-7.8
	c-1.5-1.1-3.1-2.1-4.5-3.1c-0.4-1.3-0.3-2.3,0.1-3.4c1.7-4.6,3.9-8.9,7.1-12.6c0.3-0.4,0.7-0.6,1.1-1c0.2,0.3,0.4,0.5,0.4,0.6
	c0.2,3.5,2.2,5.9,5,7.5c3.2,1.9,6.6,3.5,10.3,4.6c2.9,0.9,5.4,0.4,7.6-1.8c1.2-1.2,2.4-2.3,3.8-3.6
	C534.1,136.5,533.9,137.4,533.8,138.3z M545.4,88.7c-0.6,3.5-1.2,7-1.8,10.5c-1.3,7-2.7,14-5.3,20.7c-1.5,3.9-3.2,7.7-4.9,11.5
	c-1.3,3-3.6,5.1-6.4,6.9c-1.3,0.8-2.5,1-4,0.6c-4.4-1.4-8.4-3.5-12.2-6c-1.1-0.8-1.7-1.9-1.7-3.3c0-3.7-1.1-7.2-2.2-10.7
	c-0.8-2.7-1.5-5.3-2.3-8c-0.5-1.5-0.3-2.9,0.5-4.3c1.5-2.5,1.4-3-0.4-5.3c-0.3-0.4-0.6-0.8-1-1.5c2-4.2,3.4-8.6,6.2-12.2
	c3.4-4.3,7.3-8.3,11.6-11.9c0.9-0.8,2-1.2,3.2-1.3c2.9-0.2,4.9-1.8,6.5-4.2c0.6-0.9,0.9-2,2.1-2.5c0.3,0.3,0.8,0.6,1,1
	c2.3,3.6,5.2,6.8,8,10c1.2,1.4,2.1,2.9,2.6,4.6C545.5,84.9,545.7,86.8,545.4,88.7z M274.4,37.1c3.1-0.4,6.3-1,9.4-1.5
	c0.2,0,0.3-0.2,0.5-0.3c0-0.1,0.1-0.2,0.2-0.3c0.1-0.4,0.3-0.8,0.3-1.1c0.4-3.1,2.1-5.5,4.5-7.4c6.7-5.4,14.3-6.4,22.4-4
	c3.3,1,5.8,3,7.5,5.9c0.3,0.5,0.7,0.9,1.1,1.5c3.7-0.3,7.3-1,10.9-1.6c0.3-0.1,0.6-0.4,1-0.6c-0.2-0.6-0.2-1.2-0.5-1.8
	c-0.9-2.1-2.2-4-3.8-5.6c-3.3-3.4-7.3-5.7-11.9-7c-5.2-1.5-10.5-1.9-15.9-1.2c-7.1,0.9-13.6,3.2-19.3,7.7c-2.3,1.8-4.3,3.8-5.8,6.3
	c-1.6,2.7-2.7,5.5-2.9,8.6C271.9,36.7,272.4,37.3,274.4,37.1z M277,25.8c1.4-1.9,3.1-3.6,5-5c8.1-6,17.2-8.4,27.1-7.2
	c2.4,0.3,4.9,0.8,7.3,1.5c3.5,1,6.5,2.8,9.2,5.2c2,1.7,3.5,3.7,4.7,6.5c-1.2,0.3-2,0.5-2.9,0.6c-2,0.3-4.1,0.6-6.2,0.9
	c-0.6-0.7-1.2-1.4-1.8-2c-3.4-4.1-7.9-6.2-13.2-6.4c-3.5-0.2-6.9,0.2-10.3,1.2c-3.2,0.9-6,2.5-8.4,4.8c-1.9,1.8-3.5,3.9-4,6.5
	c-0.4,1.7-1.3,2.2-2.9,2.4c-2.2,0.2-4.3,0.6-6.6,0.9c-0.1-0.6-0.3-1.1-0.3-1.6C274,30.9,275.3,28.3,277,25.8z M301.2,43.6
	c2.5,0,5.1-0.6,7.5-1.7c2-1,3.6-2.3,4.8-4.2c2-3.2,1.5-6.8-1.3-9.4c-1.3-1.2-2.9-2-4.6-2.5c-4.3-1.1-8.4-0.5-12.3,1.6
	c-1.5,0.8-2.8,1.9-3.7,3.3c-2.4,3.6-1.8,7.9,1.7,10.5C295.5,42.8,298.1,43.7,301.2,43.6z M293.7,30.6c1.5-1.6,3.4-2.6,5.6-3.2
	c2.9-0.8,5.8-0.9,8.7,0.1c1.6,0.5,3,1.5,4,2.9c1.4,1.8,1.5,3.8,0.5,5.8s-2.6,3.4-4.6,4.4c-2.1,1-4.3,1.4-6.6,1.5
	c-1.4-0.3-2.9-0.5-4.3-0.9c-0.7-0.2-1.3-0.5-1.9-0.9C291.2,38,290.6,33.9,293.7,30.6z M268.1,143.8c0.3,0.2,0,0.9-0.4,0.9
	c-2.5,0.3-4.6-1.2-5.1-3.5c-0.2-0.8-0.2-1.6-0.2-2.4c0-0.8-0.4-1.5-1-2.1c-0.7-0.7-6.6-4.7-8.2-5.4c-0.2,0.9-0.3,1.6-0.5,2.2
	c-0.1,0.5-0.5,0.8-1.1,0.8c-0.6-0.1-0.8-0.6-0.8-1.1c0-0.8,0-1.6,0.2-2.4c0.3-1.3,1.7-2.1,3-1.7c0.7,0.2,1.3,0.6,1.8,0.9
	c2.1,1.3,4.1,2.8,6.1,4.1c1.7,1.1,2.6,2.6,2.4,4.7c-0.2,1.8,0.5,3,2.2,3.8C267.3,143,267.7,143.4,268.1,143.8z M329.4,32.4
	c-2.3,0.3-4.5,0.8-6.8,1c-1.5,0.2-2.3,0.8-2.7,2.3c-0.9,3.4-3.1,5.9-6,7.8c-6.7,4.4-13.9,4.7-21.3,2.3c-2.7-0.9-4.8-2.7-6.5-5
	c-0.8-1.2-1.9-1.5-3.3-1.3c-2.5,0.5-5.1,0.8-7.6,1.2c-0.7,0.1-1.3,0.3-2.4,0.6c0.3,1.1,0.5,1.8,0.8,2.5c1.3,2.5,3,4.7,5.2,6.4
	c3.5,2.8,7.4,4.6,11.7,5.6c8.9,2.2,17.5,1.2,25.9-2.3c4-1.7,7.7-4.2,10.7-7.4c3.1-3.3,5-7.1,5.8-11.5c0-0.3,0.1-0.6,0.2-0.9
	c0.1-1.1-0.4-1.7-1.5-1.7C330.8,32.2,330.1,32.3,329.4,32.4z M331.2,35.4c-0.8,3.8-2.6,7-5.3,9.8c-5.2,5.2-11.5,8.4-18.7,9.6
	c-6.1,1.1-12.2,0.5-18.2-1.1c-3.5-0.9-6.6-2.6-9.4-4.8c-2-1.7-3.6-3.6-4.9-6.5c3.4-0.5,6.3-1,9.2-1.4c0.6,0.7,1.2,1.2,1.7,1.8
	c3.3,3.8,7.5,5.8,12.4,6.1c3.9,0.3,7.7,0.1,11.4-1.2c2.6-0.9,5-2.3,7.2-4.1c2.1-1.9,3.9-4,4.7-6.7c0.3-1,0.8-1.8,1.9-2
	c2.5-0.4,5.1-0.7,7.6-1c0.1,0,0.2,0.1,0.4,0.3C331.2,34.5,331.3,35,331.2,35.4z M350.3,123.6c0.2,0.7,0.3,1.3,0.5,2s0.3,1.3,0.5,2.2
	c0.6-0.3,1.1-0.6,1.5-0.9c1.8-1.5,3.5-3.1,5.3-4.6c1,0.4,1.3,1.1,0.7,1.7c-2.5,2.5-4.9,5.1-7.8,7.1c-0.1,0.1-0.2,0-0.5,0.1
	c-1.8-1.2-1-3.4-2.3-4.9c-2.3,1.9-4.1,4.5-6.5,6.7c-0.2-0.7-0.5-1.3-0.4-1.7c0.1-0.5,0.5-1.1,0.9-1.5c1.8-2.1,3.6-4.2,5.4-6.3
	c0.1-0.1,0.3-0.3,0.4-0.4C348.9,122.3,349.9,122.5,350.3,123.6z"/>
</svg>
