<svg xmlns="http://www.w3.org/2000/svg" version="1.1" xmlns:xlink="http://www.w3.org/1999/xlink" xmlns:svgjs="http://svgjs.dev/svgjs" width="1440" height="800" preserveAspectRatio="none" viewBox="0 0 1440 800"><g mask="url(&quot;#SvgjsMask1011&quot;)" fill="none"><path d="M1467.45 291.69C1313.47 307.04 1167.39 645.58 952.86 635.69 738.33 625.8 826.78 54.02 695.56-85.29" stroke="rgba(209, 240, 103, 1)" stroke-width="2"></path><path d="M1650.21 440.86C1489.07 430.74 1394.19 140.16 1084.75 128.86 775.31 117.56 668.65-61.58 519.29-64.22" stroke="rgba(209, 240, 103, 1)" stroke-width="2"></path><path d="M1453.98 313.11C1337.59 312.52 1226.63 213.11 999.28 213.11 771.92 213.11 786.77 318.36 544.57 313.11 302.38 307.86 243.62-88.48 89.87-121.47" stroke="rgba(209, 240, 103, 1)" stroke-width="2"></path><path d="M1593.22 675.23C1474.77 674.66 1361.66 575.23 1130.1 575.23 898.54 575.23 948.17 706.61 666.98 675.23 385.79 643.85 399.06 27.33 203.86-75.09" stroke="rgba(209, 240, 103, 1)" stroke-width="2"></path><path d="M1675.4 426.75C1512.6 407.37 1442.62 58.71 1143.78 42.75 844.94 26.79 751.38-121.32 612.16-123.24" stroke="rgba(209, 240, 103, 1)" stroke-width="2"></path></g><defs><mask id="SvgjsMask1011"><rect width="1440" height="800" fill="#ffffff"></rect></mask></defs></svg>